<?xml version="1.0" encoding="utf-8"?>
<!-- Generator: Adobe Illustrator 19.1.0, SVG Export Plug-In . SVG Version: 6.00 Build 0)  -->
<svg version="1.1" id="Calque_1" xmlns="http://www.w3.org/2000/svg" xmlns:xlink="http://www.w3.org/1999/xlink" x="0px" y="0px"
	 viewBox="0 0 525.8 134.2" style="enable-background:new 0 0 525.8 134.2;" xml:space="preserve">
<style type="text/css">
	.st0{fill:#F4EDC3;}
	.st1{fill:#819288;}
	.st2{fill:#FCF6DD;}
	.st3{fill:#C15017;}
	.st4{fill:#6B6927;}
	.st5{fill:#D9CEA8;}
	.st6{fill:#545122;}
</style>
<g>
	<g>
		<path class="st0" d="M104,94.1l-0.1-1.1v-1.2l-0.1-1v-1.3l-0.1-1.1l0.1-1l0.2-1.2l-0.1-1.1l0.1-1l-0.3-1.1l0.1-1.2l-0.1-1.1v-1
			l0.1-1.1l-0.1-1.1l0.1-1.2l0.2-1.2l-0.2-1.1v-1l0.2-1.1l-0.2-1.2l0.2-1l-0.3-1.2l0.1-1.1l0.2-1V64l-0.1-1.1v-1l-0.1-1.2l0.2-1
			l-0.1-1.1l-0.2-1.2l0.1-1.1l0.2-1.1l-0.3-1.1l0.2-1l0.1-1.2l-0.1-1.2l-0.1-1l0.1-1.1v-1.2l0.1-1.1l-0.2-1.1l-0.1-1l0.2-1.1
			l-0.2-1.1l0.2-1.2v-1l-0.1-1.2l0.2-1.1l-0.2-1.2l0.2-1l-0.1-1.2V33l0.9-1l1.3-0.1h2.4l1.1,0.1h0.8l1.3-0.1l1.2,0.1h0.9l1-0.1
			l1.2,0.1l1.4-0.1l0.8,0.1h2.5l0.9-0.1h4.4l1.3,0.1h1.1l2-0.1l1.3,0.1h1.1l1.1,0.1l2.1,0.4l0.9,0.3l1.1,0.1l1.1,0.4l2,0.6l1.4,0.6
			l0.8,0.3l1.1,0.6l0.8,0.6l0.9,0.4l0.9,0.6l0.9,0.6l1,0.7l0.8,0.6l0.9,0.8l0.6,0.7l0.8,0.7l0.6,0.8l0.6,0.7l0.8,0.9l0.6,1l0.4,0.9
			l0.6,0.8l0.9,2l0.4,0.9l0.5,1l0.3,1.1l0.4,1l0.3,1l0.3,1l0.4,1.1l0.1,1.1l0.2,1l0.4,1.1l-0.1,1.2l0.4,1l-0.2,1.1l0.3,1.2l-0.3,2.2
			l-0.1,1.1l0.2,1.1l-0.1,1.1l-0.3,1l0.1,1l-0.5,1.2l-0.1,1.1l-0.1,1l-0.6,1V76l-0.5,0.9l-0.4,1l-0.6,1l-0.5,1l-0.2,1.1l-0.8,0.9
			l-0.5,1l-0.6,0.8l-0.5,0.8l-0.6,1l-0.8,0.7l-0.7,0.9l-0.7,0.7l-0.7,0.7l-0.9,0.6l-0.8,0.8l-0.9,0.6l-0.6,0.6l-1,0.6l-1.1,0.5
			l-0.8,0.6l-1.2,0.5l-1,0.4l-1,0.5l-1,0.4l-0.9,0.3l-1.1,0.2l-2.2,0.6l-0.8,0.2l-1.3,0.1h-1.2l-0.9,0.2h-1l-2.2,0.1h-1.1l-1.2-0.1
			l-1.3,0.1l-1.1-0.1h-2l-1.1,0.1l-1.4-0.1l-1.1,0.1l-2.3,0.1l-0.9-0.1h-1.2l-1,0.1l-1-0.1h-4.8l-1.1,0.1h-0.8l-1.2-1.2L104,94.1z
			 M110.5,92h2.2l1,0.1l1.1-0.1h1.3l1.1,0.1h0.8l1.4-0.2h1l1.3,0.1l1.1-0.1l1,0.1l0.9-0.1L126,92h2.5l3.1-0.2l1.3-0.1l0.9-0.1
			l1.4-0.1l0.8-0.2l1.2-0.4l1-0.2l1.2-0.3l1.1-0.6l0.8-0.3l1-0.5l1.1-0.6l1.1-0.6l0.7-0.7l0.8-0.6l1-0.7l0.7-0.6l0.8-0.8l0.6-0.8
			l0.8-0.8l0.6-1l0.6-0.9l0.6-0.9l0.6-0.9l0.4-1l0.3-1l0.6-1l0.5-1.1l0.1-1.1l0.5-1v-1.2l0.5-1v-1.1l0.2-1.2l0.1-1.1v-1.2l0.3-1
			l-0.1-2.2l-0.1-1.2l-0.2-1.2l0.1-1l-0.3-1.1l-0.1-1.2l-0.2-1l-0.5-1.1l-0.3-1.2v-1l-0.5-1l-0.6-1l-0.3-1l-0.6-1.1l-0.6-1l-0.7-0.9
			l-0.6-0.9l-0.6-0.8l-0.6-0.9l-0.7-0.7l-0.6-0.8l-0.9-0.7l-0.9-0.7l-1-0.7l-0.8-0.5l-0.9-0.6l-1-0.6l-0.9-0.5l-2-0.9l-2.1-0.5
			l-2.4-0.6l-0.9-0.1l-1.4-0.2h-0.9l-1.1-0.2h-4.6l-1.3,0.1l-1.1-0.1h-1.1l-1,0.1l-1.1-0.1l-1.1,0.1h-3.3l-1.1-0.1h-1.2l-1.1,0.1
			l-1-0.1h-2.2l-1.2,1.2l-0.2,1v1.2l0.1,1l0.1,1.1l-0.1,1.1v1.2l0.1,1.1l-0.1,1l0.1,1.1v1.1l0.1,1l-0.2,1.2l0.1,1l-0.1,1.1l-0.1,1.2
			l0.3,1.1l-0.2,1l0.1,1.1l-0.1,1.2l-0.1,1.1l0.2,1l0.1,1.1l-0.2,1.2l-0.1,1l0.1,1l0.1,1.2V68l0.1,1.1l-0.2,1l0.2,1.2l-0.2,1.1
			l0.2,1l-0.3,1.2v1.1l0.2,1l0.1,1.2l-0.3,1.1l0.3,1.1l-0.2,1l-0.1,1.2l0.2,2.1l-0.1,1.1l0.1,1l0.1,1.1l-0.1,1.2l-0.1,1.1l-0.1,1
			l1.1,1.2L110.5,92z"/>
		<path class="st0" d="M181.9,92l1.3-0.1L184,92h1.1l1-0.1h1.3l1.2,0.1h5.3l1.3-0.1h0.8l1,0.1h2.3l1.3-0.1h1l1,0.1h1.2l1-0.1h1.1
			l1.2,0.1l0.8-0.1h5.6l1,0.1l1.2-0.1l1.2,0.1l0.8-0.1L219,92l0.9-0.1l1.3,1l-0.1,1.1l-0.3,1l-1.1,1.2l-1.3-0.1l-1,0.1l-1-0.1
			l-1.3,0.1l-0.9-0.1l-1.2,0.1h-2.4l-1-0.1l-0.9,0.1l-1.4-0.1h-0.8l-1.2,0.1l-1.2-0.1l-1.1,0.1h-1.3l-0.8-0.1h-4.4l-1.1,0.1h-7.8
			l-1.4-0.1l-1.1,0.1H183l-0.8-0.1l-1.3,0.1h-1l-1.2-0.1h-2.4l-0.9-1.1l0.1-1.1l-0.2-1.1l0.2-1.1l-0.1-1l-0.2-1.1l0.2-1.2l-0.2-1.1
			l0.3-1.2v-1l-0.3-1.1v-1.2l0.3-1v-1.2l-0.2-1l0.1-1.1v-1.2l-0.1-1l0.2-1.2l-0.2-1.1l-0.1-1l0.3-1.2v-1.2l-0.1-1.1l-0.2-1v-3.4
			l0.2-1l-0.2-1.2l0.2-1.1l-0.2-1.1l0.3-1l-0.1-1.1l-0.2-1.1l0.3-1.2l-0.1-1.2l0.1-1v-1.2l-0.1-1l0.1-1.2l-0.3-1.1l0.3-1l-0.3-1.2
			v-1l0.3-1.2l-0.3-1v-2.3l0.1-1v-1.3l-0.1-1.1v-1.1l0.3-1v-2.2l-0.3-1.2l1.1-1h1.2l1.3-0.1l0.9,0.1h1.3l1.1-0.1L183,32l1.1-0.1
			l1,0.1l1.3-0.1l1.1,0.1h3.3l1.2-0.1l0.9,0.1l1.1-0.1l1.2,0.1l1-0.1l1,0.1l1.3-0.1l0.8,0.1l1.3-0.1l0.9,0.1h4.6l1-0.1l1.3,0.1h1
			l1.2-0.1l1.1,0.1h1l0.9-0.1l1.2,0.1h4.4l1.1,0.9l-0.1,1.2l-0.1,1l-1.6,1.1l-0.8-0.1l-1.1,0.1h-1.4l-1.2-0.1l-1,0.1h-4.4l-1.3-0.1
			l-1.1,0.1l-0.8-0.1h-5.7l-1.3,0.1l-0.8-0.1h-2.5l-0.9,0.1h-2.1l-1.4-0.1h-1l-1,0.1h-2.3l-1-0.1h-1.4l-0.9,0.1l-1.2-0.1l-1.3,0.1
			l-1,1.1l0.2,1v1.3l-0.1,1.1l0.1,1l-0.2,1.2l0.1,1.2l-0.1,1.1l0.1,1l-0.1,1.2l0.1,1.1v1.2l-0.2,1l0.3,1.1l-0.2,1.2l0.2,1.2
			l-0.1,1.1l-0.2,1l0.2,1.1l-0.2,1.3v1l1.2,1.1l1.3,0.1l1-0.1l1.2,0.1h1l1-0.1h4.4l1.3,0.1l1.1-0.1h6.5l1.4,0.1h0.8l1.1-0.1h1.2
			l1.2,0.1h1l1-0.1h5.8l1,0.1h2.3l1.1,1V63l-0.2,0.9l-0.8,1.1h-1.1l-1.4,0.1h-1.1l-0.8-0.1l-1.5,0.1h-2.1l-1.1-0.1l-1.1,0.1
			l-1.2-0.1H204l-1.1,0.1L202,65l-1.3,0.1l-1.1-0.1l-1,0.1l-1.1-0.1l-1,0.1l-1.3-0.1l-0.9,0.1H192l-1.1-0.1l-1.3,0.1l-0.8-0.1
			l-1.1,0.1l-1.2-0.1h-3.4l-1.1,0.1h-1.1l-1.2,1l0.1,1.2l0.1,1.1l-0.2,1.2l0.1,1l-0.1,1.2l0.1,1.1v3.4l0.1,1l-0.2,1.1v1.3l-0.1,1
			l0.1,1.1l0.1,1.2l-0.1,1.1l-0.1,1.2v2.1l0.2,1.2v2.3l1.2,1L181.9,92z"/>
		<path class="st0" d="M285.4,31.9l1.3,0.1l0.6,0.9l-0.6,1l-0.2,1.1l-0.6,1l-0.4,1.1l-0.3,0.9l-0.5,1l-0.7,1.1l-0.3,0.9l-0.3,1.1
			l-0.6,1l-0.5,0.9l-0.3,1l-0.6,1.1l-0.5,1l-0.2,1l-0.6,1l-0.2,1l-0.7,1l-0.4,1.1l-0.4,0.9l-0.3,1l-0.6,1.2l-0.6,1l-0.3,1l-0.6,1
			l-0.5,1l-0.1,1l-0.5,0.9l-0.7,1.1l-0.2,1l-0.5,1l-0.6,1l-0.5,1.1l-0.3,0.9l-0.6,1.1l-0.4,0.9l-0.3,1l-0.6,1l-0.5,1.1l-0.2,1
			l-0.5,1.1l-0.5,0.9l-0.5,1.1l-0.6,0.9l-0.6,1l-0.4,1.1l-0.2,1l-0.5,1l-0.6,1l-0.4,1l-0.4,1l-0.6,1.1l-0.3,0.9l-0.5,1l-0.6,1
			l-0.5,1.1l-0.1,1l-0.6,1l-0.5,1l-0.3,1.1l-0.4,1l-1.9,0.9l-0.9,0.1h-1.3l-1.6-1l-0.5-1l-0.4-1.1l-0.6-1l-0.6-1.1l-0.3-1l-0.3-0.9
			l-0.5-1l-0.7-1.1l-0.4-1l-0.2-1l-0.5-1l-0.7-0.9l-0.2-1.1l-0.5-1.1l-0.4-1l-0.6-0.9l-0.4-1.1l-0.3-0.9l-0.6-1.1l-0.6-0.9l-0.3-1.1
			l-0.4-1.1l-0.4-0.9l-0.5-1.1l-0.6-1l-0.3-1l-0.7-1l-0.5-0.9l-0.2-1.1l-0.6-0.9l-0.2-1.1l-0.7-1.1l-0.2-0.9l-0.4-1l-0.5-1.1
			l-0.6-0.9l-0.5-1.1l-0.5-0.9l-0.3-1l-0.6-1.1l-0.4-1l-0.5-1.1l-0.6-1l-0.5-0.9l-0.2-1.1l-0.6-1l-0.2-1l-0.8-2.1l-0.6-0.9l-0.6-1
			l-1.3-3l-0.4-1.1l-0.3-0.9l-0.6-1l-0.3-1.2l-0.4-1l-0.6-1l-0.5-1l0.9-1l1.3,0.1h1.1l1.7,1l0.4,0.9l0.5,1l0.5,1.1l0.3,0.9l0.6,1.1
			l0.3,0.9l0.7,1.1l0.4,0.9l0.4,1l0.3,1.1l0.6,1l0.3,1l0.7,1l0.4,1l0.4,0.9l0.4,1l0.6,1l0.3,1l0.4,1.1l0.4,0.9l0.5,1l0.5,1.1l0.6,1
			l0.3,0.9l0.3,1.1l0.6,1l0.5,1l0.4,1l0.6,1l0.2,1l0.6,1l0.4,1.1l0.6,0.9l0.5,1l0.6,2l0.7,1.1l0.3,1l0.4,0.9l0.6,1l0.5,1l0.2,1
			l0.7,1.1l0.3,0.9l0.6,1.1l0.2,0.9l0.4,1.1l0.7,1l0.1,1l0.7,1l0.4,0.9l0.3,1.1l0.6,0.9l0.3,1.1l0.6,0.9l0.5,1l0.6,0.1l0.6-1.1
			l0.6-0.9l0.5-1l0.3-1.1l0.3-1l0.5-0.9l0.7-1.1l0.3-1l0.5-0.9l0.4-1.1l0.5-1l0.4-1l0.6-1l0.6-0.9l0.1-1.1l0.6-1l0.6-0.9l0.8-2
			l0.2-1.1l0.6-1l0.3-1l0.6-1l0.3-1l0.3-1l0.7-0.9l0.5-1.1l0.4-1.1l0.2-1l0.7-0.9l0.4-1.1l0.5-0.9l0.3-1.1l0.5-0.9l0.3-1.1l0.9-2
			l0.5-0.9l0.6-1l0.4-1.1l0.5-1l0.6-0.9l0.3-1l0.5-1l0.4-1l0.6-1.1l0.4-0.9l0.4-1.1l0.6-1L280,39l0.4-1.1l0.5-0.9l0.6-1l0.2-1.1
			l0.8-2l1.7-1H285.4z"/>
		<path class="st0" d="M340.7,36.1h-5.6l-1.2,0.1h-5.5l-1.3-0.1l-1,0.1h-0.9l-1.2-0.1l-1.3,0.1h-1.1l-1.1-0.1h-1l-1,0.1h-2.2
			l-1.1-0.1l-1.1,0.1h-5.8l-0.8-0.1l-1.4,0.1h-2l-1.2,1.1l0.1,0.9v1.2l-0.2,1.1l0.3,1.1l-0.1,1l-0.2,1.1v1.1l0.1,1.1l0.1,0.9
			l0.1,1.1v1.2l-0.1,1.1v0.9l0.1,1.1v2.2l-0.3,1.1l0.3,1.1l-0.3,1l0.2,1.1l0.1,1.1L303,61l0.9,1l1.1,0.1h1.2l1.1-0.1l1,0.1l1.1-0.1
			l1.1,0.1h1.2l1.1-0.1h1l1.1,0.1h7l0.8-0.1h1.2l1,0.1h1.4l0.9-0.1l1.1,0.1l1.3-0.1l1.1,0.1h3.2l1.1-0.1h1l1.3,0.1h0.9l1.2-0.1
			l1,1.1l0.2,0.9l-0.2,1.2l-1.2,1l-1-0.1H334l-1.4,0.1l-0.8-0.1l-1.2,0.1l-1.1-0.1h-7.8l-1.3,0.1h-2l-1.2-0.1l-1.2,0.1l-0.9-0.1
			l-1.3,0.1l-0.8-0.1h-4.7l-1.1,0.1l-1.1-0.1l-1,0.1l-1-0.1l-1.1,1.2l-0.1,1l0.1,1.1l-0.2,1.1l0.1,1.3l-0.1,1l0.3,1.1l-0.1,1.2
			l-0.2,1.1v1l0.1,1.2l-0.1,1v2.3l0.2,1.1l-0.1,1.1l0.2,2.2l-0.1,1.2l-0.2,1.1l0.2,1.1l0.1,1.1l-0.1,1.1l-0.2,1.2l0.2,1l-0.2,1.1
			l-0.9,1.2l-1.1-0.1h-1.2l-0.9-1l0.1-1.2v-2.1l-0.1-1.2l-0.2-1.1l0.1-1l0.2-1.3v-1l-0.3-1.2l0.3-1v-1.1l-0.1-1.1l-0.1-1.2l0.2-1.1
			v-1.1l-0.3-1v-1.1l0.2-1.1l-0.2-1.1V73l0.2-1.3l-0.2-1.1v-1l0.3-1.1v-2.3l-0.2-1V64l0.2-1l-0.2-1.2l0.1-1.1l-0.2-1.1l0.2-1v-1.1
			l-0.1-1.2v-4.5l0.2-1v-1.2l-0.3-1v-1.2l0.3-1l-0.1-1.1l-0.1-1.2l0.2-1l-0.3-1.2l0.1-1.1v-1.2l0.1-1.1l-0.1-1l0.1-1.2v-1l0.1-1.2
			l-0.2-1.1l1-1h1.3l1.1-0.1h1l1,0.1l1-0.1l1.1,0.1l1.2-0.1h2.3l1.2,0.1h0.9l1.3-0.1h3.2l1,0.1l0.9-0.1l1.4,0.1h0.9l1.3-0.1h1.9
			l1.4,0.1h3.2l0.8-0.1l1.1,0.1l1.2-0.1l1.3,0.1h6.5l0.8-0.1h2.3l0.9,1l-0.2,1.2l-0.1,1l-1.2,1.1L340.7,36.1z"/>
		<path class="st0" d="M364.9,92l1.3-0.1L367,92h1.1l1-0.1h1.3l1.2,0.1h5.3l1.3-0.1h0.8l1,0.1h2.3l1.3-0.1h1l1,0.1h1.2l1-0.1h1.1
			l1.2,0.1l0.8-0.1h5.6l1,0.1l1.2-0.1l1.2,0.1l0.8-0.1l1.3,0.1l0.9-0.1l1.3,1l-0.1,1.1l-0.3,1l-1.1,1.2l-1.3-0.1l-1,0.1l-1-0.1
			l-1.3,0.1l-0.9-0.1l-1.2,0.1h-2.4l-1-0.1l-0.9,0.1l-1.4-0.1h-0.8l-1.2,0.1l-1.2-0.1l-1.1,0.1h-1.3l-0.8-0.1h-4.4l-1.1,0.1h-7.8
			l-1.4-0.1l-1.1,0.1H366l-0.8-0.1l-1.3,0.1h-1l-1.2-0.1h-2.4l-0.9-1.1l0.1-1.1l-0.2-1.1l0.2-1.1l-0.1-1l-0.2-1.1l0.2-1.2l-0.2-1.1
			l0.3-1.2v-1l-0.3-1.1v-1.2l0.3-1v-1.2l-0.2-1l0.1-1.1v-1.2l-0.1-1l0.2-1.2l-0.2-1.1l-0.1-1l0.3-1.2v-1.2l-0.1-1.1l-0.2-1v-3.4
			l0.2-1l-0.2-1.2l0.2-1.1l-0.2-1.1l0.3-1l-0.1-1.1l-0.2-1.1l0.3-1.2l-0.1-1.2l0.1-1v-1.2l-0.1-1l0.1-1.2l-0.3-1.1l0.3-1l-0.3-1.2
			v-1l0.3-1.2l-0.3-1v-2.3l0.1-1v-1.3l-0.1-1.1v-1.1l0.3-1v-2.2l-0.3-1.2l1.1-1h1.2l1.3-0.1l0.9,0.1h1.3l1.1-0.1L366,32l1.1-0.1
			l1,0.1l1.3-0.1l1.1,0.1h3.3l1.2-0.1l0.9,0.1l1.1-0.1l1.2,0.1l1-0.1l1,0.1l1.3-0.1l0.8,0.1l1.3-0.1l0.9,0.1h4.6l1-0.1l1.3,0.1h1
			l1.2-0.1l1.1,0.1h1l0.9-0.1l1.2,0.1h4.4l1.1,0.9l-0.1,1.2l-0.1,1l-1.6,1.1l-0.8-0.1l-1.1,0.1h-1.4l-1.2-0.1l-1,0.1h-4.4l-1.3-0.1
			l-1.1,0.1l-0.8-0.1h-5.7l-1.3,0.1l-0.8-0.1h-2.5l-0.9,0.1h-2.1l-1.4-0.1h-1l-1,0.1h-2.3l-1-0.1h-1.4l-0.9,0.1l-1.2-0.1l-1.3,0.1
			l-1,1.1l0.2,1v1.3l-0.1,1.1l0.1,1l-0.2,1.2l0.1,1.2l-0.1,1.1l0.1,1l-0.1,1.2l0.1,1.1v1.2l-0.2,1l0.3,1.1l-0.2,1.2l0.2,1.2
			l-0.1,1.1l-0.2,1l0.2,1.1l-0.2,1.3v1l1.2,1.1l1.3,0.1l1-0.1l1.2,0.1h1l1-0.1h4.4l1.3,0.1l1.1-0.1h6.5l1.4,0.1h0.8l1.1-0.1h1.2
			l1.2,0.1h1l1-0.1h5.8l1,0.1h2.3l1.1,1V63l-0.2,0.9l-0.8,1.1h-1.1l-1.4,0.1h-1.1l-0.8-0.1l-1.5,0.1h-2.1l-1.1-0.1l-1.1,0.1
			l-1.2-0.1H387l-1.1,0.1L385,65l-1.3,0.1l-1.1-0.1l-1,0.1l-1.1-0.1l-1,0.1l-1.3-0.1l-0.9,0.1H375l-1.1-0.1l-1.3,0.1l-0.8-0.1
			l-1.1,0.1l-1.2-0.1h-3.4l-1.1,0.1h-1.1l-1.2,1l0.1,1.2l0.1,1.1l-0.2,1.2l0.1,1l-0.1,1.2l0.1,1.1v3.4l0.1,1l-0.2,1.1v1.3l-0.1,1
			l0.1,1.1l0.1,1.2l-0.1,1.1l-0.1,1.2v2.1l0.2,1.2v2.3l1.2,1L364.9,92z"/>
		<path class="st0" d="M437.2,97.3l-0.9-0.2l-1.2-0.1l-0.9-0.1H433l-1.2-0.3l-0.9-0.1l-1.1-0.3l-1.1-0.3l-0.9-0.2l-1.4-0.4l-0.9-0.3
			l-1-0.3l-0.9-0.5l-1.1-0.5l-1-0.4l-0.8-0.6l-1.2-0.5l-0.7-0.6l-1-0.5l-0.9-0.6l-0.9-0.7l-0.8-0.6l-0.2-1.5l0.5-1l0.6-0.8l1.2-0.4
			l1.9,1.4l0.8,0.6l0.8,0.6l1,0.6l1,0.6l0.8,0.5l1.2,0.4l0.8,0.4l0.9,0.4l1.1,0.3l1.1,0.3l1,0.3l1.1,0.3l1.1,0.3l1,0.1l1,0.2
			l1.2,0.1h1.3l1,0.2l0.9-0.1h2.4l1.2-0.1l1.1,0.1l1.1-0.2l0.8-0.2h1.4l0.8-0.2l1.3-0.3l0.8-0.4l1.3-0.2l1.1-0.4l1.1-0.6l0.8-0.5
			l0.8-0.4l0.9-0.7l1.1-0.6l0.8-0.6l0.7-0.8l0.8-0.8l0.6-0.8l0.6-1.1l0.3-1l0.6-1l0.1-1l0.2-1l0.2-2.2l-0.4-1.2l-0.2-1.1l-0.1-1
			l-0.4-1l-0.6-0.8l-0.6-0.9l-0.6-0.8l-0.7-0.9l-0.6-0.6l-1.7-1.3l-1.3-0.5l-1-0.5l-0.7-0.3l-1.2-0.4l-1.2-0.3l-0.8-0.4l-1.1-0.1
			l-1.3-0.4l-0.9-0.2l-1.2-0.1l-1.2-0.2h-0.9l-1.3-0.2h-0.9l-2.4-0.2l-0.9-0.1l-1.3-0.2l-1.1-0.1l-1.2-0.2l-1.1-0.1l-1-0.3l-1.2-0.2
			l-0.8-0.3l-1.1-0.3l-1.2-0.3l-1.2-0.5l-0.9-0.4l-1-0.4l-0.8-0.6l-1-0.6l-1-0.5l-1.8-1.5l-0.5-0.8l-0.8-0.8l-0.5-0.9l-0.5-1l-0.6-1
			l-0.4-0.9l-0.3-1.1l-0.3-1.1l-0.2-1.1l0.1-1.1l-0.3-2.2l0.1-1.2l0.5-0.9l0.3-1.2l0.4-1l0.3-1l0.4-0.9l0.6-0.9l0.6-0.9l0.8-0.8
			l0.6-0.7l0.9-0.6l0.6-0.6l1-0.7l0.9-0.6l0.8-0.5l1.3-0.5l0.8-0.6l0.9-0.3l1.3-0.4l1-0.3l1.9-0.5l1.3-0.3h0.9l1.3-0.3h1.3h0.9
			l1-0.2l2.2,0.1h1.2h1.3l2.1,0.2l1,0.2l1.3,0.1l0.7,0.3l1.3,0.1l3,0.8l2.4,0.6l1,0.3l0.9,0.5l1.2,0.3l0.9,0.5l1.1,0.4l0.6,0.5
			l1.2,0.6l1,0.5l0.3,1.6l-0.6,0.9l-0.3,0.9l-1.5,0.4l-1.9-0.9l-2-0.9l-1-0.4l-1.1-0.5l-1.2-0.3l-1-0.4l-1.1-0.3l-1-0.2l-0.8-0.3
			l-1.4-0.2l-2.1-0.5l-1.2-0.2h-1.1l-0.8-0.2h-1.1l-1.1-0.1h-2.2l-1.4,0.2l-1.2-0.1l-2,0.3l-1.3,0.3l-1.1,0.1l-1.2,0.3l-0.8,0.3
			l-1,0.5l-1.1,0.5l-1,0.5l-1.3,0.6l-0.7,0.6l-0.7,0.7l-1.1,0.7l-0.7,0.9l-0.6,0.9l-0.4,0.9l-0.6,1.1l-0.2,1l0.1,1.2l-0.1,2.2l0.1,1
			l0.3,1.1l0.3,1.2l0.1,0.9l0.6,0.9l0.6,1l0.9,0.8l0.7,0.6l0.7,0.7l1,0.6l1.1,0.4l1,0.5l0.8,0.6l1.2,0.2l2.2,0.6l1.1,0.3l1.2,0.2h1
			l1.3,0.2l0.9,0.2h1.2l1.3,0.2l2.2,0.2h1l1,0.2h1.3l1.2,0.3h1l1.1,0.3l0.8,0.1l1.2,0.4l1,0.3l1,0.2L453,63l1.2,0.4l1.1,0.5l1,0.4
			l0.7,0.6l1,0.6l1.8,1.1l0.9,0.7l0.6,0.7l0.9,0.9l0.4,0.9l0.8,0.9l0.5,0.9l0.2,1l0.6,0.9l0.3,1.2l0.3,0.9l0.1,1.1l-0.1,1.1v2.2v1.1
			l-0.1,1.2l-0.2,1l-0.6,1l-0.3,1l-0.4,1l-0.7,0.9l-1.2,1.7l-0.8,0.8l-0.5,0.8l-1.1,0.7l-1.5,1.3l-1.3,0.6l-0.8,0.6l-1,0.5l-0.9,0.5
			l-0.9,0.5l-1.2,0.4l-1.2,0.4l-2,0.5l-1.1,0.2l-1.1,0.3l-1.1,0.1l-1.4,0.2h-1.1l-1,0.1l-1.3,0.1l-2.1-0.1L437.2,97.3z"/>
		<path class="st0" d="M522.5,34.1L522,35l-1,1.1h-2.2l-1.2,0.1h-2.4l-1.1-0.1H513l-1.1,0.1h-2.3l-1-0.1l-1.2,0.1l-0.9-0.1l-1,0.1
			h-5.8l-1.2,1l0.3,1.1l-0.3,1.1v1.2l0.2,1l0.1,1v1.1l-0.1,1.2l-0.2,2.2l0.3,1l-0.2,1.2v1l0.1,1.1v1.1l0.1,1.1v1.1v1l-0.3,1.2l0.1,1
			l0.1,1.2l-0.1,1.1l0.2,0.9l-0.3,1.2l0.1,1.1l0.2,1.1v1l-0.1,1.1l-0.1,1.2l0.1,1.1l0.2,1.1l-0.2,1.1v1l0.2,1.1l-0.2,1v1.2l0.2,1
			v1.1l-0.2,1.2v1.1v1l0.1,1.1l0.1,1.1v1.1l-0.2,1.1v1l-0.1,1.2l0.3,1.1v1.1l-0.3,1l0.3,1.1l-0.3,1l0.2,1.1l-0.1,1.1l-0.9,1.1
			l-1.1,0.1h-1.4l-0.9-1.1v-1.2l-0.2-1l0.1-1.2l-0.1-0.9v-1.1l0.2-1.1l-0.1-1.2v-1.1l0.1-1v-1.2l-0.3-1.1v-1.1l0.3-0.9v-2.2
			l-0.3-1.1l0.2-1.1l0.1-1.1v-1.1l-0.2-1.2l-0.1-1.1l0.3-0.9l-0.3-1.1l0.2-1.2l-0.1-1l0.1-1.1v-1.2l-0.1-1.1l0.1-1l-0.2-1.2v-1.1
			l0.2-1l-0.1-1V58l0.2-1.1l-0.3-1.1v-1.1l0.1-1.1l-0.1-1.1l0.1-1.1l-0.1-1.1l0.2-1.1l-0.1-1.1l0.1-1l-0.2-1.2l0.2-1.1v-1l0.1-1.1
			l-0.3-1.2v-2.1l0.2-1.1v-1l-1.1-1.2l-1,0.1h-1.1l-1.4-0.1l-1.1,0.1h-0.9l-1.2-0.1l-1.1,0.1h-1.2l-1-0.1l-1.3,0.1l-1.2-0.1l-1,0.1
			l-0.9-0.1h-1.2l-1.1,0.1h-3.3l-1.1-0.1l-1.2-1V33l1.1-1.1h2.2l0.9,0.1l1.4-0.1l0.9,0.1l1.3-0.1l0.8,0.1l1.4-0.1h1.1l0.9,0.1
			l1.3-0.1h5.3l1.1,0.1l1.3-0.1L493,32h0.9l1.2-0.1h3.1l1.1,0.1h1.1l1.2-0.1l1.2,0.1l0.9-0.1h1.2l0.9,0.1h1.4l0.9-0.1l1.3,0.1h1
			l0.9-0.1h1.4l0.8,0.1h1.3l1.2-0.1h1.1L518,32l1.4-0.1h1.1l1.1,0.1l0.9,1V34.1z"/>
	</g>
	<g>
		<path class="st0" d="M109.5,21.7h-0.3l-0.3,0l-0.2,0l-0.3,0l-0.3,0l-0.3,0l-0.2,0l-0.3-0.1l-0.3-0.1l-0.3-0.1l-0.2-0.1l-0.3-0.1
			L106,21l-0.2-0.1l-0.3-0.1l-0.3-0.1l-0.2-0.1l-0.2-0.2l-0.3-0.1l-0.2-0.2l-0.3-0.1l-0.2-0.2l-0.1-0.4l0.1-0.2l0.1-0.2l0.4-0.1
			l0.2,0.2l0.3,0.1l0.2,0.2l0.3,0.1l0.2,0.2l0.4,0.2l0.2,0.1l0.3,0.1l0.2,0.1l0.3,0.1l0.3,0.1l0.6,0.1l0.3,0l0.2,0l0.3,0l0.2,0
			l0.3,0l0.3,0h0.3l0.8,0l0.4,0l0.2,0l0.3,0l0.6-0.1l0.3,0l0.2-0.1l0.3-0.1l0.3-0.1l0.4-0.1l0.2-0.1l0.3-0.1l0.3-0.2l0.2-0.2
			l0.2-0.1l0.2-0.2l0.1-0.2l0.2-0.2l0.1-0.3l0.2-0.3l0-0.3l0-0.3l0.1-0.3l0-0.6l0-0.3l0-0.3l-0.1-0.3l-0.1-0.2l-0.1-0.2l-0.2-0.2
			L115,15l-0.2-0.2l-0.2-0.1l-0.2-0.2l-0.5-0.3l-0.3-0.1l-0.2-0.1l-0.2-0.1l-0.4-0.1l-0.2,0l-0.3-0.1l-0.6-0.1h-0.3l-0.3-0.1l-0.3,0
			h-0.3l-0.3,0l-0.5,0l-0.3,0l-0.2,0l-0.3-0.1h-0.3l-0.3,0l-0.3-0.1l-0.3,0l-0.3,0l-0.3-0.1l-0.2-0.1l-0.3-0.1l-0.3-0.1l-0.2-0.1
			l-0.3-0.1l-0.3-0.1l-0.2-0.2l-0.2-0.2l-0.2-0.2l-0.2-0.2l-0.2-0.3l-0.2-0.2l-0.1-0.2l-0.1-0.2l0-0.3l0-0.3l-0.1-0.3l0-0.3V9.3
			l0-0.6l0-0.3l0.1-0.2l0.1-0.3l0-0.3l0.1-0.2l0.1-0.2l0.2-0.2l0.2-0.3l0.1-0.2l0.2-0.2l0.3-0.2l0.2-0.2l0.2-0.2l0.2-0.1l0.3-0.1
			l0.2-0.1l0.3-0.1l0.2-0.1l0.5-0.2l0.3,0l0.3-0.1l0.3,0l0.3,0l0.3-0.1h0.3h0.3l0.3,0l0.5,0h0.3l0.2,0h0.3l0.3,0l0.3,0l0.2,0
			l0.3,0.1l0.3,0l0.2,0L113,5l0.3,0.1l0.3,0l0.2,0.1l0.3,0.1l0.3,0.1l0.2,0.1l0.3,0.1l0.2,0.1l0.6,0.3l0.2,0.1l0.1,0.4l-0.1,0.2
			L115.8,7L115.4,7l-0.5-0.3l-0.3-0.1l-0.2-0.1l-0.2-0.1l-0.3-0.1l-0.3-0.1l-0.2-0.1l-0.3,0l-0.3-0.1L112.5,6l-0.2,0l-0.3,0l-0.3,0
			l-0.3-0.1H111l-0.3,0h-0.2l-0.3,0h-0.5l-0.3,0H109l-0.2,0l-0.3,0l-0.7,0.1l-0.2,0l-0.4,0.1l-0.2,0.1l-0.3,0.1l-0.2,0.1l-0.3,0.1
			l-0.2,0.2l-0.3,0.2l-0.2,0.2l-0.2,0.2l-0.1,0.2l-0.2,0.3l0,0.3L105,8.4l-0.1,0.3l0,0.6l0,0.3l0,0.3l0.1,0.3l0.2,0.2l0.1,0.3
			l0.2,0.2l0.1,0.2l0.2,0.2l0.2,0.2l0.2,0.2l0.3,0.1l0.3,0.1l0.2,0.1l0.3,0l0.3,0.1l0.3,0.1l0.3,0l0.4,0l0.3,0l0.3,0l0.3,0l0.3,0
			h0.3l0.9,0.1l0.2,0l0.3,0l0.3,0l0.2,0l0.3,0l0.2,0.1l0.3,0.1l0.3,0l0.3,0.1l0.3,0.1l0.2,0.1l0.3,0.1l0.2,0.1l0.2,0.2l0.3,0.1
			l0.2,0.1l0.2,0.2l0.2,0.2l0.3,0.2l0.1,0.2l0.2,0.2l0.2,0.2l0.1,0.2l0.1,0.3l0.1,0.3l0,0.3l0.1,0.3l0,0.3l0,0.3l-0.1,0.6l0,0.3
			l0,0.3l-0.1,0.3v0.3l-0.2,0.2l-0.1,0.3l-0.1,0.2l-0.1,0.2l-0.2,0.2l-0.2,0.2l-0.2,0.2l-0.2,0.2l-0.2,0.2l-0.2,0.2l-0.3,0.1
			l-0.3,0.2l-0.2,0.1l-0.3,0.1l-0.3,0.1l-0.2,0.1l-0.5,0.1l-0.3,0.1l-0.3,0l-0.3,0l-0.3,0l-0.3,0l-0.3,0h-0.3l-0.3,0h-0.6
			L109.5,21.7z"/>
		<path class="st0" d="M120.5,20.9l0-0.3l0-0.3l0-0.3l0-0.3l0-0.3l0-0.3l0-0.3l0-0.3v-0.3l0-0.3v-0.3l0-0.3l-0.1-0.3l0-0.3l0-0.3
			l-0.1-0.3l0-0.3v-0.3l0-0.3v-0.3l0-0.3l0-0.3l0-0.3l0-0.3l-0.1-0.3l0-0.3l0-0.3l0-0.3l0-0.3l0-0.3V12l0-0.3l0-0.3l0-0.3v-0.3
			l0.1-0.3l0-0.3l0-0.3V9.8l0-0.3l0-0.3l0-0.3V8.6l0-0.3l0-0.3l0-0.3l-0.1-0.3l0-0.3l0-0.3V6.6l0-0.3l0-0.3l0-0.3l0-0.3l0-0.3
			l0.2-0.3l0.3,0l0.3,0h0.2l0.3,0h0.4l0.3,0h0.3l0.3,0h0.3l0.3,0h0.3l0.4,0h0.2l0.3,0l0.3,0h0.2l0.4,0l0.3,0l0.2,0h0.3l0.3,0h0.3
			l0.3,0l0.3,0l0.6,0l0.3,0h0.3l0.3,0l0.3,0.1l0.3,0l0.3,0.1l0.2,0.1l0.3,0.1l0.6,0.2l0.2,0.1l0.3,0.2l0.1,0.2l0.3,0.2l0.1,0.2
			l0.2,0.2l0.2,0.2l0.1,0.3l0.1,0.2l0.2,0.2l0,0.3l0.1,0.3l0,0.3l0.1,0.3l0,0.3l0,0.2l0,0.3l0,0.6v0.3l0,0.3v0.3l-0.1,0.3l-0.1,0.2
			l-0.1,0.3l0,0.3l-0.2,0.3l-0.2,0.2l-0.1,0.2l-0.1,0.2l-0.2,0.2l-0.1,0.2l-0.3,0.2l-0.2,0.2l-0.3,0.1l-0.2,0.2l-0.3,0.1l-0.3,0.1
			l-0.5,0.2l-0.4,0.1l-0.2,0.1l-0.3,0l-0.3,0l-0.3,0H128h-0.9l-0.3,0h-0.3l-0.2,0l-0.3,0l-0.3,0h-0.3l-0.3,0l-0.3,0h-1.4l-0.3,0H123
			l-0.3,0l-0.3,0h-0.6l-0.3,0.3l0,0.3l0,0.3l0,0.3l0,0.3l0,0.3l0,0.3v0.3l0,0.3l-0.1,0.3l0,0.3V18l0,0.3l0,0.3l0,0.3v0.3l0,0.3
			l0,0.3l0,0.3l0,0.3v0.6l0,0.3l-0.3,0.3h-0.5l-0.4-0.3L120.5,20.9z M122.2,13.6l0.3,0l0.2,0l0.3,0l0.3,0h0.3l0.4,0l0.2,0l0.3,0
			l0.3,0h0.9l0.2,0l0.3,0l0.3,0h1.1l0.6,0l0.2,0l0.3,0l0.3,0l0.3,0l0.2-0.1l0.4-0.1l0.2-0.1l0.3-0.1l0.2-0.1l0.2-0.2l0.2-0.2
			l0.2-0.2l0.2-0.2l0.1-0.2l0.1-0.3l0.1-0.3l0.1-0.3l0-0.3l0.1-0.3v-0.3l0-0.3l0-0.5l0-0.3l-0.1-0.3l0-0.3l0-0.2l-0.1-0.3l-0.1-0.3
			l-0.1-0.3l-0.2-0.2l-0.1-0.2L130.9,7l-0.2-0.2l-0.2-0.2l-0.3-0.1L130,6.4l-0.3-0.1l-0.2-0.1l-0.3-0.1l-0.2,0l-0.3,0l-0.3,0l-0.3,0
			h-0.8l-0.3,0l-0.4,0H126l-0.4,0l-0.2,0h-0.3l-0.2,0h-0.6l-0.2,0l-0.3,0l-0.3,0h-0.9l-0.3,0l-0.3,0l-0.2,0.3l0,0.3v0.6l0,0.2l0,0.3
			l0.1,0.3l0,0.3l0,0.3l0,0.3l0,0.3l0,0.3v0.3l0,0.3l0,0.3v0.3l0,0.3V11l0,0.3l0,0.3l-0.1,0.3l0,0.3v0.3l0,0.3V13l-0.1,0.3l0.3,0.3
			L122.2,13.6z"/>
		<path class="st0" d="M147.1,20.9l-0.2-0.3l0-0.2l-0.2-0.3l-0.1-0.3l0-0.3l-0.1-0.2l-0.2-0.2l0-0.3l-0.1-0.3l-0.1-0.2l-0.1-0.3
			l-0.1-0.3l-0.1-0.2l-0.2-0.3l-0.3-0.3l-0.4,0l-0.3,0h-0.2l-0.3,0l-0.3,0l-0.4,0l-0.3,0l-0.3,0h-0.2l-0.3,0h-0.6l-0.3,0l-0.3,0
			l-0.2,0h-0.3l-0.3,0h-0.3l-0.2,0h-2l-0.3,0h-0.3l-0.2,0h-0.6l-0.4,0.3l-0.2,0.2l0,0.3l-0.2,0.3l-0.1,0.3l-0.1,0.3l-0.1,0.3
			l-0.1,0.3l0,0.2l-0.1,0.3l-0.1,0.3l0,0.2l-0.2,0.3l-0.1,0.3l-0.1,0.2l-0.2,0.3l-0.4,0.2h-0.4l-0.3,0l-0.2-0.3l0.1-0.3l0.1-0.3
			l0.2-0.2l0.1-0.3l0.1-0.3l0.1-0.3l0.1-0.3l0.2-0.2l0.1-0.3l0.1-0.3l0.1-0.3l0.1-0.2l0.1-0.3l0.2-0.3l0.1-0.3l0.1-0.2l0.2-0.3
			l0.1-0.3l0.2-0.3l0.1-0.3l0.1-0.3l0.1-0.2l0.1-0.3l0.1-0.2l0-0.3l0.1-0.3l0.2-0.3l0.1-0.3l0.1-0.2l0-0.3l0.2-0.3l0.1-0.3l0.1-0.3
			l0.1-0.2l0.1-0.3l0.1-0.3l0.1-0.3l0.1-0.3l0-0.3l0.2-0.2l0.1-0.3l0.1-0.2l0-0.3l0.1-0.2l0.1-0.3l0.2-0.3l0.1-0.2l0-0.3l0.2-0.3
			l0.1-0.2l0.1-0.3l0-0.3l0.1-0.3l0.1-0.2l0.2-0.3l0.1-0.2l0.1-0.3l0.2-0.3l0-0.3l0.2-0.2l0-0.3l0.2-0.2l0.4-0.3h0.4l0.2,0l0.4,0.3
			l0.1,0.3l0.2,0.3l0.1,0.3l0.1,0.3l0.1,0.2l0.1,0.3l0.1,0.2l0.1,0.2l0.1,0.3l0.2,0.3l0,0.2l0.2,0.3l0.1,0.3l0,0.3l0.1,0.2l0.1,0.3
			l0.1,0.2l0.1,0.3l0.1,0.2l0.2,0.3l0,0.3l0.2,0.3l0.2,0.5l0.1,0.3l0.1,0.3l0.1,0.2l0.2,0.3l0.1,0.3l0.1,0.3l0.2,0.2l0.1,0.3
			l0.1,0.2l0.1,0.3l0.1,0.2l0.1,0.3l0.2,0.5l0.1,0.2l0.1,0.3l0.3,0.5l0,0.3l0.2,0.3l0.1,0.2l0.1,0.3l0,0.3l0.1,0.3l0.2,0.2l0,0.3
			l0.2,0.2l0.1,0.3l0.1,0.3l0.1,0.3l0.1,0.2l0.1,0.3l0.1,0.2l0.2,0.5l0.1,0.3l0.2,0.3l0.1,0.3l-0.2,0.2l-0.3,0h-0.3l-0.4-0.3
			L147.1,20.9z M137.1,16h0.5l0.4,0h0.2l0.2,0l0.3,0h0.3l0.3,0l0.3,0l0.3,0l0.3,0l0.3,0h0.3l0.2,0h0.3l0.2,0l0.3,0h0.6l0.3,0h0.3
			l0.3,0l0.3,0l0.2,0l0.3,0l0.3,0l0.3,0l0.2-0.3l-0.2-0.3l-0.1-0.2l-0.1-0.3l-0.1-0.3l-0.1-0.3l-0.1-0.2l-0.1-0.3l-0.1-0.3l-0.3-0.5
			l-0.1-0.3l-0.1-0.3l0-0.3l-0.2-0.2l-0.1-0.3l-0.2-0.3l-0.1-0.2l0-0.3l-0.1-0.2l-0.1-0.3l-0.3-0.8l-0.1-0.3l-0.2-0.2l-0.1-0.3
			l0-0.3l-0.1-0.3l-0.1-0.3l-0.1-0.3l-0.1-0.2l-0.1-0.3L141,7.1l0-0.3l-0.1-0.2l-0.2,0l-0.1,0.3l-0.1,0.3l-0.1,0.3l-0.1,0.2L140,7.9
			l-0.1,0.2l-0.1,0.3l-0.1,0.2l-0.1,0.3l-0.3,0.5l0,0.2l-0.1,0.3l-0.1,0.3l-0.1,0.3l-0.1,0.2l-0.1,0.3l-0.1,0.3l-0.1,0.2l-0.1,0.3
			l-0.1,0.2l-0.1,0.3l-0.2,0.2l0,0.3l-0.1,0.3l-0.1,0.2l-0.1,0.3l-0.1,0.3l-0.2,0.2l-0.1,0.3l-0.2,0.3l0,0.3l-0.1,0.3l-0.1,0.3
			l-0.1,0.3l0.1,0.2L137.1,16z"/>
		<path class="st0" d="M157.7,21.7l-0.3,0l-0.6-0.1l-0.3,0l-0.3,0l-0.3-0.1l-0.3-0.1l-0.2-0.1l-0.2,0l-0.3-0.1l-0.3-0.1l-0.3-0.1
			l-0.3-0.1l-0.2-0.1l-0.3-0.2l-0.2-0.1l-0.3-0.2l-0.3-0.2l-0.2-0.1l-0.3-0.2l-0.2-0.2l-0.3-0.2l-0.2-0.2l-0.2-0.2l-0.2-0.2
			l-0.2-0.2l-0.1-0.2l-0.2-0.2l-0.1-0.2l-0.1-0.2l-0.2-0.3l-0.1-0.2l-0.1-0.3l-0.1-0.3l-0.1-0.3L150,16l-0.1-0.3l-0.1-0.3v-0.3
			l-0.1-0.3l0-0.3v-0.3l-0.1-0.3l0-0.3l0-0.3l0-0.6v-0.3l0-0.3v-0.3l0-0.3l0.1-0.3l0-0.3l0.1-0.3l0-0.3l0.1-0.3l0-0.3l0.1-0.3
			l0.1-0.3l0.1-0.3l0.1-0.3l0.2-0.3l0.1-0.2l0.1-0.2L151,8l0.2-0.2l0.2-0.2l0.1-0.2l0.2-0.2l0.3-0.2l0.2-0.2l0.2-0.2l0.2-0.2
			l0.4-0.3l0.3-0.1l0.2-0.2l0.3-0.1l0.2-0.1l0.3-0.1l0.2-0.1l0.3-0.1l0.3-0.1l0.2-0.1l0.3,0l0.3-0.1l0.5-0.1l0.3,0l0.2-0.1h0.3
			l0.3,0h0.3l0.5,0l0.4,0h0.3l0.3,0l0.3,0l0.3,0l0.3,0l0.6,0.1L161,5l0.3,0.1l0.3,0.1l0.3,0.1l0.3,0.1l0.3,0.1l0.2,0.1l0.3,0.1
			l0.3,0.1l0.3,0.2l0.4,0.3l0.1,0.4l-0.2,0.4l-0.4,0.1L163.1,7l-0.3-0.1l-0.2-0.1l-0.2-0.1l-0.2-0.1l-0.3-0.1l-0.5-0.2l-0.4,0
			l-0.3-0.1L160.5,6l-0.3-0.1l-0.5-0.1l-0.3,0l-0.3,0l-0.4,0l-0.2,0l-0.3,0h-0.6h-0.3l-0.3,0l-0.3,0l-0.3,0l-0.2,0.1l-0.3,0L155.7,6
			l-0.3,0.1l-0.3,0.1l-0.3,0.1l-0.2,0.1l-0.3,0.1l-0.3,0.1l-0.3,0.1l-0.2,0.2l-0.2,0.2l-0.2,0.2L153,7.4l-0.2,0.2l-0.2,0.2l-0.1,0.2
			l-0.2,0.2L152,8.5l-0.2,0.3L151.7,9l-0.1,0.2l-0.1,0.2l-0.1,0.3l-0.2,0.3l0,0.2l-0.1,0.3l-0.1,0.3v0.2l-0.1,0.3l0,0.3V12l0,0.3
			l-0.1,0.3v0.3l0,0.6l0.1,0.3l0,0.3l0.1,0.3v0.3l0,0.3l0.1,0.3l0.1,0.3v0.3l0.1,0.3l0.1,0.3l0.1,0.2l0.2,0.3l0.1,0.2l0.2,0.3
			l0.1,0.2l0.2,0.2l0.2,0.3l0.2,0.2l0.2,0.2l0.2,0.2l0.1,0.2l0.2,0.2l0.3,0.2l0.2,0.2l0.2,0.2l0.2,0.1l0.3,0.1l0.2,0.1l0.3,0.1
			L155,20l0.4,0.1l0.2,0.1l0.3,0l0.3,0.1l0.3,0.1l0.3,0l0.3,0.1h0.3l0.3,0l0.3,0h0.3h0.5l0.4,0l0.2,0l0.3,0l0.3-0.1h0.3l0.3-0.1
			l0.3,0l0.3,0l0.3-0.1l0.3-0.1l0.2-0.1l0.3,0l0.3-0.1l0.3-0.1l0.3-0.1l0.3-0.1l0.2-0.1l0.2-0.1l0.2,0.1l0,0.3l-0.1,0.3l0,0.3
			l-0.4,0.4l-0.2,0.1L163,21l-0.2,0.1l-0.3,0.1l-0.2,0.1l-0.2,0.1l-0.3,0.1l-0.3,0l-0.3,0.1l-0.3,0.1l-0.3,0l-0.2,0l-0.5,0.1l-0.4,0
			l-0.5,0h-0.3H158L157.7,21.7z"/>
		<path class="st0" d="M169.6,20.4l0.3,0l0.2,0h0.3l0.3,0h0.3l0.3,0h1.4l0.3,0h0.2l0.3,0h0.6l0.3,0h0.3l0.3,0h0.3l0.3,0h0.3l0.3,0
			l0.2,0h1.4l0.3,0l0.3,0l0.3,0l0.2,0l0.3,0l0.2,0l0.3,0.3l0,0.3l-0.1,0.3l-0.3,0.3l-0.3,0l-0.3,0l-0.3,0l-0.3,0l-0.2,0l-0.3,0H177
			l-0.3,0l-0.2,0l-0.4,0h-0.2l-0.3,0l-0.3,0l-0.3,0h-0.3l-0.2,0h-1.1l-0.3,0h-2l-0.4,0l-0.3,0h-0.6l-0.2,0l-0.3,0h-0.3l-0.3,0h-0.6
			l-0.2-0.3l0-0.3l0-0.3l0-0.3l0-0.3l0-0.3l0-0.3l0-0.3l0.1-0.3v-0.3l-0.1-0.3V18l0.1-0.3v-0.3l0-0.3l0-0.3v-0.3l0-0.3l0-0.3l0-0.3
			l0-0.3l0.1-0.3v-0.3l0-0.3l0-0.3v-0.9l0-0.3l0-0.3l0-0.3l0-0.3l0.1-0.3l0-0.3l0-0.3l0.1-0.3l0-0.3l0-0.3v-0.3l0-0.3l0-0.3
			l-0.1-0.3l0.1-0.3l-0.1-0.3V8.6l0.1-0.3L167.9,8V7.5l0-0.3V6.9l0-0.3V6.3l0.1-0.3V5.5l-0.1-0.3l0.3-0.3h0.3l0.3,0l0.2,0h0.3l0.3,0
			l0.2,0l0.3,0l0.3,0l0.3,0l0.3,0h0.9l0.3,0l0.2,0l0.3,0l0.3,0l0.3,0l0.3,0l0.3,0l0.2,0l0.3,0l0.2,0h1.2l0.3,0l0.3,0h0.3l0.3,0
			l0.3,0h0.3l0.2,0l0.3,0h1.1l0.3,0.2l0,0.3l0,0.3L179,6l-0.2,0l-0.3,0h-0.4l-0.3,0l-0.3,0h-1.1l-0.3,0l-0.3,0l-0.2,0h-1.5l-0.3,0
			l-0.2,0H173l-0.2,0h-0.5l-0.4,0h-0.3l-0.3,0h-0.6l-0.3,0h-0.4l-0.2,0l-0.3,0l-0.3,0L169,6.3l0,0.3v0.3l0,0.3l0,0.3l0,0.3l0,0.3
			l0,0.3l0,0.3l0,0.3l0,0.3v0.3l0,0.3l0.1,0.3l0,0.3l0,0.3l0,0.3l0,0.3l0,0.3l0,0.3V12l0.3,0.3l0.3,0l0.3,0l0.3,0h0.3l0.3,0h1.1
			l0.3,0l0.3,0h1.7l0.4,0h0.2l0.3,0h0.3l0.3,0h0.3l0.3,0h1.5l0.3,0h0.6l0.3,0.3v0.3l0,0.2l-0.2,0.3h-0.3l-0.4,0h-0.3l-0.2,0l-0.4,0
			h-0.5l-0.3,0l-0.3,0l-0.3,0h-0.3l-0.3,0l-0.2,0l-0.3,0l-0.3,0l-0.3,0l-0.3,0l-0.3,0l-0.3,0l-0.2,0h-0.6l-0.3,0l-0.3,0l-0.2,0
			l-0.3,0l-0.3,0h-0.9l-0.3,0h-0.3l-0.3,0.3l0,0.3l0,0.3l0,0.3l0,0.3l0,0.3l0,0.3v0.9l0,0.3l0,0.3v0.3l0,0.3l0,0.3l0,0.3l0,0.3
			l0,0.3v0.5l0,0.3v0.6l0.3,0.3L169.6,20.4z"/>
		<path class="st0" d="M195.3,21.7H195l-0.3,0l-0.2,0l-0.3,0l-0.3,0l-0.3,0l-0.2,0l-0.3-0.1l-0.3-0.1l-0.3-0.1l-0.2-0.1l-0.3-0.1
			l-0.3-0.1l-0.2-0.1l-0.3-0.1l-0.3-0.1l-0.2-0.1l-0.2-0.2l-0.3-0.1l-0.2-0.2l-0.3-0.1l-0.2-0.2l-0.1-0.4l0.1-0.2l0.1-0.2l0.4-0.1
			l0.2,0.2l0.3,0.1l0.2,0.2l0.3,0.1l0.2,0.2l0.4,0.2l0.2,0.1l0.3,0.1l0.2,0.1l0.3,0.1l0.3,0.1l0.6,0.1l0.3,0l0.2,0l0.3,0l0.2,0
			l0.3,0l0.3,0h0.3l0.8,0l0.4,0l0.2,0l0.3,0l0.6-0.1l0.3,0l0.2-0.1l0.3-0.1l0.3-0.1l0.4-0.1l0.2-0.1l0.3-0.1l0.3-0.2l0.2-0.2
			l0.2-0.1l0.2-0.2l0.1-0.2l0.2-0.2l0.1-0.3l0.2-0.3l0-0.3l0-0.3l0.1-0.3l0-0.6l0-0.3l0-0.3l-0.1-0.3l-0.1-0.2l-0.1-0.2l-0.2-0.2
			l-0.1-0.2l-0.2-0.2l-0.2-0.1l-0.2-0.2l-0.5-0.3l-0.3-0.1l-0.2-0.1l-0.2-0.1l-0.4-0.1l-0.2,0l-0.3-0.1l-0.6-0.1h-0.3l-0.3-0.1
			l-0.3,0h-0.3l-0.3,0l-0.5,0l-0.3,0l-0.2,0l-0.3-0.1h-0.3l-0.3,0l-0.3-0.1l-0.3,0l-0.3,0l-0.3-0.1l-0.2-0.1l-0.3-0.1l-0.3-0.1
			l-0.2-0.1l-0.3-0.1l-0.3-0.1l-0.2-0.2l-0.2-0.2l-0.2-0.2l-0.2-0.2l-0.2-0.3l-0.2-0.2l-0.1-0.2l-0.1-0.2l0-0.3l0-0.3l-0.1-0.3
			l0-0.3V9.3l0-0.6l0-0.3l0.1-0.2l0.1-0.3l0-0.3l0.1-0.2l0.1-0.2l0.2-0.2l0.2-0.3l0.1-0.2l0.2-0.2L191,6l0.2-0.2l0.2-0.2l0.2-0.1
			l0.3-0.1l0.2-0.1l0.3-0.1l0.2-0.1l0.5-0.2l0.3,0l0.3-0.1l0.3,0l0.3,0l0.3-0.1h0.3h0.3l0.3,0l0.5,0h0.3l0.2,0h0.3l0.3,0l0.3,0
			l0.2,0l0.3,0.1l0.3,0l0.2,0l0.3,0.1l0.3,0.1l0.3,0l0.2,0.1l0.3,0.1l0.3,0.1l0.2,0.1l0.3,0.1l0.2,0.1l0.6,0.3l0.2,0.1l0.1,0.4
			l-0.1,0.2L201.6,7L201.2,7l-0.5-0.3l-0.3-0.1l-0.2-0.1l-0.2-0.1l-0.3-0.1l-0.3-0.1l-0.2-0.1l-0.3,0l-0.3-0.1L198.2,6l-0.2,0
			l-0.3,0l-0.3,0l-0.3-0.1h-0.3l-0.3,0h-0.2l-0.3,0h-0.5l-0.3,0h-0.3l-0.2,0l-0.3,0l-0.7,0.1l-0.2,0l-0.4,0.1l-0.2,0.1l-0.3,0.1
			l-0.2,0.1L192,6.5l-0.2,0.2l-0.3,0.2l-0.2,0.2l-0.2,0.2l-0.1,0.2l-0.2,0.3l0,0.3l-0.1,0.3l-0.1,0.3l0,0.6l0,0.3l0,0.3l0.1,0.3
			l0.2,0.2l0.1,0.3l0.2,0.2l0.1,0.2l0.2,0.2l0.2,0.2l0.2,0.2l0.3,0.1l0.3,0.1l0.2,0.1l0.3,0l0.3,0.1l0.3,0.1l0.3,0l0.4,0l0.3,0
			l0.3,0l0.3,0l0.3,0h0.3l0.9,0.1l0.2,0l0.3,0l0.3,0l0.2,0l0.3,0l0.2,0.1l0.3,0.1l0.3,0l0.3,0.1l0.3,0.1l0.2,0.1l0.3,0.1l0.2,0.1
			l0.2,0.2l0.3,0.1l0.2,0.1l0.2,0.2l0.2,0.2l0.3,0.2l0.1,0.2l0.2,0.2l0.2,0.2l0.1,0.2l0.1,0.3l0.1,0.3l0,0.3l0.1,0.3l0,0.3l0,0.3
			l-0.1,0.6l0,0.3l0,0.3l-0.1,0.3v0.3l-0.2,0.2l-0.1,0.3l-0.1,0.2l-0.1,0.2l-0.2,0.2l-0.2,0.2l-0.2,0.2l-0.2,0.2l-0.2,0.2l-0.2,0.2
			l-0.3,0.1l-0.3,0.2l-0.2,0.1l-0.3,0.1l-0.3,0.1l-0.2,0.1l-0.5,0.1l-0.3,0.1l-0.3,0l-0.3,0l-0.3,0l-0.3,0l-0.3,0h-0.3l-0.3,0h-0.6
			L195.3,21.7z"/>
		<path class="st0" d="M217.3,5.4l-0.1,0.2L216.9,6h-0.6L216,6h-0.6l-0.3,0h-0.3l-0.3,0H214l-0.3,0l-0.3,0l-0.2,0l-0.3,0h-1.5
			l-0.3,0.3l0.1,0.3l-0.1,0.3v0.3l0,0.3l0,0.3v0.3l0,0.3l0,0.6l0.1,0.3l0,0.3v0.3l0,0.3v0.3l0,0.3v0.3V11l-0.1,0.3l0,0.3l0,0.3
			l0,0.3l0,0.2l-0.1,0.3l0,0.3l0,0.3v0.3l0,0.3l0,0.3l0,0.3l0,0.3l0,0.3v0.3l0,0.3l0,0.3v0.3l0,0.3v0.3l0,0.3v0.3v0.3l0,0.3l0,0.3
			v0.3l0,0.3v0.3l0,0.3l0.1,0.3v0.3l-0.1,0.3l0.1,0.3l-0.1,0.3l0,0.3l0,0.3l-0.2,0.3l-0.3,0h-0.4l-0.2-0.3v-0.3l0-0.3l0-0.3l0-0.2
			v-0.3l0-0.3l0-0.3v-0.3l0-0.3v-0.3l-0.1-0.3v-0.3l0.1-0.2V17l-0.1-0.3l0-0.3l0-0.3v-0.3l0-0.3l0-0.3L210,15l-0.1-0.3l0-0.3l0-0.3
			l0-0.3v-0.3l0-0.3l0-0.3l0-0.3v-0.3l0-0.3l0-0.3v-0.3l0-0.3l-0.1-0.3v-0.3l0-0.3l0-0.3l0-0.3l0-0.3l0-0.3l0-0.3l0-0.3l0-0.3l0-0.3
			V8l0-0.3L210,7.4V6.8l0-0.3V6.3L209.7,6l-0.3,0h-0.3l-0.4,0l-0.3,0h-0.2L208,6l-0.3,0h-0.3l-0.3,0l-0.3,0l-0.3,0l-0.3,0L206,6
			h-0.3l-0.3,0h-0.9l-0.3,0L204,5.7V5.2l0.3-0.3h0.6l0.2,0l0.4,0l0.2,0l0.3,0l0.2,0l0.4,0h0.3l0.2,0l0.3,0h1.4l0.3,0l0.3,0l0.3,0
			h0.2l0.3,0h0.8l0.3,0h0.3l0.3,0l0.3,0l0.2,0h0.3l0.2,0h0.4l0.2,0l0.3,0h0.3l0.2,0h0.4l0.2,0h0.3l0.3,0h0.3l0.2,0l0.4,0h0.3l0.3,0
			l0.2,0.3V5.4z"/>
		<path class="st0" d="M230.2,20.9l-0.2-0.3l0-0.2l-0.2-0.3l-0.1-0.3l0-0.3l-0.1-0.2l-0.2-0.2l0-0.3l-0.1-0.3l-0.1-0.2l-0.1-0.3
			l-0.1-0.3l-0.1-0.2l-0.2-0.3l-0.3-0.3l-0.4,0l-0.3,0h-0.2l-0.3,0l-0.3,0l-0.4,0l-0.3,0l-0.3,0h-0.2l-0.3,0h-0.6l-0.3,0l-0.3,0
			l-0.2,0h-0.3l-0.3,0H223l-0.2,0h-2l-0.3,0h-0.3l-0.2,0h-0.6l-0.4,0.3l-0.2,0.2l0,0.3l-0.2,0.3l-0.1,0.3l-0.1,0.3l-0.1,0.3
			l-0.1,0.3l0,0.2l-0.1,0.3l-0.1,0.3l0,0.2l-0.2,0.3l-0.1,0.3l-0.1,0.2l-0.2,0.3l-0.4,0.2h-0.4l-0.3,0l-0.2-0.3l0.1-0.3l0.1-0.3
			l0.2-0.2l0.1-0.3l0.1-0.3l0.1-0.3l0.1-0.3l0.2-0.2l0.1-0.3l0.1-0.3l0.1-0.3l0.1-0.2l0.1-0.3l0.2-0.3l0.1-0.3l0.1-0.2l0.2-0.3
			l0.1-0.3l0.2-0.3l0.1-0.3l0.1-0.3l0.1-0.2l0.1-0.3l0.1-0.2l0-0.3l0.1-0.3l0.2-0.3l0.1-0.3l0.1-0.2l0-0.3l0.2-0.3l0.1-0.3l0.1-0.3
			l0.1-0.2l0.1-0.3l0.1-0.3l0.1-0.3l0.1-0.3l0-0.3l0.2-0.2l0.1-0.3l0.1-0.2l0-0.3l0.1-0.2l0.1-0.3l0.2-0.3l0.1-0.2l0-0.3l0.2-0.3
			l0.1-0.2l0.1-0.3l0-0.3l0.1-0.3l0.1-0.2l0.2-0.3l0.1-0.2l0.1-0.3l0.2-0.3l0-0.3l0.2-0.2l0-0.3l0.2-0.2l0.4-0.3h0.4l0.2,0l0.4,0.3
			l0.1,0.3l0.2,0.3l0.1,0.3l0.1,0.3l0.1,0.2l0.1,0.3l0.1,0.2l0.1,0.2l0.1,0.3l0.2,0.3l0,0.2l0.2,0.3l0.1,0.3l0,0.3l0.1,0.2l0.1,0.3
			l0.1,0.2l0.1,0.3l0.1,0.2l0.2,0.3l0,0.3l0.2,0.3l0.2,0.5l0.1,0.3l0.1,0.3l0.1,0.2l0.2,0.3l0.1,0.3l0.1,0.3l0.2,0.2l0.1,0.3
			l0.1,0.2l0.1,0.3l0.1,0.2l0.1,0.3l0.2,0.5l0.1,0.2l0.1,0.3l0.3,0.5l0,0.3l0.2,0.3l0.1,0.2l0.1,0.3l0,0.3l0.1,0.3l0.2,0.2l0,0.3
			l0.2,0.2l0.1,0.3l0.1,0.3l0.1,0.3l0.1,0.2l0.1,0.3l0.1,0.2l0.2,0.5l0.1,0.3l0.2,0.3l0.1,0.3l-0.2,0.2l-0.3,0h-0.3l-0.4-0.3
			L230.2,20.9z M220.1,16h0.5l0.4,0h0.2l0.2,0l0.3,0h0.3l0.3,0l0.3,0l0.3,0l0.3,0l0.3,0h0.3l0.2,0h0.3l0.2,0l0.3,0h0.6l0.3,0h0.3
			l0.3,0l0.3,0l0.2,0l0.3,0l0.3,0l0.3,0l0.2-0.3l-0.2-0.3l-0.1-0.2l-0.1-0.3l-0.1-0.3l-0.1-0.3l-0.1-0.2l-0.1-0.3l-0.1-0.3l-0.3-0.5
			l-0.1-0.3l-0.1-0.3l0-0.3l-0.2-0.2l-0.1-0.3l-0.2-0.3l-0.1-0.2l0-0.3l-0.1-0.2l-0.1-0.3l-0.3-0.8l-0.1-0.3L225,9.2l-0.1-0.3l0-0.3
			l-0.1-0.3l-0.1-0.3l-0.1-0.3l-0.1-0.2l-0.1-0.3l-0.2-0.3l0-0.3l-0.1-0.2l-0.2,0l-0.1,0.3l-0.1,0.3l-0.1,0.3l-0.1,0.2l-0.1,0.3
			L223,8.1l-0.1,0.3l-0.1,0.2l-0.1,0.3l-0.3,0.5l0,0.2l-0.1,0.3l-0.1,0.3l-0.1,0.3l-0.1,0.2l-0.1,0.3l-0.1,0.3l-0.1,0.2l-0.1,0.3
			l-0.1,0.2l-0.1,0.3l-0.2,0.2l0,0.3l-0.1,0.3l-0.1,0.2l-0.1,0.3l-0.1,0.3l-0.2,0.2l-0.1,0.3l-0.2,0.3l0,0.3l-0.1,0.3l-0.1,0.3
			l-0.1,0.3l0.1,0.2L220.1,16z"/>
		<path class="st0" d="M243.6,5.4l-0.1,0.2L243.2,6h-0.6l-0.3,0h-0.6l-0.3,0h-0.3l-0.3,0h-0.6L240,6l-0.3,0l-0.2,0l-0.3,0h-1.5
			l-0.3,0.3l0.1,0.3l-0.1,0.3v0.3l0,0.3l0,0.3v0.3l0,0.3l0,0.6l0.1,0.3l0,0.3v0.3l0,0.3v0.3l0,0.3v0.3V11l-0.1,0.3l0,0.3l0,0.3
			l0,0.3l0,0.2l-0.1,0.3l0,0.3l0,0.3v0.3l0,0.3l0,0.3l0,0.3l0,0.3l0,0.3v0.3l0,0.3l0,0.3v0.3l0,0.3v0.3l0,0.3v0.3v0.3l0,0.3l0,0.3
			v0.3l0,0.3v0.3l0,0.3l0.1,0.3v0.3l-0.1,0.3l0.1,0.3l-0.1,0.3l0,0.3l0,0.3l-0.2,0.3l-0.3,0h-0.4l-0.2-0.3v-0.3l0-0.3l0-0.3l0-0.2
			v-0.3l0-0.3l0-0.3v-0.3l0-0.3v-0.3l-0.1-0.3v-0.3l0.1-0.2V17l-0.1-0.3l0-0.3l0-0.3v-0.3l0-0.3l0-0.3l0.1-0.2l-0.1-0.3l0-0.3l0-0.3
			l0-0.3v-0.3l0-0.3l0-0.3l0-0.3v-0.3l0-0.3l0-0.3v-0.3l0-0.3l-0.1-0.3v-0.3l0-0.3l0-0.3l0-0.3l0-0.3l0-0.3l0-0.3l0-0.3l0-0.3l0-0.3
			V8l0-0.3l-0.1-0.3V6.8l0-0.3V6.3L236.1,6l-0.3,0h-0.3l-0.4,0l-0.3,0h-0.2l-0.3,0l-0.3,0h-0.3l-0.3,0l-0.3,0l-0.3,0l-0.3,0l-0.2,0
			H232l-0.3,0h-0.9l-0.3,0l-0.3-0.3V5.2l0.3-0.3h0.6l0.2,0l0.4,0l0.2,0l0.3,0l0.2,0l0.4,0h0.3l0.2,0l0.3,0h1.4l0.3,0l0.3,0l0.3,0
			h0.2l0.3,0h0.8l0.3,0h0.3l0.3,0l0.3,0l0.2,0h0.3l0.2,0h0.4l0.2,0l0.3,0h0.3l0.2,0h0.4l0.2,0h0.3l0.3,0h0.3l0.2,0l0.4,0h0.3l0.3,0
			l0.2,0.3V5.4z"/>
		<path class="st0" d="M246.7,20.9l0-0.3l0-0.3l0-0.3l0-0.3l0-0.3v-0.3l0-0.3l0-0.3l0-0.3l0-0.3l0.1-0.3l0-0.3l0-0.3v-0.3l0-0.3V16
			l0.1-0.3l0-0.3l0-0.3v-0.3l0-0.3l0-0.3l0-0.3l0-0.3l0-0.3v-0.3l0-0.3l0-0.3l0-0.3l0-0.3v-0.3l0-0.3v-0.3l0-0.3v-0.6l-0.1-0.3
			l0-0.3l0-0.3l0-0.6l0-0.3l0-0.3l0-0.3V7.7l0-0.3l-0.1-0.3l0.1-0.3l0-0.3l0-0.3L246.7,6l0.1-0.3l0-0.3V5.2l0.2-0.3l0.3,0l0.3,0
			l0.3,0.3l-0.1,0.3l0,0.3V6l0,0.3v0.3l0.1,0.3v0.6l-0.1,0.3l0.1,0.3l-0.1,0.3v0.9l0,0.3l0,0.3l0,0.3v0.5l0,0.3l0,0.3l0.1,0.3
			l-0.1,0.3V12l0.1,0.3l0,0.3l0,0.3l-0.1,0.3l0.1,0.3l0,0.6l0,0.3l0,0.3l0,0.3l-0.1,0.3l0,0.3v0.3l0,0.3l0,0.3l0,0.3l-0.1,0.3l0,0.3
			l0,0.3l0,0.3l-0.1,0.3l0.1,0.3l0,0.3v0.6l0,0.3l0,0.3l0,0.3l0,0.3l0,0.3v0.3l0,0.3l-0.3,0.3H247l-0.3-0.3V20.9z"/>
		<path class="st0" d="M259.5,21.7h-0.3l-0.3,0h-0.2l-0.3-0.1l-0.3,0l-0.3-0.1l-0.3-0.1l-0.2-0.1l-0.3-0.1l-0.2-0.1l-0.3-0.1
			l-0.2-0.1l-0.3-0.1l-0.3-0.1l-0.3-0.1l-0.5-0.3l-0.2-0.2l-0.2-0.2l-0.2-0.2l-0.2-0.2l-0.2-0.2l-0.2-0.2l-0.2-0.2l-0.1-0.2
			l-0.2-0.2l-0.2-0.3l-0.1-0.2l-0.2-0.2l-0.3-0.5l-0.1-0.2l-0.1-0.3l-0.1-0.3l-0.1-0.3l0-0.3l-0.1-0.3l0-0.3l0-0.3l-0.1-0.3l0-0.3
			l0-0.3l0.1-0.3l0-0.3v-0.6v-0.3v-0.3l0-0.3l0.1-0.3l0-0.3l0-0.3l0.1-0.3l0.1-0.2l0-0.3l0.1-0.3l0.1-0.3l0.2-0.2l0.1-0.3l0.1-0.3
			l0.1-0.3l0.2-0.3l0.1-0.3l0.2-0.2l0.2-0.2l0.2-0.3l0.1-0.2l0.3-0.2l0.2-0.2l0.2-0.2l0.2-0.2l0.2-0.2l0.2-0.2l0.3-0.2l0.1-0.2
			l0.3-0.2l0.2-0.1l0.2-0.1l0.3-0.1l0.2-0.1l0.3-0.1l0.3-0.1l0.3-0.1l0.3-0.1l0.3,0l0.2-0.1l0.3,0l0.3,0l0.3,0l0.3,0l0.3,0h0.3h0.6
			h0.3l0.3,0l0.3,0l0.3,0l0.3,0.1l0.3,0l0.3,0.1l0.3,0l0.3,0.1l0.2,0.1l0.3,0.1l0.3,0.1l0.3,0.1l0.2,0.1l0.3,0.1l0.2,0.1l0.2,0.1
			l0.2,0.2l0.3,0.2l0.1,0.2l0.3,0.2l0.2,0.2l0.2,0.2l0.2,0.2l0.1,0.2l0.2,0.2l0.2,0.2l0.1,0.2l0.1,0.2l0.2,0.3l0.1,0.3l0.1,0.2
			l0.2,0.3l0,0.3l0.2,0.3l0,0.2l0.1,0.3l0.1,0.3v0.3l0,0.3l0.1,0.3V12l0.1,0.3l-0.1,0.3l0.1,0.3v0.5l0,0.3l0,0.3l0,0.3l-0.1,0.3
			l0,0.3l0,0.3v0.3l-0.1,0.3l-0.1,0.3l-0.1,0.3l0,0.3l-0.1,0.3l-0.1,0.2l-0.1,0.3l-0.1,0.3l-0.1,0.2l-0.2,0.3l-0.1,0.2l-0.2,0.2
			l-0.2,0.2l-0.2,0.2l-0.2,0.2l-0.2,0.2l-0.2,0.2l-0.2,0.2l-0.2,0.2l-0.2,0.2l-0.2,0.2l-0.2,0.2l-0.2,0.1l-0.3,0.1l-0.2,0.1
			l-0.3,0.1l-0.3,0.1l-0.2,0.1l-0.3,0.1l-0.3,0.1l-0.2,0.1l-0.3,0.1l-0.2,0l-0.3,0l-0.3,0l-0.3,0l-0.3,0l-0.3,0h-0.3l-0.5,0
			L259.5,21.7z M261.1,20.6l0.2,0l0.3,0l0.3,0l0.3-0.1l0.2-0.1l0.3,0l0.3-0.1l0.3-0.1l0.2-0.1l0.2-0.1l0.3-0.2l0.2-0.1l0.3-0.1
			l0.2-0.2L265,19l0.2-0.2l0.3-0.2l0.2-0.2l0.2-0.2L266,18l0.1-0.2l0.1-0.3l0.2-0.2l0.1-0.2l0.1-0.3l0.1-0.2l0.1-0.3l0-0.2l0.2-0.3
			l0-0.3l0-0.3l0.1-0.3l0-0.3l0.1-0.3v-0.3l0-0.3l0-0.3l-0.1-0.6l0-0.3l0-0.3l-0.1-0.3l0-0.3l0-0.3l-0.1-0.3l-0.1-0.3l0-0.3
			l-0.1-0.3l-0.1-0.3l-0.1-0.2l-0.1-0.3l-0.1-0.2l-0.2-0.3l-0.1-0.2l-0.2-0.2L266,8.4l-0.1-0.2L265.7,8l-0.3-0.2l-0.2-0.2l-0.1-0.2
			l-0.5-0.4l-0.2-0.2l-0.3-0.1l-0.2-0.1l-0.2-0.1l-0.3-0.1l-0.3-0.1l-0.3-0.1l-0.2-0.1l-0.6-0.2l-0.3-0.1l-0.2,0l-0.3,0l-0.3,0
			l-0.3,0l-0.3,0h-0.5l-0.3,0h-0.3l-0.3,0l-0.3,0.1l-0.3,0l-0.2,0.1l-0.3,0l-0.2,0.1l-0.3,0.1L257,6.3l-0.3,0.1l-0.2,0.1l-0.3,0.1
			L256,6.8L255.8,7l-0.2,0.1l-0.2,0.2l-0.2,0.2l-0.2,0.2l-0.2,0.2l-0.2,0.2l-0.1,0.2l-0.2,0.2L254,8.8L253.9,9l-0.1,0.3l-0.1,0.2
			l-0.2,0.3l0,0.3l-0.1,0.2l-0.1,0.3l-0.1,0.3l-0.1,0.3l0,0.3l0,0.3l0,0.3l0,0.3l0,0.3l0,0.3l0.1,0.6l0,0.3l0.1,0.3l0,0.3l0,0.3
			l0,0.3l0.1,0.3l0,0.3l0,0.3l0.1,0.3l0.1,0.2l0.1,0.3l0.1,0.3l0.1,0.3l0.1,0.2l0.1,0.2l0.2,0.2l0.1,0.2l0.2,0.3l0.2,0.2l0.2,0.2
			l0.2,0.2l0.2,0.2l0.2,0.2l0.2,0.2l0.2,0.2l0.3,0.2l0.2,0.1l0.3,0.2l0.5,0.2l0.3,0.1l0.2,0.1l0.3,0l0.3,0.1l0.3,0l0.3,0l0.2,0h0.4
			l0.3,0l0.2,0l0.9,0H261.1z"/>
		<path class="st0" d="M285.5,4.9h0.2l0.3,0.3l0,0.3l0,0.3l0,0.3l0,0.3L286,6.6l0,0.3v0.3l0,0.3v1.1l0,0.3l0,0.3l0.1,0.3l0,0.3V10
			l0,0.3l0,0.3v0.3l0,0.3l0,0.3l-0.1,0.3l0.1,0.3l-0.1,0.3l0.1,0.3l0,0.3l0,0.3l0,0.3v0.3l0,0.3l0,0.3v0.3l0,0.3v0.3l0,0.3l0,0.3
			l0.1,0.3l-0.1,0.3l0,0.3v0.3l0,0.3l0,0.3l0.1,0.3L286,18l0,0.3l0,0.3l0,0.3l0,0.3l0,0.3l0,0.3V20l0,0.3v0.3l0,0.3l-0.1,0.3
			l-0.2,0.3l-0.3,0h-0.3l-0.4-0.2l-0.2-0.2l-0.2-0.2l-0.2-0.3l-0.1-0.2l-0.2-0.2l-0.2-0.2l-0.1-0.2l-0.2-0.2l-0.1-0.2l-0.2-0.2
			l-0.2-0.2l-0.2-0.2l-0.2-0.2l-0.1-0.2l-0.2-0.2l-0.2-0.2l-0.2-0.2l-0.1-0.2l-0.2-0.2l-0.2-0.2l-0.2-0.2l-0.1-0.2l-0.2-0.2
			l-0.2-0.3l-0.1-0.2l-0.2-0.2l-0.1-0.3L280,15l-0.1-0.2l-0.2-0.2l-0.2-0.2l-0.2-0.2l-0.2-0.2l-0.2-0.3l-0.1-0.2l-0.2-0.3l-0.1-0.2
			l-0.2-0.2l-0.2-0.2l-0.1-0.2l-0.2-0.3l-0.3-0.2l-0.1-0.2l-0.2-0.2l-0.2-0.3l-0.1-0.2l-0.2-0.2l-0.2-0.2l-0.1-0.2l-0.2-0.2L276,9.8
			l-0.2-0.2l-0.2-0.3l-0.1-0.2L275.3,9l-0.1-0.2l-0.2-0.2l-0.1-0.2l-0.2-0.2l-0.1-0.2l-0.2-0.2l-0.1-0.2l-0.2-0.2L273.7,7L273.6,7
			l0,0.3v0.3l0,0.3l0,0.3l0,0.3l0,0.3l0,0.3v0.6l0.1,0.3l0,0.3l0,0.3l0,0.3l0,0.3v0.3l0,0.3v0.6l0,0.3l0,0.6l0,0.3v0.6l0,0.3v0.3
			l0,0.3V15l0.1,0.3v0.3l0,0.3l0,0.3v0.3l0,0.3l0,0.3v0.3l0.1,0.3l0,0.3l0,0.3l0,0.3l0,0.3l0,0.3l0.1,0.3l0,0.3l0,0.3l0,0.3l0,0.3
			v0.3l0,0.3v0.3l-0.3,0.3h-0.2l-0.3,0l-0.3-0.3v-0.3l-0.1-0.3l0.1-0.3l-0.1-0.3l0-0.3l0-0.3l0.1-0.3l0-0.3l0-0.3l0-0.3l0-0.3
			l-0.1-0.3l0-0.3l0-0.3l0-0.3l0-0.3l0-0.3l0-0.3l0-0.3l0-0.3l0-0.3l0-0.3l0-0.3l0-0.3l0-0.3l0-0.6v-0.3l0-0.3v-0.3l0-0.3l-0.1-0.3
			l0.1-0.3v-0.3l-0.1-0.3l0-0.3v-0.3l0-0.3V10l0-0.3l0-0.3l0.1-0.3l-0.1-0.3l0.1-0.3l0-0.3l0-0.3l0-0.3l0-0.3l0-0.3l0-0.6l0-0.3
			l0-0.3l0.1-0.3V5.5l0-0.3l0.3-0.3h0.5l0.4,0.2l0.2,0.2l0.1,0.2l0.2,0.3l0.2,0.2l0.1,0.2l0.1,0.2l0.2,0.2l0.1,0.2l0.1,0.2l0.2,0.2
			l0.2,0.2l0.1,0.2L276,8l0.2,0.2l0.2,0.2l0.1,0.2l0.2,0.2l0.3,0.2l0.1,0.2l0.2,0.2l0.2,0.2l0.1,0.2l0.2,0.2l0.1,0.2l0.2,0.2
			l0.1,0.2l0.2,0.2l0.3,0.3l0.2,0.2l0.1,0.2l0.2,0.2l0.1,0.2l0.2,0.2l0.2,0.2l0.1,0.2l0.2,0.2l0.2,0.3l0.2,0.2l0.1,0.2l0.2,0.2
			l0.2,0.2l0.1,0.2l0.2,0.2l0.1,0.2l0.2,0.2l0.1,0.2l0.3,0.2l0.1,0.2l0.2,0.2l0.2,0.3l0.2,0.2l0.2,0.2l0.2,0.2l0.1,0.2l0.2,0.2
			l0.2,0.2l0.2,0.2l0.3,0.4l0.2,0.2l0.2,0.2l0.1,0.2l0.1,0.2l0.2,0.2l0.2,0L285,19l0-0.3l0-0.3l0-0.3l0-0.3v-0.3l0-0.3V17l0-0.3
			v-0.3l0-0.3l0-0.3v-0.3l0-0.3l0-0.3l0-0.3v-0.3l0-0.3l0-0.3l0-0.6l-0.1-0.3v-0.3l0.1-0.3l0-0.3v-1.7l0-0.3l0-0.3l0-0.3l0-0.3
			l0-0.6l0-0.3l0-0.6l0-0.3V7.4l0-0.2V6.9l0-0.3l0-0.3l0-0.3l0-0.3V5.2l0.2-0.3L285.5,4.9z"/>
	</g>
	<g>
		<path class="st0" d="M312.7,113.3l0.3,0.3l0,0.3l0,0.3l0,0.6l0,0.6l-0.1,0.3l0,0.3l0,0.3l0.1,0.3v0.6l-0.1,0.3l0.1,0.3l0,0.3
			l0,0.3l0,0.3l0,0.3l-0.1,0.3l0,0.3l0,0.3v0.6l0.1,0.3l0,0.3l0,0.3l-0.1,0.3l0,0.3l0,0.3l0,0.3l0,0.3v0.3l0,0.3v0.6l0,0.3v0.6
			l0,0.3l0.1,0.3l0,0.3v0.3l0,0.3v0.3l-0.1,0.3l0,0.3v0.3l0,0.3l0,0.3l0,0.3l-0.1,0.3l0.1,0.3v0.6l-0.1,0.3l0,0.3l-0.2,0.3l-0.3,0
			h-0.2l-0.5-0.2l-0.2-0.2l-0.1-0.2l-0.2-0.2l-0.1-0.2l-0.2-0.2l-0.1-0.2l-0.3-0.2l-0.1-0.2l-0.2-0.2l-0.2-0.2l-0.2-0.2l-0.1-0.2
			l-0.1-0.2l-0.3-0.2l-0.1-0.2l-0.1-0.2l-0.2-0.2l-0.2-0.2l-0.1-0.2l-0.2-0.2l-0.1-0.2l-0.2-0.2l-0.2-0.2l-0.2-0.2l-0.4-0.4
			l-0.1-0.2l-0.2-0.2l-0.2-0.2l-0.1-0.2l-0.2-0.3l-0.1-0.2l-0.3-0.2l-0.2-0.2l-0.5-0.7l-0.2-0.2l-0.2-0.2l-0.2-0.2l-0.1-0.2
			l-0.2-0.2l-0.1-0.3l-0.2-0.2l-0.2-0.2l-0.2-0.2l-0.2-0.2l-0.2-0.3l-0.1-0.2l-0.2-0.3l-0.2-0.2l-0.1-0.2l-0.2-0.2l-0.2-0.2
			l-0.2-0.2l-0.1-0.2l-0.2-0.2l-0.2-0.2l-0.2-0.2l-0.2-0.2l-0.2-0.2l-0.1-0.2l-0.2-0.2l-0.2-0.2l-0.2,0.1l0,0.3l0,0.3v0.3l0,0.3v0.3
			l-0.1,0.3v0.3l0.1,0.3l0,0.3v0.3l0,0.3l0,0.3v1.5l-0.1,0.3l0,0.3l0,0.3l0,0.3l0,0.3l0,0.3l0,0.3l0,0.3v0.3l0,0.3v0.3l0,0.3l0,0.3
			l0,0.3l0,0.3l0,0.3l0,0.3l0.1,0.3v0.3l0,0.3l0,0.2v0.3l0,0.3l0,0.3l-0.1,0.3v0.3l0.1,0.3l0,0.3l0,0.3l-0.1,0.3l0,0.3l0,0.3
			l0.1,0.3l-0.3,0.3l-0.3,0l-0.3,0l-0.3-0.3v-0.3l0.1-0.3l-0.1-0.3l0.1-0.3v-0.3l0-0.3l0-0.3v-0.3l0-0.3l0-0.3l0-0.3l0-0.3l0-0.3
			v-0.6l0-0.3l0-0.3l0-0.3l0-0.3l-0.1-0.3l0.1-0.3v-0.3l0-0.3l0-0.3l0-0.3v-1.5l0-0.3l0-0.3v-0.3l0-0.3v-0.6l0-0.3l0-0.3l0.1-0.3
			l-0.1-0.3l0-0.3l0-0.3l0-0.3l-0.1-0.3l0-0.3l0-0.3l0-0.3V116l0-0.3V115l0-0.3v-0.3l0-0.3l-0.1-0.3l0.1-0.3l0.2-0.3l0.3,0h0.3
			l0.4,0.2l0.2,0.2l0.2,0.2l0.1,0.2l0.2,0.2l0.2,0.2l0.2,0.3l0.1,0.2l0.2,0.2l0.2,0.2l0.2,0.2l0.1,0.2l0.2,0.2l0.2,0.2l0.2,0.2
			l0.1,0.3l0.2,0.2l0.2,0.2l0.1,0.2l0.2,0.2l0.2,0.3l0.2,0.2l0.1,0.2l0.2,0.2l0.1,0.2l0.2,0.2l0.2,0.2l0.2,0.2l0.2,0.2l0.2,0.2
			l0.2,0.2l0.2,0.2l0.2,0.2l0.1,0.2l0.2,0.2l0.2,0.2l0.2,0.2l0.2,0.3l0.2,0.2l0.1,0.2l0.1,0.3l0.2,0.2l0.1,0.2l0.2,0.2l0.1,0.2
			l0.2,0.2l0.1,0.2l0.2,0.2l0.1,0.2l0.2,0.2l0.2,0.2l0.2,0.2l0.1,0.2l0.2,0.2l0.2,0.2l0.1,0.3l0.1,0.2l0.3,0.2l0.1,0.2l0.2,0.3
			l0.2,0.2l0.2,0.2l0.1,0.3l0.2,0.2l0.2,0.3l0.2-0.1V128l0-0.3v-0.3l0-0.3l0-0.3l0-0.3v-0.3l0-0.3l0-0.3l0-0.3v-0.6l0-0.3v-0.3
			l0-0.3l0-0.3l0-0.3l0-0.3l0-0.3v-0.3l0-0.3v-0.3l0-0.3v-0.3l0-0.3v-0.3l0-0.3l-0.1-0.3v-0.3l0-0.3l0-0.3v-0.3l0-0.3l0-0.3
			l-0.1-0.3l0-0.3l0-0.6l0-0.3l0-0.3l0-0.3v-0.3l0-0.2l0-0.3l0-0.3v-0.3l0-0.3l0-0.3v-0.3l0-0.3l0.2-0.3H312.7z"/>
		<path class="st0" d="M330.7,130l-0.2-0.3l0-0.2l-0.2-0.3l-0.1-0.3l0-0.3l-0.1-0.2l-0.2-0.2l0-0.3l-0.1-0.3l-0.1-0.2l-0.1-0.3
			l-0.1-0.3l-0.1-0.2l-0.2-0.3l-0.3-0.3l-0.4,0l-0.3,0h-0.2l-0.3,0l-0.3,0l-0.4,0l-0.3,0l-0.3,0H326l-0.3,0H325l-0.3,0l-0.3,0
			l-0.2,0h-0.3l-0.3,0h-0.3l-0.2,0h-2.1l-0.3,0h-0.3l-0.2,0h-0.6l-0.4,0.3l-0.2,0.2l0,0.3l-0.2,0.3l-0.1,0.3l-0.1,0.3l-0.1,0.3
			l-0.1,0.3l0,0.2l-0.1,0.3l-0.1,0.3l0,0.2l-0.2,0.3l-0.1,0.3l-0.1,0.2l-0.2,0.3l-0.4,0.2h-0.4l-0.3,0l-0.2-0.3l0.1-0.3l0.1-0.3
			l0.2-0.2l0.1-0.3l0.1-0.3l0.1-0.3l0.1-0.3l0.2-0.2l0.1-0.3l0.1-0.3l0.1-0.3l0.1-0.2l0.1-0.3l0.2-0.3l0.1-0.3l0.1-0.2l0.2-0.3
			l0.1-0.3l0.2-0.3l0.1-0.3l0.1-0.3l0.1-0.2l0.1-0.3l0.1-0.2l0-0.3l0.1-0.3l0.2-0.3l0.1-0.3l0.1-0.2l0-0.3l0.2-0.3l0.1-0.3l0.1-0.3
			l0.1-0.2l0.1-0.3l0.1-0.3l0.1-0.3l0.1-0.3l0-0.3l0.2-0.2l0.1-0.3l0.1-0.2l0-0.3l0.1-0.2l0.1-0.3l0.2-0.3l0.1-0.2l0-0.3l0.2-0.3
			l0.1-0.2l0.1-0.3l0-0.3l0.1-0.3l0.1-0.2l0.2-0.3l0.1-0.2l0.1-0.3l0.2-0.3l0-0.3l0.2-0.2l0-0.3l0.2-0.2l0.4-0.3h0.4l0.2,0l0.4,0.3
			l0.1,0.3l0.2,0.3l0.1,0.3l0.1,0.3l0.1,0.2l0.1,0.3l0.1,0.2l0.1,0.2l0.1,0.3l0.2,0.3l0,0.2l0.2,0.3l0.1,0.3l0,0.3l0.1,0.2l0.1,0.3
			l0.1,0.2l0.1,0.3l0.1,0.2l0.2,0.3l0,0.3l0.2,0.3l0.2,0.5l0.1,0.3l0.1,0.3l0.1,0.2l0.2,0.3l0.1,0.3l0.1,0.3l0.2,0.2l0.1,0.3
			l0.1,0.2l0.1,0.3l0.1,0.2l0.1,0.3l0.2,0.5l0.1,0.2l0.1,0.3l0.3,0.5l0,0.3l0.2,0.3l0.1,0.2l0.1,0.3l0,0.3l0.1,0.3l0.2,0.2l0,0.3
			l0.2,0.2l0.1,0.3l0.1,0.3l0.1,0.3l0.1,0.2l0.1,0.3l0.1,0.2l0.2,0.5l0.1,0.3l0.2,0.3l0.1,0.3l-0.2,0.2l-0.3,0h-0.3l-0.4-0.3
			L330.7,130z M320.2,124.8h0.5l0.4,0h0.2l0.2,0l0.3,0h0.3l0.3,0l0.3,0l0.3,0l0.3,0l0.3,0h0.3l0.2,0h0.3l0.2,0l0.3,0h0.6l0.3,0h0.3
			l0.3,0l0.3,0l0.2,0l0.3,0l0.3,0l0.3,0l0.2-0.3l-0.2-0.3L328,124l-0.1-0.3l-0.1-0.3l-0.1-0.3l-0.1-0.2l-0.1-0.3l-0.1-0.3l-0.3-0.5
			l-0.1-0.3l-0.1-0.3l0-0.3l-0.2-0.2l-0.1-0.3l-0.2-0.3l-0.1-0.2l0-0.3l-0.1-0.2l-0.1-0.3l-0.3-0.8l-0.1-0.3l-0.2-0.2l-0.1-0.3
			l0-0.3l-0.1-0.3l-0.1-0.3l-0.1-0.3l-0.1-0.2l-0.1-0.3l-0.2-0.3l0-0.3l-0.1-0.2l-0.2,0l-0.1,0.3l-0.1,0.3l-0.1,0.3l-0.1,0.2
			l-0.1,0.3l-0.1,0.2l-0.1,0.3l-0.1,0.2l-0.1,0.3l-0.3,0.5l0,0.2l-0.1,0.3l-0.1,0.3l-0.1,0.3l-0.1,0.2l-0.1,0.3l-0.1,0.3l-0.1,0.2
			l-0.1,0.3l-0.1,0.2l-0.1,0.3l-0.2,0.2l0,0.3l-0.1,0.3l-0.1,0.2l-0.1,0.3l-0.1,0.3l-0.2,0.2l-0.1,0.3l-0.2,0.3l0,0.3l-0.1,0.3
			l-0.1,0.3l-0.1,0.3l0.1,0.2L320.2,124.8z"/>
		<path class="st0" d="M348.6,113.3h0.2l0.3,0.3l0,0.3l0,0.3l0,0.3l0,0.3l-0.1,0.3l0,0.3v0.3l0,0.3v1.2l0,0.3l0,0.3l0.1,0.3l0,0.3
			v0.3l0,0.3l0,0.3v0.3l0,0.3l0,0.3l-0.1,0.3l0.1,0.3l-0.1,0.3l0.1,0.3l0,0.3l0,0.3l0,0.3v0.3l0,0.3l0,0.3v0.3l0,0.3v0.3l0,0.3
			l0,0.3l0.1,0.3l-0.1,0.3l0,0.3v0.3l0,0.3l0,0.3l0.1,0.3l-0.1,0.3l0,0.3l0,0.3l0,0.3l0,0.3l0,0.3l0,0.3v0.3l0,0.3v0.3l0,0.3
			l-0.1,0.3l-0.2,0.3l-0.3,0h-0.3l-0.4-0.2l-0.2-0.2l-0.2-0.2l-0.2-0.3l-0.1-0.2l-0.2-0.2l-0.2-0.2l-0.1-0.2l-0.2-0.2l-0.1-0.2
			l-0.2-0.2l-0.2-0.2l-0.2-0.2l-0.2-0.2l-0.1-0.2l-0.2-0.2l-0.2-0.2l-0.2-0.2l-0.1-0.2l-0.2-0.2l-0.2-0.2l-0.2-0.2l-0.1-0.2
			l-0.2-0.2l-0.2-0.3l-0.1-0.2l-0.2-0.2L343,124l-0.2-0.2l-0.1-0.2l-0.2-0.2l-0.2-0.2l-0.2-0.2l-0.2-0.2l-0.2-0.3l-0.1-0.2l-0.2-0.3
			l-0.1-0.2l-0.2-0.2l-0.2-0.2l-0.1-0.2l-0.2-0.3l-0.3-0.2l-0.1-0.2l-0.2-0.2l-0.2-0.3l-0.1-0.2l-0.2-0.2l-0.2-0.2l-0.1-0.2
			l-0.2-0.2l-0.1-0.2l-0.2-0.2l-0.2-0.3l-0.1-0.2l-0.2-0.2l-0.1-0.2l-0.2-0.2l-0.1-0.2l-0.2-0.2l-0.1-0.2l-0.2-0.2l-0.1-0.2
			l-0.2-0.2l-0.2-0.2l-0.1,0.1l0,0.3v0.3l0,0.3l0,0.3l0,0.3l0,0.3l0,0.3v0.6l0.1,0.3l0,0.3l0,0.3l0,0.3l0,0.3v0.3l0,0.3v0.6l0,0.3
			l0,0.6l0,0.3v0.6l0,0.3v0.3l0,0.3v0.3l0.1,0.3v0.3l0,0.3l0,0.3v0.3l0,0.3l0,0.3v0.3l0.1,0.3l0,0.3l0,0.3l0,0.3l0,0.3l0,0.3
			l0.1,0.3l0,0.3l0,0.3l0,0.3l0,0.3v0.3l0,0.3v0.3l-0.3,0.3h-0.2l-0.3,0l-0.3-0.3v-0.3l-0.1-0.3l0.1-0.3L335,129l0-0.3l0-0.3
			l0.1-0.3l0-0.3l0-0.3l0-0.3l0-0.3l-0.1-0.3l0-0.3l0-0.3l0-0.3l0-0.3l0-0.3l0-0.3l0-0.3l0-0.3l0-0.3l0-0.3l0-0.3l0-0.3l0-0.3l0-0.6
			v-0.3l0-0.3v-0.3l0-0.3l-0.1-0.3l0.1-0.3v-0.3l-0.1-0.3l0-0.3v-0.3l0-0.3v-0.3l0-0.3l0-0.3l0.1-0.3l-0.1-0.3l0.1-0.3l0-0.3l0-0.3
			l0-0.3l0-0.3l0-0.3l0-0.6l0-0.3l0-0.3l0.1-0.3v-0.3l0-0.3l0.3-0.3h0.5l0.4,0.2l0.2,0.2l0.1,0.2l0.2,0.3l0.2,0.2l0.1,0.2l0.1,0.2
			l0.2,0.2l0.1,0.2l0.1,0.2l0.2,0.2l0.2,0.2l0.1,0.2l0.2,0.2l0.2,0.2l0.2,0.2l0.1,0.2l0.2,0.2l0.3,0.2l0.1,0.2l0.2,0.2l0.2,0.2
			l0.1,0.2l0.2,0.2l0.1,0.2l0.2,0.2l0.1,0.2l0.2,0.2l0.3,0.3l0.2,0.2l0.1,0.2l0.2,0.2l0.1,0.2l0.2,0.2l0.2,0.2l0.1,0.2l0.2,0.2
			l0.2,0.3l0.2,0.2l0.1,0.2l0.2,0.2l0.2,0.2l0.1,0.2l0.2,0.2l0.1,0.2l0.2,0.2l0.1,0.2l0.3,0.2l0.1,0.2l0.2,0.2l0.2,0.3l0.2,0.2
			l0.2,0.2l0.2,0.2l0.1,0.2l0.2,0.2l0.2,0.2l0.2,0.2l0.3,0.5l0.2,0.2l0.2,0.2l0.1,0.2l0.1,0.2l0.2,0.2l0.2,0l0.1-0.3l0-0.3l0-0.3
			l0-0.3l0-0.3v-0.3l0-0.3v-0.3l0-0.3v-0.3l0-0.3l0-0.3v-0.3l0-0.3l0-0.3l0-0.3v-0.3l0-0.3l0-0.3l0-0.6l-0.1-0.3v-0.3l0.1-0.3l0-0.3
			v-1.7l0-0.3l0-0.3l0-0.3l0-0.3l0-0.6l0-0.3l0-0.6l0-0.3v-0.3l0-0.2v-0.3l0-0.3l0-0.3l0-0.3l0-0.3v-0.6l0.2-0.3L348.6,113.3z"/>
		<path class="st0" d="M366.4,113.8l-0.1,0.2l-0.3,0.3h-0.6l-0.3,0h-0.6l-0.3,0h-0.3l-0.3,0h-0.6l-0.3,0l-0.3,0l-0.2,0l-0.3,0h-1.6
			l-0.3,0.3l0.1,0.3l-0.1,0.3v0.3l0,0.3l0,0.3v0.3l0,0.3l0,0.6l0.1,0.3l0,0.3v0.3l0,0.3v0.3l0,0.3v0.3v0.3l-0.1,0.3l0,0.3l0,0.3
			l0,0.3l0,0.2l-0.1,0.3l0,0.3l0,0.3v0.3l0,0.3l0,0.3l0,0.3l0,0.3l0,0.3v0.3l0,0.3l0,0.3v0.3l0,0.3v0.3l0,0.3v0.3v0.3l0,0.3l0,0.3
			v0.3l0,0.3v0.3l0,0.3l0.1,0.3v0.3l-0.1,0.3l0.1,0.3l-0.1,0.3l0,0.3l0,0.3l-0.2,0.3l-0.3,0h-0.4l-0.2-0.3v-0.3l0-0.3l0-0.3l0-0.2
			v-0.3l0-0.3l0-0.3v-0.3l0-0.3v-0.3l-0.1-0.3v-0.3l0.1-0.2v-0.6l-0.1-0.3l0-0.3l0-0.3v-0.3l0-0.3l0-0.3l0.1-0.2l-0.1-0.3l0-0.3
			l0-0.3l0-0.3v-0.3l0-0.3l0-0.3l0-0.3v-0.3l0-0.3l0-0.3v-0.3l0-0.3l-0.1-0.3v-0.3l0-0.3l0-0.3l0-0.3l0-0.3l0-0.3l0-0.3l0-0.3l0-0.3
			l0-0.3v-0.3l0-0.3l-0.1-0.3v-0.6l0-0.3v-0.3l-0.3-0.3l-0.3,0h-0.3l-0.4,0l-0.3,0H357l-0.3,0l-0.3,0h-0.3l-0.3,0l-0.3,0l-0.3,0
			l-0.3,0l-0.2,0h-0.3l-0.3,0h-0.9l-0.3,0l-0.3-0.3v-0.6l0.3-0.3h0.6l0.2,0l0.4,0l0.2,0l0.3,0l0.2,0l0.4,0h0.3l0.2,0l0.3,0h1.4
			l0.3,0l0.3,0l0.3,0h0.2l0.3,0h0.8l0.3,0h0.3l0.3,0l0.3,0l0.2,0h0.3l0.2,0h0.4l0.2,0l0.3,0h0.3l0.2,0h0.4l0.2,0h0.3l0.3,0h0.3
			l0.2,0l0.4,0h0.3l0.3,0l0.2,0.3V113.8z"/>
		<path class="st0" d="M371.3,129.4l0.3,0l0.2,0h0.3l0.3,0h0.3l0.3,0h1.4l0.3,0h0.2l0.3,0h0.6l0.3,0h0.3l0.3,0h0.3l0.3,0h0.3l0.3,0
			l0.2,0h1.5l0.3,0l0.3,0l0.3,0l0.2,0l0.3,0l0.2,0l0.3,0.3l0,0.3l-0.1,0.3l-0.3,0.3l-0.3,0l-0.3,0l-0.3,0l-0.3,0l-0.2,0l-0.3,0h-0.6
			l-0.3,0l-0.2,0l-0.4,0H378l-0.3,0l-0.3,0l-0.3,0h-0.3l-0.2,0h-1.2l-0.3,0h-2.1l-0.4,0l-0.3,0h-0.6l-0.2,0l-0.3,0h-0.3l-0.3,0h-0.6
			l-0.2-0.3l0-0.3l0-0.3l0-0.3l0-0.3l0-0.3l0-0.3l0-0.3l0.1-0.3v-0.3l-0.1-0.3v-0.3l0.1-0.3v-0.3l0-0.3l0-0.3v-0.3l0-0.3l0-0.3
			l0-0.3l0-0.3l0.1-0.3v-0.3l0-0.3l0-0.3v-0.9l0-0.3l0-0.3l0-0.3l0-0.3l0.1-0.3l0-0.3l0-0.3l0.1-0.3l0-0.3l0-0.3v-0.3l0-0.3l0-0.3
			l-0.1-0.3l0.1-0.3l-0.1-0.3v-0.3l0.1-0.3l-0.1-0.3v-0.6l0-0.3v-0.3l0-0.3v-0.3l0.1-0.3v-0.6l-0.1-0.3l0.3-0.3h0.3l0.3,0l0.2,0h0.3
			l0.3,0l0.2,0l0.3,0l0.3,0l0.3,0l0.3,0h0.9l0.3,0l0.2,0l0.3,0l0.3,0l0.3,0l0.3,0l0.3,0l0.2,0l0.3,0l0.2,0h1.2l0.3,0l0.3,0h0.3
			l0.3,0l0.3,0h0.3l0.2,0l0.3,0h1.2l0.3,0.2l0,0.3l0,0.3l-0.4,0.3l-0.2,0l-0.3,0h-0.4l-0.3,0l-0.3,0h-1.2l-0.3,0l-0.3,0l-0.2,0h-1.5
			l-0.3,0l-0.2,0h-0.7l-0.2,0h-0.6l-0.4,0h-0.3l-0.3,0h-0.6l-0.3,0h-0.4l-0.2,0l-0.3,0l-0.3,0l-0.3,0.3l0,0.3v0.3l0,0.3l0,0.3l0,0.3
			l0,0.3l0,0.3l0,0.3l0,0.3l0,0.3v0.3l0,0.3l0.1,0.3l0,0.3l0,0.3l0,0.3l0,0.3l0,0.3l0,0.3v0.3l0.3,0.3l0.3,0l0.3,0l0.3,0h0.3l0.3,0
			h1.2l0.3,0l0.3,0h1.7l0.4,0h0.2l0.3,0h0.3l0.3,0h0.3l0.3,0h1.6l0.3,0h0.6l0.3,0.3v0.3l0,0.2l-0.2,0.3h-0.3l-0.4,0h-0.3l-0.2,0
			l-0.4,0h-0.6l-0.3,0l-0.3,0l-0.3,0h-0.3l-0.3,0l-0.2,0l-0.3,0l-0.3,0l-0.3,0l-0.3,0l-0.3,0l-0.3,0l-0.2,0H374l-0.3,0l-0.3,0
			l-0.2,0l-0.3,0l-0.3,0h-0.9l-0.3,0h-0.3l-0.3,0.3l0,0.3l0,0.3l0,0.3l0,0.3l0,0.3l0,0.3v0.9l0,0.3l0,0.3v0.3l0,0.3l0,0.3l0,0.3
			l0,0.3l0,0.3v0.6l0,0.3v0.6l0.3,0.3L371.3,129.4z"/>
		<path class="st0" d="M390.8,130.8l-0.2,0l-0.3,0l-0.2,0h-0.3l-0.3-0.1l-0.2,0l-0.3-0.1l-0.3-0.1l-0.2,0l-0.4-0.1l-0.2-0.1
			l-0.3-0.1l-0.2-0.1l-0.3-0.1l-0.3-0.1l-0.2-0.1l-0.3-0.1l-0.2-0.1l-0.3-0.1l-0.2-0.2l-0.2-0.2l-0.2-0.2l0-0.4l0.1-0.3l0.1-0.2
			l0.3-0.1l0.5,0.4l0.2,0.2l0.2,0.1l0.3,0.1l0.3,0.1l0.2,0.1l0.3,0.1l0.2,0.1l0.2,0.1l0.3,0.1l0.3,0.1l0.3,0.1l0.3,0.1l0.3,0.1
			l0.3,0l0.3,0l0.3,0h0.3l0.3,0l0.2,0h0.6l0.3,0l0.3,0l0.3,0l0.2,0h0.4l0.2,0l0.3-0.1l0.2-0.1l0.3,0l0.3-0.1l0.3-0.1l0.2-0.1
			l0.2-0.1l0.2-0.2l0.3-0.2l0.2-0.1l0.2-0.2l0.2-0.2l0.1-0.2l0.1-0.3l0.1-0.3l0.1-0.3l0-0.3l0-0.3l0-0.6l-0.1-0.3l0-0.3l0-0.3
			l-0.1-0.3l-0.2-0.2l-0.2-0.2l-0.2-0.2l-0.2-0.2l-0.2-0.1l-0.4-0.3l-0.3-0.1l-0.3-0.1l-0.2-0.1l-0.3-0.1l-0.3-0.1l-0.2-0.1l-0.3,0
			l-0.3-0.1l-0.2,0l-0.3,0l-0.3,0h-0.2l-0.3,0h-0.2l-0.6,0l-0.2,0l-0.3,0l-0.3,0l-0.3,0l-0.3,0l-0.3-0.1l-0.3,0l-0.2-0.1l-0.3-0.1
			l-0.3-0.1l-0.3-0.1l-0.2-0.1l-0.3-0.1l-0.2-0.2l-0.3-0.1l-0.3-0.1l-0.5-0.4l-0.1-0.2l-0.2-0.2l-0.1-0.2l-0.1-0.3l-0.1-0.3L385,119
			l-0.1-0.3l-0.1-0.3l0-0.3l0-0.3l-0.1-0.6l0-0.3l0.1-0.2l0.1-0.3l0.1-0.3l0.1-0.3l0.1-0.2l0.2-0.2l0.1-0.2l0.2-0.2l0.2-0.2l0.2-0.2
			l0.1-0.2l0.3-0.2l0.2-0.1l0.2-0.1l0.3-0.1l0.2-0.1l0.2-0.1l0.3-0.1l0.3-0.1l0.5-0.1l0.3-0.1h0.2l0.3-0.1h0.3h0.2l0.3,0l0.6,0h0.3
			h0.3l0.6,0l0.3,0l0.3,0l0.2,0.1l0.3,0l0.8,0.2l0.6,0.1l0.3,0.1l0.2,0.1l0.3,0.1l0.2,0.1l0.3,0.1l0.2,0.1l0.3,0.1l0.3,0.1l0.1,0.4
			l-0.1,0.2l-0.1,0.2l-0.4,0.1l-0.5-0.2l-0.5-0.2l-0.3-0.1l-0.3-0.1l-0.3-0.1l-0.3-0.1l-0.3-0.1l-0.3,0l-0.2-0.1l-0.4,0l-0.6-0.1
			l-0.3,0h-0.3l-0.2,0h-0.3l-0.3,0h-0.6l-0.4,0l-0.3,0l-0.5,0.1l-0.3,0.1l-0.3,0l-0.3,0.1l-0.2,0.1l-0.3,0.1l-0.3,0.1l-0.3,0.1
			l-0.3,0.1l-0.2,0.2l-0.2,0.2l-0.3,0.2l-0.2,0.2l-0.1,0.2l-0.1,0.2l-0.1,0.3l0,0.3l0,0.3l0,0.6l0,0.3l0.1,0.3l0.1,0.3l0,0.2
			l0.1,0.2l0.1,0.3l0.2,0.2l0.2,0.2l0.2,0.2l0.3,0.2l0.3,0.1l0.3,0.1l0.2,0.1l0.3,0l0.6,0.2l0.3,0.1l0.3,0h0.3l0.3,0l0.2,0h0.3
			l0.3,0l0.6,0h0.3l0.3,0h0.3l0.3,0.1h0.3l0.3,0.1l0.2,0l0.3,0.1l0.3,0.1l0.3,0l0.3,0.1l0.3,0.1l0.3,0.1l0.3,0.1l0.2,0.1l0.3,0.2
			l0.5,0.3l0.2,0.2l0.1,0.2l0.2,0.2l0.1,0.2l0.2,0.2l0.1,0.2l0,0.3l0.1,0.2l0.1,0.3l0.1,0.2l0,0.3l0,0.3v0.6v0.3l0,0.3l0,0.3
			l-0.1,0.3l-0.1,0.3l-0.1,0.3l-0.2,0.2l-0.3,0.5l-0.2,0.2L397,129l-0.3,0.2l-0.4,0.3l-0.3,0.1l-0.2,0.1l-0.3,0.1l-0.2,0.1l-0.2,0.1
			l-0.3,0.1l-0.3,0.1l-0.5,0.1l-0.3,0l-0.3,0.1l-0.3,0l-0.4,0h-0.3l-0.3,0l-0.3,0l-0.6,0L390.8,130.8z"/>
		<path class="st0" d="M409.7,129.4h0.3l0.3,0l0.3,0l0.2,0l0.3,0h0.9l0.3,0l0.3,0l0.2,0l0.3,0h0.9l0.3,0l0.2,0l0.3,0l0.3,0h0.3
			l0.3,0l0.2,0l0.3,0l0.3,0l0.3,0h0.3l0.2,0h0.3l0.2,0h0.3l0.3,0h0.3l0.4,0l0.3,0.3l-0.1,0.2l0,0.3l-0.3,0.3l-0.3,0h-0.6l-0.3,0H418
			l-0.2,0l-0.3,0h-0.2l-0.3,0h-0.3l-0.3,0h-1.5l-0.3,0h-0.2l-0.3,0l-0.3,0h-0.5l-0.3,0h-0.9l-0.3,0h-0.7l-0.3,0l-0.2,0l-0.4,0H409
			l-0.3,0l-0.2,0h-0.3l-0.3-0.3l0-0.3l0.1-0.6l0.1-0.3l0.1-0.3l0.1-0.2l0.2-0.3l0.1-0.2l0.2-0.3l0.1-0.2l0.2-0.3l0.2-0.2l0.1-0.3
			l0.2-0.2l0.1-0.2l0.2-0.2l0.2-0.2l0.2-0.2l0.2-0.2l0.2-0.2l0.2-0.2l0.2-0.2l0.5-0.4l0.4-0.3l0.2-0.2l0.3-0.2l0.2-0.2l0.2-0.1
			l0.2-0.1l0.5-0.3l0.3-0.2l0.2-0.2l0.2-0.1l0.3-0.2l0.3-0.2l0.2-0.2l0.3-0.1l0.2-0.2l0.1-0.2l0.3-0.2l0.2-0.2l0.2-0.2l0.3-0.2
			l0.2-0.2l0.1-0.2l0.2-0.2l0.2-0.2l0.1-0.2l0.1-0.3l0.1-0.2l0.1-0.3l0.1-0.3l0-0.3l0.1-0.3l0-0.6l0-0.3l-0.1-0.3l-0.1-0.2l0-0.3
			l-0.2-0.3l-0.1-0.2l-0.2-0.2l-0.1-0.2l-0.2-0.2l-0.2-0.2l-0.2-0.1l-0.3-0.1l-0.3-0.1l-0.3-0.1l-0.3-0.1l-0.3,0l-0.3,0l-0.3,0
			l-0.3,0h-0.3h-0.6l-0.2,0l-0.3,0l-0.3,0l-0.3,0.1h-0.2l-0.3,0l-0.2,0l-0.3,0.1l-0.2,0.1l-0.3,0l-0.3,0.1l-0.3,0.1l-0.2,0.1
			l-0.3,0.1l-0.2,0.1l-0.3,0.1l-0.2,0.1l-0.2-0.2l0-0.3l0-0.3l0.3-0.4l0.2-0.1l0.3-0.1l0.2-0.1l0.3-0.1l0.3-0.1l0.2-0.1l0.3-0.1
			l0.3,0l0.3,0l0.2-0.1l0.3,0l0.4-0.1l0.2,0l0.3,0h0.3l0.3,0l0.5,0h0.3h0.3l0.3,0l0.3,0l0.5,0.1l0.3,0l0.3,0.1l0.2,0l0.3,0.1
			l0.3,0.1l0.2,0.1l0.3,0.1l0.2,0.2l0.2,0.2l0.2,0.2l0.2,0.2l0.1,0.3l0.2,0.2l0.1,0.2l0.1,0.3l0,0.3l0.1,0.3l0.1,0.3l0.1,0.3l0,0.3
			l-0.1,0.6l0,0.3l-0.1,0.3l0,0.3l-0.1,0.3l-0.1,0.2l-0.1,0.3l-0.1,0.2l-0.2,0.2l-0.1,0.2l-0.2,0.2l-0.2,0.2l-0.2,0.2l-0.2,0.2
			l-0.2,0.2l-0.2,0.2l-0.2,0.2l-0.2,0.2l-0.2,0.2l-0.2,0.2l-0.3,0.1l-0.1,0.2l-0.3,0.2l-0.3,0.1l-0.2,0.2l-0.2,0.2l-0.2,0.2
			l-0.2,0.1l-0.3,0.2l-0.2,0.1l-0.2,0.2l-0.2,0.2l-0.3,0.1l-0.2,0.2l-0.3,0.2l-0.2,0.1l-0.2,0.2l-0.3,0.2l-0.2,0.2l-0.2,0.2
			l-0.3,0.2l-0.1,0.2l-0.2,0.2l-0.3,0.2l-0.1,0.2l-0.2,0.2l-0.2,0.2l-0.2,0.2l-0.1,0.3l-0.1,0.2l-0.2,0.3l-0.1,0.2l-0.2,0.2
			l-0.2,0.3l0.1,0.3L409.7,129.4z"/>
		<path class="st0" d="M428.4,130.8l-0.3,0l-0.3,0l-0.2,0l-0.4-0.1l-0.2-0.1l-0.3-0.1l-0.2-0.1l-0.3-0.1l-0.2-0.1l-0.3-0.1l-0.2-0.2
			l-0.2-0.1l-0.2-0.2l-0.1-0.2l-0.3-0.2l-0.1-0.2l-0.2-0.2l-0.2-0.2l-0.1-0.2l-0.1-0.3l-0.2-0.3l-0.1-0.2l-0.2-0.3l-0.1-0.3
			l-0.1-0.3l0-0.3l-0.1-0.3l-0.1-0.3v-0.3l0-0.3l-0.1-0.3l0-0.3l0-0.3l0-0.3l0-0.3l0-0.3v-0.3l0-0.3l0-0.3l0-0.6l0-0.3l0-0.3l0-0.3
			l0-0.3l0-0.3v-0.3l0.1-0.3l0.1-0.3v-0.3l0-0.3l0.1-0.3l0-0.3l0.1-0.3l0.1-0.3l0.1-0.3l0-0.2l0.1-0.3l0.1-0.3l0.1-0.3l0.1-0.3
			l0.2-0.2l0.2-0.2l0.1-0.2l0.2-0.2l0.2-0.2l0.2-0.2l0.2-0.2l0.2-0.1l0.2-0.2l0.2-0.2l0.3-0.1l0.3-0.1l0.5-0.2l0.3-0.1l0.3-0.1
			l0.3,0l0.3-0.1h0.2l0.3,0l0.6,0h0.3l0.3,0l0.3,0.1l0.2,0l0.3,0.1l0.3,0.1l0.2,0.1l0.3,0.1l0.2,0.1l0.2,0.2l0.3,0.1l0.2,0.1
			l0.3,0.2l0.2,0.2l0.2,0.2l0.1,0.2l0.2,0.2l0.2,0.2l0.2,0.2l0.2,0.2l0.1,0.2l0.2,0.3l0,0.2l0.1,0.3l0.1,0.3l0,0.3l0.2,0.3l0,0.3
			l0.1,0.3l0,0.3l0.1,0.3l0,0.3l0,0.3l0,0.3l0.1,0.3l0,0.3l0,0.3l0,0.3v0.3l0,0.3l0.1,0.6v0.3l0,0.3l-0.1,0.3l0,0.3l-0.1,0.3l0,0.3
			l0,0.3l-0.1,0.3l0,0.3l0,0.2l-0.1,0.3l-0.1,0.3l-0.1,0.3l0,0.3l-0.2,0.2l-0.1,0.3l-0.1,0.3l-0.2,0.2l-0.1,0.3l-0.1,0.3l-0.1,0.2
			l-0.2,0.2l-0.1,0.2l-0.2,0.2l-0.2,0.2l-0.2,0.2l-0.3,0.2l-0.2,0.2l-0.2,0.2l-0.2,0.1l-0.2,0.2l-0.2,0.1l-0.3,0.1l-0.3,0.1
			l-0.3,0.1l-0.2,0.1l-0.3,0l-0.3,0.1l-0.3,0l-0.3,0l-0.5,0H428.4z M429.8,129.6l0.3-0.1l0.3-0.1l0.3-0.1l0.2-0.1l0.2-0.1l0.3-0.1
			l0.2-0.2l0.2-0.1l0.3-0.2l0.1-0.2l0.4-0.4l0.1-0.3l0.2-0.2l0.1-0.2l0.2-0.3l0.1-0.3l0.1-0.2l0.1-0.3l0.1-0.3l0.1-0.3l0-0.3
			l0.1-0.3l0.1-0.3l0.1-0.3l0-0.3l0-0.3l0-0.3l0-0.3l0-0.3l0-0.3l0.1-0.3l0-0.6l0-0.3l0-0.3v-0.3l-0.1-0.3l0-0.3l0-0.3l-0.1-0.3
			v-0.3l-0.1-0.3l0-0.3l-0.1-0.3l0-0.3l-0.1-0.3l-0.1-0.3l-0.1-0.2l-0.1-0.3l-0.2-0.3l-0.1-0.3l-0.1-0.2l-0.2-0.2l-0.2-0.2l-0.4-0.4
			l-0.2-0.2l-0.2-0.2l-0.2-0.1l-0.3-0.2l-0.2-0.1l-0.3-0.1l-0.3-0.1l-0.2-0.1l-0.3,0l-0.4,0l-0.2,0h-0.6l-0.3,0l-0.2,0l-0.3,0
			l-0.3,0.1l-0.3,0.1l-0.3,0.1l-0.3,0.1l-0.2,0.1l-0.3,0.2l-0.2,0.2l-0.3,0.2l-0.1,0.2l-0.2,0.2l-0.2,0.2l-0.2,0.2l-0.1,0.2
			l-0.1,0.3l-0.1,0.2l-0.2,0.3l-0.1,0.3l0,0.3l-0.1,0.3l-0.1,0.3l-0.1,0.3l0,0.3l-0.1,0.3l-0.1,0.3l0,0.3l0,0.3l0,0.3l0,0.3l0,0.3
			l-0.1,0.3l0,0.3l0,0.6l0.1,0.3l0,0.3l0,0.3l0,0.3l0,0.3l0,0.3l0.1,0.3l0,0.3l0,0.3l0.1,0.3l0.1,0.3l0,0.3l0.1,0.2l0.1,0.3l0.2,0.3
			l0.1,0.2l0.1,0.3l0.1,0.3l0.1,0.2l0.2,0.3l0.2,0.2l0.2,0.2l0.2,0.2l0.3,0.2l0.2,0.2l0.2,0.2l0.3,0.1l0.5,0.2l0.3,0.1l0.3,0.1
			l0.3,0l0.3,0l0.3,0h0.9L429.8,129.6z"/>
		<path class="st0" d="M442.6,129.4h0.3l0.3,0h1.2l0.3,0h0.8l0.3,0.2l0,0.5l-0.2,0.3h-0.6l-0.3,0h-0.3l-0.2,0l-0.3,0l-0.3,0h-0.2
			l-0.3,0l-0.3,0l-0.2,0l-0.3,0h-0.3l-0.3,0l-0.2,0l-0.3,0h-0.3l-0.3,0h-0.3l-0.3,0l-0.3,0H439l-0.2,0h-0.2l-0.3,0h-0.3l-0.3,0
			l-0.3-0.3l0-0.3v-0.2l0.3-0.3l0.2,0h0.4l0.2,0h0.3l0.3,0l0.2,0h0.3l0.3,0l0.3,0l0.3,0l0.3-0.3v-0.3l0-0.3l0.1-0.3l-0.1-0.9l0-0.3
			l0-0.3l0-0.3v-0.6l0-0.3l0-0.3l0-0.3l0-0.3l0-0.3l0-0.3l0-0.3l0-0.3l0-0.3l0-0.3l0-0.3l-0.1-0.3l0-0.3l0-0.3l0-0.3l0-0.3v-0.3
			l0.1-0.3l0-0.3v-0.3l0-0.3l-0.1-0.3l0-0.3v-0.3l0-0.3l0-0.3v-0.6l0-0.3l0-0.3l0-0.3l0-0.3v-0.6l0-0.3v-0.3l0-0.3l-0.3-0.2
			l-0.3,0.1l-0.2,0.1l-0.3,0.1l-0.3,0.1l-0.3,0.1l-0.3,0.1l-0.3,0.1l-0.2,0.1l-0.3,0.1l-0.3,0l-0.4-0.1l0-0.3l0-0.2l0.3-0.4l0.9-0.3
			l0.2-0.1l0.3-0.1l0.3-0.1l0.2-0.1l0.3-0.1l0.3-0.1l0.3-0.1l0.3-0.1l0.2-0.1l0.7-0.1l0.3,0.3l0,0.3v0.3l0,0.3l0.1,0.3v1.2l-0.1,0.3
			v0.3l0,0.3l0,0.3l0,0.3l0,0.3l0.1,0.3l-0.1,0.3l0.1,0.3l0,0.3l0,0.3l0,0.3l0,0.3l0,0.3l0,0.3l0,0.3v0.3l0.1,0.3l-0.1,0.3l0,0.3
			l0,0.3v0.3l0,0.3l0,0.3l0.1,0.3l0,0.3v0.3l0,0.3l0,0.3l0,0.3l0,0.3l0,0.3l0,0.3l0,0.3l0,0.3l0,0.3l0,0.3l0,0.3l0,0.3l0,0.6v0.3
			l0,0.3l0,0.3v0.3l0.3,0.3L442.6,129.4z"/>
		<path class="st0" d="M457.3,121.4l0.3,0.1l0.2,0.1l0.6,0.3l0.2,0.2l0.3,0.2l0.2,0.2l0.4,0.4l0.2,0.2l0.1,0.3l0.1,0.3l0.1,0.2
			l0,0.3l0.1,0.3l0,0.3l0.1,0.3l0,0.3v0.6l0,0.3l0,0.3l-0.1,0.3l-0.1,0.3l0,0.2l-0.1,0.3l-0.1,0.3l-0.2,0.3l-0.2,0.2l-0.1,0.2
			L459,129l-0.2,0.2l-0.2,0.2l-0.5,0.3l-0.2,0.1l-0.3,0.1l-0.2,0.1l-0.3,0.1l-0.3,0.1l-0.3,0.1l-0.3,0.1l-0.3,0.1l-0.3,0.1l-0.3,0
			l-0.3,0l-0.3,0h-0.2l-0.3,0h-0.7l-0.3,0h-0.3l-0.3,0l-0.3,0l-0.3-0.1l-0.2,0l-0.3-0.1l-0.6-0.2l-0.3-0.1l-0.2-0.1l-0.3-0.1
			l-0.2-0.1l-0.3-0.2l-0.2-0.2l-0.2-0.1l-0.2-0.2l-0.2-0.2l-0.3-0.2l-0.1-0.2l-0.2-0.2l-0.1-0.3l-0.2-0.2l-0.1-0.3l-0.1-0.3
			l-0.1-0.3l-0.1-0.6l0-0.3l0-0.6l0-0.3l0-0.3l0.1-0.3l0-0.2l0.2-0.3l0-0.3l0.2-0.3l0.1-0.2l0.1-0.3l0.2-0.2l0.2-0.2l0.2-0.2
			l0.2-0.2l0.3-0.2l0.2-0.1l0.3-0.1l0.2-0.2l0.3-0.1l0.2-0.1l0.1-0.2l-0.3-0.1l-0.2-0.1l-0.2-0.1l-0.2-0.1l-0.2-0.2l-0.2-0.2
			l-0.2-0.2l-0.2-0.2l-0.2-0.2l-0.1-0.3l-0.2-0.2l-0.1-0.3l-0.1-0.2l-0.1-0.3v-0.3l-0.1-0.3V117l0-0.3l0.1-0.3v-0.3l0.1-0.3l0.1-0.2
			l0.2-0.3l0.1-0.2l0.1-0.2l0.3-0.2l0.1-0.2l0.3-0.1l0.2-0.2l0.2-0.1l0.3-0.1l0.3-0.1l0.2-0.1l0.3-0.1l0.2-0.1l0.3-0.1l0.3-0.1
			l0.6-0.1l0.3,0l0.3-0.1h0.3l0.3,0l0.8,0h0.4l0.2,0l0.3,0l0.3,0l0.2,0l0.3,0.1l0.3,0l0.2,0.1l0.3,0.1l0.3,0.1l0.2,0.1l0.3,0.1
			l0.3,0.2l0.2,0.2l0.2,0.2l0.2,0.2l0.3,0.2l0.2,0.2l0.2,0.3l0.1,0.2l0.2,0.3l0.1,0.3l0.1,0.3l0,0.3l0.1,0.3l0,0.6l-0.1,0.3v0.3
			l-0.1,0.3l-0.1,0.3l-0.1,0.2l-0.1,0.2l-0.2,0.2l-0.2,0.3l-0.2,0.2l-0.1,0.2l-0.3,0.2l-0.3,0.2l-0.2,0.1l-0.3,0.1l-0.2,0.1
			l-0.2,0.1l0,0.2L457.3,121.4z M454.4,129.7l0.3,0h0.3l0.3,0l0.3,0l0.3-0.1l0.3-0.1l0.3-0.1l0.3-0.1l0.2-0.1l0.3-0.1l0.2-0.2
			l0.3-0.2l0.2-0.2l0.2-0.2l0.2-0.2l0.2-0.3l0.1-0.2l0.1-0.2l0.1-0.3l0.1-0.3v-0.3l0-0.3l0-0.6l0-0.3l0-0.3l-0.1-0.3l-0.1-0.3
			l-0.1-0.2l-0.2-0.2l-0.1-0.3l-0.2-0.2l-0.2-0.2l-0.3-0.2l-0.2-0.2l-0.2-0.2l-0.3-0.1l-0.3-0.1l-0.3-0.1l-0.3-0.1l-0.3-0.1
			l-0.2-0.1l-0.3,0l-0.2,0l-0.4,0l-0.3,0l-0.3,0h-0.5l-0.3,0l-0.3,0h-0.3l-0.3,0l-0.2,0l-0.3,0l-0.3,0.1l-0.3,0.1l-0.2,0.1l-0.2,0.1
			l-0.3,0.1l-0.2,0.1l-0.3,0.2l-0.3,0.2l-0.2,0.2l-0.2,0.2l-0.1,0.2l-0.2,0.2l-0.1,0.2l-0.1,0.3l-0.1,0.2l-0.1,0.3l0,0.2v0.3l0,0.6
			l0,0.2l0.1,0.3v0.3l0.1,0.3l0.2,0.2l0.2,0.2l0.1,0.2l0.2,0.2l0.2,0.2l0.2,0.2l0.2,0.2l0.2,0.1l0.3,0.1l0.2,0.1l0.3,0.1l0.2,0.1
			l0.2,0.1l0.3,0.1l0.3,0.1l0.3,0l0.3,0l0.3,0l0.3,0l0.3,0l0.6,0H454.4z M448.9,117.9l0.1,0.3l0,0.2l0.1,0.3l0.1,0.2l0.2,0.3
			l0.1,0.2l0.2,0.2l0.2,0.1l0.3,0.1l0.2,0.2l0.3,0.1l0.3,0.1l0.3,0.1l0.3,0.1l0.2,0l0.3,0.1l0.3,0h0.2l0.3,0h0.3l0.6,0l0.3,0l0.4,0
			l0.6-0.1l0.3,0l0.3-0.1l0.3-0.1l0.6-0.2l0.3-0.1l0.2-0.1l0.3-0.2l0.2-0.2l0.2-0.2l0.1-0.2l0.1-0.3l0.2-0.3l0-0.3l0.1-0.3v-0.3
			l0-0.6v-0.3l-0.1-0.3l-0.1-0.2l-0.1-0.3l-0.1-0.2l-0.2-0.2l-0.2-0.2l-0.1-0.2l-0.3-0.2l-0.2-0.1l-0.2-0.1l-0.3-0.1l-0.2-0.1
			l-0.3-0.1l-0.2,0l-0.3,0l-0.3,0h-0.2l-0.3,0l-0.3,0h-0.6l-0.3,0h-0.3l-0.3,0.1l-0.3,0l-0.3,0l-0.2,0.1l-0.3,0l-0.3,0.1l-0.3,0.1
			l-0.3,0.1l-0.2,0.1L450,115l-0.2,0.2l-0.2,0.2l-0.1,0.2l-0.2,0.2l-0.2,0.2l-0.1,0.3l0,0.3l-0.1,0.3l0,0.6V117.9z"/>
	</g>
	<g>
		<rect x="471.2" y="108.8" class="st1" width="9.7" height="22"/>
		<rect x="480.9" y="108.8" class="st2" width="9.7" height="22"/>
		<rect x="490.5" y="108.8" class="st3" width="9.7" height="22"/>
	</g>
	<g>
		<g>
			<polygon class="st0" points="50.2,92.2 63.4,106.2 49,129.9 27.5,129.9 			"/>
			<polygon class="st4" points="35.8,76.8 50.2,92.2 27.5,129.9 3.6,129.9 			"/>
			<polygon class="st5" points="52.9,87.7 63.4,106.2 50.2,92.2 			"/>
			<polygon class="st6" points="41.5,67.5 52.9,87.7 50.2,92.2 35.8,76.8 			"/>
			<path class="st3" d="M83.2,63.3c1.8,3.4,1.7,7.5-0.3,10.8l-8,13.2l-44.8-82h21.4L83.2,63.3z"/>
			<polygon class="st1" points="30.1,5.2 74.9,87.3 63.4,106.2 52.9,87.7 41.5,67.5 6.7,5.2 			"/>
		</g>
	</g>
</g>
</svg>
