<?xml version="1.0" encoding="utf-8"?>
<!-- Generator: Adobe Illustrator 19.1.0, SVG Export Plug-In . SVG Version: 6.00 Build 0)  -->
<svg version="1.1" id="Calque_1" xmlns="http://www.w3.org/2000/svg" xmlns:xlink="http://www.w3.org/1999/xlink" x="0px" y="0px"
	 viewBox="0 0 523.4 133.2" style="enable-background:new 0 0 523.4 133.2;" xml:space="preserve">
<style type="text/css">
	.st0{fill:#47372B;}
	.st1{fill:#47372B;stroke:#47372B;stroke-miterlimit:10;}
	.st2{fill:#819288;}
	.st3{fill:#FCF6DD;}
	.st4{fill:#C15017;}
	.st5{fill:#F4EDC3;}
	.st6{fill:#6B6927;}
	.st7{fill:#D9CEA8;}
	.st8{fill:#545122;}
</style>
<g>
	<g>
		<path class="st0" d="M102.5,93.2l-0.1-1.1v-1.2l-0.1-1v-1.3l-0.1-1.1l0.1-1l0.2-1.2l-0.1-1.1l0.1-1l-0.3-1.1l0.1-1.2l-0.1-1.1v-1
			l0.1-1.1l-0.1-1.1l0.1-1.2l0.2-1.2l-0.2-1.1v-1l0.2-1.1l-0.2-1.2l0.2-1l-0.3-1.2l0.1-1.1l0.2-1v-2.4l-0.1-1.1v-1l-0.1-1.2l0.2-1
			l-0.1-1.1l-0.2-1.2l0.1-1.1l0.2-1.1l-0.3-1.1l0.2-1l0.1-1.2l-0.1-1.2l-0.1-1l0.1-1.1v-1.2l0.1-1.1l-0.2-1.1l-0.1-1l0.2-1.1
			l-0.2-1.1l0.2-1.2v-1l-0.1-1.2l0.2-1.1l-0.2-1.2l0.2-1l-0.1-1.2v-1.1l0.9-1l1.3-0.1h2.4l1.1,0.1h0.8l1.3-0.1l1.2,0.1h0.9l1-0.1
			l1.2,0.1l1.4-0.1l0.8,0.1h2.5l0.9-0.1h4.4l1.3,0.1h1.1l2-0.1l1.3,0.1h1.1l1.1,0.1l2.1,0.4l0.9,0.3l1.1,0.1l1.1,0.4l2,0.6l1.4,0.6
			l0.8,0.3l1.1,0.6l0.8,0.6l0.9,0.4l0.9,0.6l0.9,0.6l1,0.7l0.8,0.6l0.9,0.8l0.6,0.7l0.8,0.7l0.6,0.8l0.6,0.7l0.8,0.9l0.6,1l0.4,0.9
			l0.6,0.8l0.9,2l0.4,0.9l0.5,1l0.3,1.1l0.4,1l0.3,1l0.3,1l0.4,1.1l0.1,1.1l0.2,1l0.4,1.1l-0.1,1.2l0.4,1l-0.2,1.1l0.3,1.2l-0.3,2.2
			l-0.1,1.1l0.2,1.1l-0.1,1.1l-0.3,1l0.1,1l-0.5,1.2l-0.1,1.1l-0.1,1l-0.6,1v1.2l-0.5,0.9l-0.4,1l-0.6,1l-0.5,1l-0.2,1.1l-0.8,0.9
			l-0.5,1l-0.6,0.8l-0.5,0.8l-0.6,1l-0.8,0.7l-0.7,0.9l-0.7,0.7l-0.7,0.7l-0.9,0.6l-0.8,0.8l-0.9,0.6l-0.6,0.6l-1,0.6l-1.1,0.5
			l-0.8,0.6l-1.2,0.5l-1,0.4l-1,0.5l-1,0.4l-0.9,0.3l-1.1,0.2l-2.2,0.6l-0.8,0.2l-1.3,0.1h-1.2l-0.9,0.2h-1l-2.2,0.1h-1.1l-1.2-0.1
			l-1.3,0.1l-1.1-0.1h-2l-1.1,0.1l-1.4-0.1l-1.1,0.1l-2.3,0.1l-0.9-0.1h-1.2l-1,0.1l-1-0.1h-4.8l-1.1,0.1h-0.8l-1.2-1.2L102.5,93.2z
			 M109,91.1h2.2l1,0.1l1.1-0.1h1.3l1.1,0.1h0.8l1.4-0.2h1l1.3,0.1l1.1-0.1l1,0.1l0.9-0.1l1.2,0.1h2.5l3.1-0.2l1.3-0.1l0.9-0.1
			l1.4-0.1l0.8-0.2l1.2-0.4l1-0.2l1.2-0.3l1.1-0.6l0.8-0.3l1-0.5l1.1-0.6l1.1-0.6l0.7-0.7l0.8-0.6l1-0.7l0.7-0.6l0.8-0.8l0.6-0.8
			l0.8-0.8l0.6-1l0.6-0.9l0.6-0.9l0.6-0.9l0.4-1l0.3-1l0.6-1l0.5-1.1l0.1-1.1l0.5-1v-1.2l0.5-1v-1.1l0.2-1.2l0.1-1.1v-1.2l0.3-1
			l-0.1-2.2l-0.1-1.2l-0.2-1.2l0.1-1l-0.3-1.1l-0.1-1.2l-0.2-1l-0.5-1.1l-0.3-1.2v-1l-0.5-1l-0.6-1l-0.3-1L151,48l-0.6-1l-0.7-0.9
			l-0.6-0.9l-0.6-0.8l-0.6-0.9l-0.7-0.7l-0.6-0.8l-0.9-0.7l-0.9-0.7l-1-0.7l-0.8-0.5l-0.9-0.6l-1-0.6l-0.9-0.5l-2-0.9l-2.1-0.5
			l-2.4-0.6l-0.9-0.1l-1.4-0.2h-0.9l-1.1-0.2h-4.6l-1.3,0.1l-1.1-0.1h-1.1l-1,0.1l-1.1-0.1l-1.1,0.1h-3.3l-1.1-0.1h-1.2l-1.1,0.1
			l-1-0.1h-2.2l-1.2,1.2l-0.2,1v1.2l0.1,1l0.1,1.1l-0.1,1.1V43l0.1,1.1l-0.1,1l0.1,1.1v1.1l0.1,1l-0.2,1.2l0.1,1l-0.1,1.1l-0.1,1.2
			l0.3,1.1l-0.2,1l0.1,1.1l-0.1,1.2l-0.1,1.1l0.2,1l0.1,1.1l-0.2,1.2l-0.1,1l0.1,1l0.1,1.2v2.2l0.1,1.1l-0.2,1l0.2,1.2l-0.2,1.1
			l0.2,1l-0.3,1.2v1.1l0.2,1l0.1,1.2l-0.3,1.1l0.3,1.1l-0.2,1l-0.1,1.2l0.2,2.1l-0.1,1.1l0.1,1l0.1,1.1l-0.1,1.2l-0.1,1.1l-0.1,1
			l1.1,1.2L109,91.1z"/>
		<path class="st0" d="M180.4,91.1l1.3-0.1l0.8,0.1h1.1l1-0.1h1.3l1.2,0.1h5.3l1.3-0.1h0.8l1,0.1h2.3l1.3-0.1h1l1,0.1h1.2l1-0.1h1.1
			l1.2,0.1l0.8-0.1h5.6l1,0.1l1.2-0.1l1.2,0.1l0.8-0.1l1.3,0.1l0.9-0.1l1.3,1l-0.1,1.1l-0.3,1l-1.1,1.2l-1.3-0.1l-1,0.1l-1-0.1
			l-1.3,0.1l-0.9-0.1l-1.2,0.1h-2.4l-1-0.1l-0.9,0.1l-1.4-0.1h-0.8l-1.2,0.1l-1.2-0.1l-1.1,0.1h-1.3l-0.8-0.1H195l-1.1,0.1h-7.8
			l-1.4-0.1l-1.1,0.1h-2.2l-0.8-0.1l-1.3,0.1h-1l-1.2-0.1h-2.4l-0.9-1.1l0.1-1.1l-0.2-1.1l0.2-1.1l-0.1-1l-0.2-1.1l0.2-1.2l-0.2-1.1
			l0.3-1.2v-1l-0.3-1.1v-1.2l0.3-1v-1.2l-0.2-1l0.1-1.1v-1.2l-0.1-1l0.2-1.2l-0.2-1.1l-0.1-1l0.3-1.2v-1.2l-0.1-1.1l-0.2-1v-3.4
			l0.2-1l-0.2-1.2l0.2-1.1l-0.2-1.1l0.3-1l-0.1-1.1l-0.2-1.1l0.3-1.2l-0.1-1.2l0.1-1V52l-0.1-1l0.1-1.2l-0.3-1.1l0.3-1l-0.3-1.2v-1
			l0.3-1.2l-0.3-1V41l0.1-1v-1.3l-0.1-1.1v-1.1l0.3-1v-2.2l-0.3-1.2l1.1-1h1.2l1.3-0.1l0.9,0.1h1.3l1.1-0.1l0.9,0.1l1.1-0.1l1,0.1
			l1.3-0.1l1.1,0.1h3.3l1.2-0.1l0.9,0.1l1.1-0.1l1.2,0.1l1-0.1l1,0.1L197,31l0.8,0.1l1.3-0.1l0.9,0.1h4.6l1-0.1l1.3,0.1h1l1.2-0.1
			l1.1,0.1h1l0.9-0.1l1.2,0.1h4.4l1.1,0.9l-0.1,1.2l-0.1,1l-1.6,1.1l-0.8-0.1l-1.1,0.1h-1.4l-1.2-0.1l-1,0.1h-4.4l-1.3-0.1l-1.1,0.1
			l-0.8-0.1h-5.7l-1.3,0.1l-0.8-0.1h-2.5l-0.9,0.1h-2.1l-1.4-0.1h-1l-1,0.1H185l-1-0.1h-1.4l-0.9,0.1l-1.2-0.1l-1.3,0.1l-1,1.1
			l0.2,1v1.3l-0.1,1.1l0.1,1l-0.2,1.2l0.1,1.2l-0.1,1.1l0.1,1l-0.1,1.2l0.1,1.1v1.2l-0.2,1l0.3,1.1l-0.2,1.2l0.2,1.2l-0.1,1.1
			l-0.2,1l0.2,1.1l-0.2,1.3v1l1.2,1.1l1.3,0.1l1-0.1l1.2,0.1h1l1-0.1h4.4l1.3,0.1l1.1-0.1h6.5l1.4,0.1h0.8l1.1-0.1h1.2l1.2,0.1h1
			l1-0.1h5.8l1,0.1h2.3l1.1,1v1.1l-0.2,0.9l-0.8,1.1h-1.1l-1.4,0.1h-1.1l-0.8-0.1l-1.5,0.1H207l-1.1-0.1l-1.1,0.1l-1.2-0.1h-1.1
			l-1.1,0.1l-0.9-0.1l-1.3,0.1l-1.1-0.1l-1,0.1l-1.1-0.1l-1,0.1l-1.3-0.1l-0.9,0.1h-2.3l-1.1-0.1l-1.3,0.1l-0.8-0.1l-1.1,0.1
			l-1.2-0.1h-3.4l-1.1,0.1h-1.1l-1.2,1l0.1,1.2l0.1,1.1l-0.2,1.2l0.1,1l-0.1,1.2l0.1,1.1v3.4l0.1,1l-0.2,1.1v1.3l-0.1,1l0.1,1.1
			l0.1,1.2l-0.1,1.1l-0.1,1.2v2.1l0.2,1.2V90l1.2,1L180.4,91.1z"/>
		<path class="st0" d="M283.9,31l1.3,0.1l0.6,0.9l-0.6,1l-0.2,1.1l-0.6,1l-0.4,1.1l-0.3,0.9l-0.5,1l-0.7,1.1l-0.3,0.9l-0.3,1.1
			l-0.6,1l-0.5,0.9l-0.3,1l-0.6,1.1l-0.5,1l-0.2,1l-0.6,1l-0.2,1l-0.7,1l-0.4,1.1l-0.4,0.9l-0.3,1l-0.6,1.2l-0.6,1l-0.3,1l-0.6,1
			l-0.5,1l-0.1,1l-0.5,0.9l-0.7,1.1l-0.2,1l-0.5,1l-0.6,1l-0.5,1.1l-0.3,0.9l-0.6,1.1l-0.4,0.9l-0.3,1l-0.6,1l-0.5,1.1l-0.2,1
			L268,74l-0.5,0.9l-0.5,1.1l-0.6,0.9l-0.6,1l-0.4,1.1l-0.2,1l-0.5,1l-0.6,1l-0.4,1l-0.4,1l-0.6,1.1l-0.3,0.9l-0.5,1l-0.6,1
			l-0.5,1.1l-0.1,1l-0.6,1l-0.5,1l-0.3,1.1l-0.4,1l-1.9,0.9l-0.9,0.1h-1.3l-1.6-1l-0.5-1l-0.4-1.1l-0.6-1l-0.6-1.1l-0.3-1l-0.3-0.9
			l-0.5-1l-0.7-1.1l-0.4-1l-0.2-1l-0.5-1l-0.7-0.9L248,81l-0.5-1.1l-0.4-1l-0.6-0.9l-0.4-1.1l-0.3-0.9l-0.6-1.1l-0.6-0.9l-0.3-1.1
			l-0.4-1.1l-0.4-0.9l-0.5-1.1l-0.6-1l-0.3-1l-0.7-1l-0.5-0.9l-0.2-1.1l-0.6-0.9l-0.2-1.1l-0.7-1.1l-0.2-0.9l-0.4-1l-0.5-1.1
			l-0.6-0.9l-0.5-1.1l-0.5-0.9l-0.3-1l-0.6-1.1l-0.4-1l-0.5-1.1l-0.6-1l-0.5-0.9l-0.2-1.1l-0.6-1l-0.2-1l-0.8-2.1l-0.6-0.9l-0.6-1
			l-1.3-3l-0.4-1.1l-0.3-0.9l-0.6-1l-0.3-1.2l-0.4-1l-0.6-1l-0.5-1l0.9-1l1.3,0.1h1.1l1.7,1l0.4,0.9l0.5,1l0.5,1.1l0.3,0.9l0.6,1.1
			l0.3,0.9l0.7,1.1l0.4,0.9l0.4,1l0.3,1.1l0.6,1l0.3,1l0.7,1l0.4,1l0.4,0.9l0.4,1l0.6,1l0.3,1l0.4,1.1l0.4,0.9l0.5,1l0.5,1.1l0.6,1
			l0.3,0.9l0.3,1.1l0.6,1l0.5,1l0.4,1l0.6,1l0.2,1l0.6,1l0.4,1.1l0.6,0.9l0.5,1l0.6,2l0.7,1.1l0.3,1l0.4,0.9l0.6,1l0.5,1l0.2,1
			l0.7,1.1l0.3,0.9l0.6,1.1l0.2,0.9l0.4,1.1l0.7,1l0.1,1l0.7,1l0.4,0.9l0.3,1.1l0.6,0.9l0.3,1.1l0.6,0.9l0.5,1l0.6,0.1l0.6-1.1
			l0.6-0.9l0.5-1l0.3-1.1l0.3-1l0.5-0.9l0.7-1.1l0.3-1l0.5-0.9l0.4-1.1l0.5-1l0.4-1l0.6-1l0.6-0.9l0.1-1.1l0.6-1l0.6-0.9l0.8-2
			l0.2-1.1l0.6-1l0.3-1l0.6-1l0.3-1l0.3-1l0.7-0.9l0.5-1.1l0.4-1.1l0.2-1l0.7-0.9l0.4-1.1l0.5-0.9l0.3-1.1l0.5-0.9l0.3-1.1l0.9-2
			l0.5-0.9l0.6-1l0.4-1.1l0.5-1l0.6-0.9l0.3-1l0.5-1l0.4-1l0.6-1.1l0.4-0.9l0.4-1.1l0.6-1l0.3-0.9l0.4-1.1l0.5-0.9l0.6-1l0.2-1.1
			l0.8-2l1.7-1H283.9z"/>
		<path class="st0" d="M339.2,35.2h-5.6l-1.2,0.1h-5.5l-1.3-0.1l-1,0.1h-0.9l-1.2-0.1l-1.3,0.1h-1.1l-1.1-0.1h-1l-1,0.1h-2.2
			l-1.1-0.1l-1.1,0.1h-5.8l-0.8-0.1l-1.4,0.1h-2l-1.2,1.1l0.1,0.9v1.2l-0.2,1.1l0.3,1.1l-0.1,1l-0.2,1.1v1.1l0.1,1.1l0.1,0.9
			l0.1,1.1v1.2l-0.1,1.1v0.9l0.1,1.1v2.2l-0.3,1.1l0.3,1.1l-0.3,1l0.2,1.1l0.1,1.1l-0.1,1.1l0.9,1l1.1,0.1h1.2l1.1-0.1l1,0.1
			l1.1-0.1l1.1,0.1h1.2l1.1-0.1h1l1.1,0.1h7l0.8-0.1h1.2l1,0.1h1.4l0.9-0.1l1.1,0.1l1.3-0.1l1.1,0.1h3.2l1.1-0.1h1l1.3,0.1h0.9
			l1.2-0.1l1,1.1l0.2,0.9l-0.2,1.2l-1.2,1l-1-0.1h-4.2l-1.4,0.1l-0.8-0.1l-1.2,0.1l-1.1-0.1h-7.8l-1.3,0.1h-2l-1.2-0.1l-1.2,0.1
			l-0.9-0.1l-1.3,0.1l-0.8-0.1h-4.7l-1.1,0.1l-1.1-0.1l-1,0.1l-1-0.1l-1.1,1.2l-0.1,1l0.1,1.1l-0.2,1.1l0.1,1.3l-0.1,1l0.3,1.1
			l-0.1,1.2l-0.2,1.1v1l0.1,1.2l-0.1,1v2.3l0.2,1.1l-0.1,1.1l0.2,2.2l-0.1,1.2l-0.2,1.1l0.2,1.1l0.1,1.1l-0.1,1.1l-0.2,1.2l0.2,1
			l-0.2,1.1l-0.9,1.2l-1.1-0.1h-1.2l-0.9-1l0.1-1.2v-2.1l-0.1-1.2l-0.2-1.1l0.1-1l0.2-1.3v-1l-0.3-1.2l0.3-1V82l-0.1-1.1l-0.1-1.2
			l0.2-1.1v-1.1l-0.3-1v-1.1l0.2-1.1l-0.2-1.1v-1.1l0.2-1.3l-0.2-1.1v-1l0.3-1.1v-2.3l-0.2-1v-1.2l0.2-1l-0.2-1.2l0.1-1.1l-0.2-1.1
			l0.2-1v-1.1l-0.1-1.2v-4.5l0.2-1v-1.2l-0.3-1v-1.2l0.3-1l-0.1-1.1l-0.1-1.2l0.2-1L297,41l0.1-1.1v-1.2l0.1-1.1l-0.1-1l0.1-1.2v-1
			l0.1-1.2l-0.2-1.1l1-1h1.3l1.1-0.1h1l1,0.1l1-0.1l1.1,0.1l1.2-0.1h2.3l1.2,0.1h0.9l1.3-0.1h3.2l1,0.1l0.9-0.1l1.4,0.1h0.9l1.3-0.1
			h1.9l1.4,0.1h3.2l0.8-0.1l1.1,0.1l1.2-0.1l1.3,0.1h6.5l0.8-0.1h2.3l0.9,1l-0.2,1.2l-0.1,1l-1.2,1.1L339.2,35.2z"/>
		<path class="st0" d="M363.4,91.1l1.3-0.1l0.8,0.1h1.1l1-0.1h1.3l1.2,0.1h5.3l1.3-0.1h0.8l1,0.1h2.3l1.3-0.1h1l1,0.1h1.2l1-0.1h1.1
			l1.2,0.1l0.8-0.1h5.6l1,0.1l1.2-0.1l1.2,0.1l0.8-0.1l1.3,0.1l0.9-0.1l1.3,1l-0.1,1.1l-0.3,1l-1.1,1.2l-1.3-0.1l-1,0.1l-1-0.1
			l-1.3,0.1l-0.9-0.1l-1.2,0.1h-2.4l-1-0.1l-0.9,0.1l-1.4-0.1h-0.8l-1.2,0.1l-1.2-0.1l-1.1,0.1h-1.3l-0.8-0.1h-4.4l-1.1,0.1h-7.8
			l-1.4-0.1l-1.1,0.1h-2.2l-0.8-0.1l-1.3,0.1h-1l-1.2-0.1h-2.4l-0.9-1.1L357,93l-0.2-1.1l0.2-1.1l-0.1-1l-0.2-1.1l0.2-1.2l-0.2-1.1
			l0.3-1.2v-1l-0.3-1.1v-1.2l0.3-1v-1.2l-0.2-1l0.1-1.1v-1.2l-0.1-1l0.2-1.2l-0.2-1.1l-0.1-1l0.3-1.2v-1.2l-0.1-1.1l-0.2-1v-3.4
			l0.2-1l-0.2-1.2l0.2-1.1l-0.2-1.1l0.3-1l-0.1-1.1l-0.2-1.1l0.3-1.2l-0.1-1.2l0.1-1V52l-0.1-1l0.1-1.2l-0.3-1.1l0.3-1l-0.3-1.2v-1
			l0.3-1.2l-0.3-1V41l0.1-1v-1.3l-0.1-1.1v-1.1l0.3-1v-2.2l-0.3-1.2l1.1-1h1.2l1.3-0.1l0.9,0.1h1.3l1.1-0.1l0.9,0.1l1.1-0.1l1,0.1
			l1.3-0.1l1.1,0.1h3.3l1.2-0.1l0.9,0.1l1.1-0.1l1.2,0.1l1-0.1l1,0.1L380,31l0.8,0.1l1.3-0.1l0.9,0.1h4.6l1-0.1l1.3,0.1h1l1.2-0.1
			l1.1,0.1h1l0.9-0.1l1.2,0.1h4.4l1.1,0.9l-0.1,1.2l-0.1,1l-1.6,1.1l-0.8-0.1l-1.1,0.1h-1.4l-1.2-0.1l-1,0.1h-4.4l-1.3-0.1l-1.1,0.1
			l-0.8-0.1h-5.7l-1.3,0.1l-0.8-0.1h-2.5l-0.9,0.1h-2.1l-1.4-0.1h-1l-1,0.1H368l-1-0.1h-1.4l-0.9,0.1l-1.2-0.1l-1.3,0.1l-1,1.1
			l0.2,1v1.3l-0.1,1.1l0.1,1l-0.2,1.2l0.1,1.2l-0.1,1.1l0.1,1l-0.1,1.2l0.1,1.1v1.2l-0.2,1l0.3,1.1l-0.2,1.2l0.2,1.2l-0.1,1.1
			l-0.2,1l0.2,1.1l-0.2,1.3v1l1.2,1.1l1.3,0.1l1-0.1l1.2,0.1h1l1-0.1h4.4l1.3,0.1l1.1-0.1h6.5l1.4,0.1h0.8l1.1-0.1h1.2l1.2,0.1h1
			l1-0.1h5.8l1,0.1h2.3l1.1,1v1.1l-0.2,0.9l-0.8,1.1h-1.1l-1.4,0.1h-1.1l-0.8-0.1l-1.5,0.1H390l-1.1-0.1l-1.1,0.1l-1.2-0.1h-1.1
			l-1.1,0.1l-0.9-0.1l-1.3,0.1l-1.1-0.1l-1,0.1l-1.1-0.1l-1,0.1l-1.3-0.1l-0.9,0.1h-2.3l-1.1-0.1l-1.3,0.1l-0.8-0.1l-1.1,0.1
			l-1.2-0.1h-3.4l-1.1,0.1h-1.1l-1.2,1l0.1,1.2l0.1,1.1l-0.2,1.2l0.1,1l-0.1,1.2l0.1,1.1v3.4l0.1,1l-0.2,1.1v1.3l-0.1,1l0.1,1.1
			l0.1,1.2l-0.1,1.1l-0.1,1.2v2.1l0.2,1.2V90l1.2,1L363.4,91.1z"/>
		<path class="st0" d="M435.7,96.4l-0.9-0.2l-1.2-0.1l-0.9-0.1h-1.2l-1.2-0.3l-0.9-0.1l-1.1-0.3l-1.1-0.3l-0.9-0.2l-1.4-0.4
			l-0.9-0.3l-1-0.3l-0.9-0.5l-1.1-0.5l-1-0.4l-0.8-0.6l-1.2-0.5l-0.7-0.6l-1-0.5l-0.9-0.6l-0.9-0.7l-0.8-0.6l-0.2-1.5l0.5-1l0.6-0.8
			l1.2-0.4l1.9,1.4l0.8,0.6l0.8,0.6l1,0.6l1,0.6l0.8,0.5l1.2,0.4l0.8,0.4l0.9,0.4l1.1,0.3l1.1,0.3l1,0.3l1.1,0.3l1.1,0.3l1,0.1
			l1,0.2l1.2,0.1h1.3l1,0.2l0.9-0.1h2.4l1.2-0.1l1.1,0.1l1.1-0.2l0.8-0.2h1.4l0.8-0.2l1.3-0.3l0.8-0.4l1.3-0.2l1.1-0.4l1.1-0.6
			l0.8-0.5l0.8-0.4l0.9-0.7l1.1-0.6l0.8-0.6l0.7-0.8l0.8-0.8l0.6-0.8l0.6-1.1l0.3-1l0.6-1l0.1-1l0.2-1l0.2-2.2l-0.4-1.2L459,75
			l-0.1-1l-0.4-1l-0.6-0.8l-0.6-0.9l-0.6-0.8l-0.7-0.9l-0.6-0.6l-1.7-1.3l-1.3-0.5l-1-0.5l-0.7-0.3l-1.2-0.4l-1.2-0.3l-0.8-0.4
			l-1.1-0.1L445,65l-0.9-0.2l-1.2-0.1l-1.2-0.2h-0.9l-1.3-0.2h-0.9l-2.4-0.2l-0.9-0.1l-1.3-0.2l-1.1-0.1l-1.2-0.2l-1.1-0.1l-1-0.3
			l-1.2-0.2l-0.8-0.3l-1.1-0.3l-1.2-0.3l-1.2-0.5l-0.9-0.4l-1-0.4l-0.8-0.6l-1-0.6l-1-0.5l-1.8-1.5l-0.5-0.8l-0.8-0.8l-0.5-0.9
			l-0.5-1l-0.6-1l-0.4-0.9l-0.3-1.1l-0.3-1.1l-0.2-1.1l0.1-1.1l-0.3-2.2l0.1-1.2l0.5-0.9l0.3-1.2l0.4-1l0.3-1l0.4-0.9l0.6-0.9
			l0.6-0.9l0.8-0.8l0.6-0.7l0.9-0.6l0.6-0.6l1-0.7l0.9-0.6l0.8-0.5l1.3-0.5l0.8-0.6l0.9-0.3l1.3-0.4l1-0.3l1.9-0.5l1.3-0.3h0.9
			l1.3-0.3h1.3h0.9l1-0.2l2.2,0.1h1.2h1.3l2.1,0.2l1,0.2l1.3,0.1l0.7,0.3l1.3,0.1l3,0.8l2.4,0.6l1,0.3l0.9,0.5l1.2,0.3l0.9,0.5
			l1.1,0.4l0.6,0.5l1.2,0.6l1,0.5l0.3,1.6l-0.6,0.9L460,39l-1.5,0.4l-1.9-0.9l-2-0.9l-1-0.4l-1.1-0.5l-1.2-0.3l-1-0.4l-1.1-0.3
			l-1-0.2l-0.8-0.3l-1.4-0.2l-2.1-0.5l-1.2-0.2h-1.1l-0.8-0.2h-1.1l-1.1-0.1h-2.2l-1.4,0.2l-1.2-0.1l-2,0.3l-1.3,0.3l-1.1,0.1
			l-1.2,0.3l-0.8,0.3l-1,0.5l-1.1,0.5l-1,0.5l-1.3,0.6l-0.7,0.6l-0.7,0.7l-1.1,0.7l-0.7,0.9l-0.6,0.9l-0.4,0.9l-0.6,1.1l-0.2,1
			l0.1,1.2l-0.1,2.2l0.1,1l0.3,1.1l0.3,1.2l0.1,0.9l0.6,0.9l0.6,1l0.9,0.8l0.7,0.6l0.7,0.7l1,0.6l1.1,0.4l1,0.5l0.8,0.6l1.2,0.2
			l2.2,0.6l1.1,0.3l1.2,0.2h1l1.3,0.2l0.9,0.2h1.2l1.3,0.2l2.2,0.2h1l1,0.2h1.3l1.2,0.3h1l1.1,0.3l0.8,0.1l1.2,0.4l1,0.3l1,0.2
			l1.1,0.3l1.2,0.4l1.1,0.5l1,0.4l0.7,0.6l1,0.6l1.8,1.1l0.9,0.7l0.6,0.7l0.9,0.9l0.4,0.9l0.8,0.9l0.5,0.9l0.2,1l0.6,0.9l0.3,1.2
			l0.3,0.9l0.1,1.1l-0.1,1.1v2.2v1.1l-0.1,1.2l-0.2,1l-0.6,1l-0.3,1l-0.4,1l-0.7,0.9l-1.2,1.7l-0.8,0.8l-0.5,0.8l-1.1,0.7l-1.5,1.3
			l-1.3,0.6l-0.8,0.6l-1,0.5l-0.9,0.5l-0.9,0.5l-1.2,0.4l-1.2,0.4l-2,0.5l-1.1,0.2l-1.1,0.3l-1.1,0.1l-1.4,0.2h-1.1l-1,0.1l-1.3,0.1
			l-2.1-0.1L435.7,96.4z"/>
		<path class="st0" d="M521,33.2l-0.5,0.9l-1,1.1h-2.2l-1.2,0.1h-2.4l-1.1-0.1h-1.1l-1.1,0.1h-2.3l-1-0.1l-1.2,0.1l-0.9-0.1l-1,0.1
			h-5.8l-1.2,1l0.3,1.1l-0.3,1.1v1.2l0.2,1l0.1,1v1.1l-0.1,1.2l-0.2,2.2l0.3,1l-0.2,1.2v1l0.1,1.1v1.1l0.1,1.1v1.1v1l-0.3,1.2l0.1,1
			l0.1,1.2l-0.1,1.1l0.2,0.9l-0.3,1.2l0.1,1.1l0.2,1.1v1l-0.1,1.1l-0.1,1.2l0.1,1.1l0.2,1.1l-0.2,1.1v1l0.2,1.1l-0.2,1v1.2l0.2,1
			v1.1l-0.2,1.2V79v1l0.1,1.1l0.1,1.1v1.1l-0.2,1.1v1l-0.1,1.2l0.3,1.1v1.1l-0.3,1l0.3,1.1l-0.3,1l0.2,1.1l-0.1,1.1l-0.9,1.1
			l-1.1,0.1h-1.4l-0.9-1.1V93l-0.2-1l0.1-1.2l-0.1-0.9v-1.1l0.2-1.1l-0.1-1.2v-1.1l0.1-1v-1.2l-0.3-1.1V81l0.3-0.9v-2.2l-0.3-1.1
			l0.2-1.1l0.1-1.1v-1.1l-0.2-1.2l-0.1-1.1l0.3-0.9l-0.3-1.1l0.2-1.2l-0.1-1l0.1-1.1v-1.2l-0.1-1.1l0.1-1l-0.2-1.2v-1.1l0.2-1
			l-0.1-1v-1.1l0.2-1.1l-0.3-1.1v-1.1l0.1-1.1l-0.1-1.1l0.1-1.1l-0.1-1.1l0.2-1.1l-0.1-1.1l0.1-1l-0.2-1.2l0.2-1.1v-1l0.1-1.1
			l-0.3-1.2v-2.1l0.2-1.1v-1l-1.1-1.2l-1,0.1h-1.1l-1.4-0.1l-1.1,0.1h-0.9l-1.2-0.1l-1.1,0.1h-1.2l-1-0.1l-1.3,0.1l-1.2-0.1l-1,0.1
			l-0.9-0.1h-1.2l-1.1,0.1h-3.3l-1.1-0.1l-1.2-1v-2.1l1.1-1.1h2.2l0.9,0.1L475,31l0.9,0.1l1.3-0.1l0.8,0.1l1.4-0.1h1.1l0.9,0.1
			l1.3-0.1h5.3l1.1,0.1l1.3-0.1l1.1,0.1h0.9l1.2-0.1h3.1l1.1,0.1h1.1l1.2-0.1l1.2,0.1l0.9-0.1h1.2l0.9,0.1h1.4l0.9-0.1l1.3,0.1h1
			l0.9-0.1h1.4l0.8,0.1h1.3l1.2-0.1h1.1l0.8,0.1l1.4-0.1h1.1l1.1,0.1l0.9,1V33.2z"/>
	</g>
	<g>
		<path class="st1" d="M108,20.8h-0.3l-0.3,0l-0.2,0l-0.3,0l-0.3,0l-0.3,0l-0.2,0l-0.3-0.1l-0.3-0.1l-0.3-0.1l-0.2-0.1l-0.3-0.1
			l-0.3-0.1l-0.2-0.1l-0.3-0.1l-0.3-0.1l-0.2-0.1l-0.2-0.2l-0.3-0.1l-0.2-0.2l-0.3-0.1l-0.2-0.2l-0.1-0.4l0.1-0.2l0.1-0.2l0.4-0.1
			l0.2,0.2l0.3,0.1l0.2,0.2l0.3,0.1l0.2,0.2l0.4,0.2l0.2,0.1l0.3,0.1l0.2,0.1l0.3,0.1l0.3,0.1l0.6,0.1l0.3,0l0.2,0l0.3,0l0.2,0
			l0.3,0l0.3,0h0.3l0.8,0l0.4,0l0.2,0l0.3,0l0.6-0.1l0.3,0l0.2-0.1l0.3-0.1l0.3-0.1l0.4-0.1l0.2-0.1l0.3-0.1l0.3-0.2l0.2-0.2
			l0.2-0.1l0.2-0.2l0.1-0.2l0.2-0.2l0.1-0.3l0.2-0.3l0-0.3l0-0.3l0.1-0.3l0-0.6l0-0.3l0-0.3l-0.1-0.3l-0.1-0.2l-0.1-0.2l-0.2-0.2
			l-0.1-0.2l-0.2-0.2l-0.2-0.1l-0.2-0.2l-0.5-0.3l-0.3-0.1l-0.2-0.1l-0.2-0.1l-0.4-0.1l-0.2,0l-0.3-0.1l-0.6-0.1h-0.3l-0.3-0.1
			l-0.3,0H109l-0.3,0l-0.5,0l-0.3,0l-0.2,0l-0.3-0.1H107l-0.3,0l-0.3-0.1l-0.3,0l-0.3,0l-0.3-0.1l-0.2-0.1l-0.3-0.1l-0.3-0.1
			l-0.2-0.1l-0.3-0.1l-0.3-0.1l-0.2-0.2l-0.2-0.2l-0.2-0.2l-0.2-0.2l-0.2-0.3l-0.2-0.2l-0.1-0.2l-0.1-0.2l0-0.3l0-0.3l-0.1-0.3
			l0-0.3V8.4l0-0.6l0-0.3l0.1-0.2l0.1-0.3l0-0.3l0.1-0.2l0.1-0.2l0.2-0.2l0.2-0.3l0.1-0.2l0.2-0.2l0.3-0.2l0.2-0.2l0.2-0.2l0.2-0.1
			l0.3-0.1l0.2-0.1l0.3-0.1l0.2-0.1l0.5-0.2l0.3,0l0.3-0.1l0.3,0l0.3,0l0.3-0.1h0.3h0.3l0.3,0l0.5,0h0.3l0.2,0h0.3l0.3,0l0.3,0
			l0.2,0l0.3,0.1l0.3,0l0.2,0l0.3,0.1l0.3,0.1l0.3,0l0.2,0.1l0.3,0.1l0.3,0.1l0.2,0.1l0.3,0.1l0.2,0.1l0.6,0.3l0.2,0.1l0.1,0.4
			l-0.1,0.2l-0.1,0.3l-0.4,0.1l-0.5-0.3l-0.3-0.1l-0.2-0.1l-0.2-0.1l-0.3-0.1L112,5.4l-0.2-0.1l-0.3,0l-0.3-0.1L111,5.1l-0.2,0
			l-0.3,0l-0.3,0l-0.3-0.1h-0.3l-0.3,0H109l-0.3,0h-0.5l-0.3,0h-0.3l-0.2,0l-0.3,0L106.4,5l-0.2,0l-0.4,0.1l-0.2,0.1l-0.3,0.1
			l-0.2,0.1l-0.3,0.1l-0.2,0.2L104.3,6l-0.2,0.2L104,6.4l-0.1,0.2l-0.2,0.3l0,0.3l-0.1,0.3l-0.1,0.3l0,0.6l0,0.3l0,0.3l0.1,0.3
			l0.2,0.2l0.1,0.3l0.2,0.2l0.1,0.2l0.2,0.2l0.2,0.2l0.2,0.2l0.3,0.1l0.3,0.1l0.2,0.1l0.3,0l0.3,0.1l0.3,0.1l0.3,0l0.4,0l0.3,0
			l0.3,0l0.3,0l0.3,0h0.3l0.9,0.1l0.2,0l0.3,0l0.3,0l0.2,0l0.3,0l0.2,0.1l0.3,0.1l0.3,0l0.3,0.1l0.3,0.1l0.2,0.1l0.3,0.1l0.2,0.1
			l0.2,0.2l0.3,0.1l0.2,0.1l0.2,0.2l0.2,0.2l0.3,0.2l0.1,0.2l0.2,0.2l0.2,0.2l0.1,0.2l0.1,0.3l0.1,0.3l0,0.3l0.1,0.3l0,0.3l0,0.3
			l-0.1,0.6l0,0.3l0,0.3l-0.1,0.3v0.3l-0.2,0.2l-0.1,0.3l-0.1,0.2l-0.1,0.2l-0.2,0.2l-0.2,0.2l-0.2,0.2l-0.2,0.2l-0.2,0.2l-0.2,0.2
			l-0.3,0.1l-0.3,0.2l-0.2,0.1l-0.3,0.1l-0.3,0.1l-0.2,0.1l-0.5,0.1l-0.3,0.1l-0.3,0l-0.3,0l-0.3,0l-0.3,0l-0.3,0h-0.3l-0.3,0h-0.6
			L108,20.8z"/>
		<path class="st1" d="M119,20l0-0.3l0-0.3l0-0.3l0-0.3l0-0.3l0-0.3l0-0.3l0-0.3v-0.3l0-0.3v-0.3l0-0.3l-0.1-0.3l0-0.3l0-0.3
			l-0.1-0.3l0-0.3v-0.3l0-0.3v-0.3l0-0.3l0-0.3l0-0.3l0-0.3l-0.1-0.3l0-0.3l0-0.3l0-0.3l0-0.3l0-0.3v-0.3l0-0.3l0-0.3l0-0.3V10
			l0.1-0.3l0-0.3l0-0.3V8.9l0-0.3l0-0.3l0-0.3V7.7l0-0.3l0-0.3l0-0.3L119,6.6l0-0.3l0-0.3V5.7l0-0.3l0-0.3l0-0.3l0-0.3l0-0.3
			l0.2-0.3l0.3,0l0.3,0h0.2l0.3,0h0.4l0.3,0h0.3l0.3,0h0.3l0.3,0h0.3l0.4,0h0.2l0.3,0l0.3,0h0.2l0.4,0l0.3,0l0.2,0h0.3l0.3,0h0.3
			l0.3,0l0.3,0l0.6,0l0.3,0h0.3l0.3,0l0.3,0.1l0.3,0l0.3,0.1l0.2,0.1l0.3,0.1l0.6,0.2l0.2,0.1l0.3,0.2l0.1,0.2l0.3,0.2l0.1,0.2
			l0.2,0.2l0.2,0.2l0.1,0.3l0.1,0.2l0.2,0.2l0,0.3l0.1,0.3l0,0.3l0.1,0.3l0,0.3l0,0.2l0,0.3l0,0.6v0.3l0,0.3V10l-0.1,0.3l-0.1,0.2
			l-0.1,0.3l0,0.3l-0.2,0.3l-0.2,0.2l-0.1,0.2l-0.1,0.2l-0.2,0.2l-0.1,0.2l-0.3,0.2l-0.2,0.2l-0.3,0.1l-0.2,0.2l-0.3,0.1l-0.3,0.1
			l-0.5,0.2l-0.4,0.1l-0.2,0.1l-0.3,0l-0.3,0l-0.3,0h-0.3h-0.9l-0.3,0h-0.3l-0.2,0l-0.3,0l-0.3,0H124l-0.3,0l-0.3,0H122l-0.3,0h-0.2
			l-0.3,0l-0.3,0h-0.6l-0.3,0.3l0,0.3l0,0.3l0,0.3l0,0.3l0,0.3l0,0.3V16l0,0.3l-0.1,0.3l0,0.3v0.2l0,0.3l0,0.3l0,0.3v0.3l0,0.3
			l0,0.3l0,0.3l0,0.3V20l0,0.3l-0.3,0.3h-0.5l-0.4-0.3L119,20z M120.7,12.7l0.3,0l0.2,0l0.3,0l0.3,0h0.3l0.4,0l0.2,0l0.3,0l0.3,0
			h0.9l0.2,0l0.3,0l0.3,0h1.1l0.6,0l0.2,0l0.3,0l0.3,0l0.3,0l0.2-0.1l0.4-0.1l0.2-0.1l0.3-0.1L129,12l0.2-0.2l0.2-0.2l0.2-0.2
			l0.2-0.2l0.1-0.2l0.1-0.3l0.1-0.3l0.1-0.3l0-0.3l0.1-0.3V9.5l0-0.3l0-0.5l0-0.3l-0.1-0.3l0-0.3l0-0.2l-0.1-0.3L130.1,7l-0.1-0.3
			l-0.2-0.2l-0.1-0.2l-0.2-0.2l-0.2-0.2L129,5.7l-0.3-0.1l-0.2-0.1l-0.3-0.1l-0.2-0.1l-0.3-0.1l-0.2,0l-0.3,0l-0.3,0l-0.3,0h-0.8
			l-0.3,0l-0.4,0h-0.5l-0.4,0l-0.2,0h-0.3l-0.2,0h-0.6l-0.2,0l-0.3,0l-0.3,0H121l-0.3,0l-0.3,0l-0.2,0.3l0,0.3v0.6l0,0.2l0,0.3
			l0.1,0.3l0,0.3l0,0.3l0,0.3l0,0.3l0,0.3v0.3l0,0.3l0,0.3v0.3l0,0.3v0.3l0,0.3l0,0.3l-0.1,0.3l0,0.3v0.3l0,0.3v0.3l-0.1,0.3
			l0.3,0.3L120.7,12.7z"/>
		<path class="st1" d="M145.6,20l-0.2-0.3l0-0.2l-0.2-0.3l-0.1-0.3l0-0.3l-0.1-0.2l-0.2-0.2l0-0.3l-0.1-0.3l-0.1-0.2l-0.1-0.3
			l-0.1-0.3l-0.1-0.2l-0.2-0.3l-0.3-0.3l-0.4,0l-0.3,0h-0.2l-0.3,0l-0.3,0l-0.4,0l-0.3,0l-0.3,0h-0.2l-0.3,0h-0.6l-0.3,0l-0.3,0
			l-0.2,0h-0.3l-0.3,0h-0.3l-0.2,0h-2l-0.3,0h-0.3l-0.2,0h-0.6l-0.4,0.3l-0.2,0.2l0,0.3l-0.2,0.3l-0.1,0.3l-0.1,0.3l-0.1,0.3
			l-0.1,0.3l0,0.2l-0.1,0.3l-0.1,0.3l0,0.2l-0.2,0.3l-0.1,0.3l-0.1,0.2l-0.2,0.3l-0.4,0.2h-0.4l-0.3,0l-0.2-0.3l0.1-0.3l0.1-0.3
			l0.2-0.2l0.1-0.3L132,19l0.1-0.3l0.1-0.3l0.2-0.2l0.1-0.3l0.1-0.3l0.1-0.3l0.1-0.2l0.1-0.3l0.2-0.3l0.1-0.3l0.1-0.2l0.2-0.3
			l0.1-0.3l0.2-0.3l0.1-0.3l0.1-0.3l0.1-0.2l0.1-0.3l0.1-0.2l0-0.3l0.1-0.3l0.2-0.3l0.1-0.3l0.1-0.2l0-0.3l0.2-0.3l0.1-0.3l0.1-0.3
			l0.1-0.2l0.1-0.3l0.1-0.3l0.1-0.3l0.1-0.3l0-0.3L136,10l0.1-0.3l0.1-0.2l0-0.3l0.1-0.2l0.1-0.3l0.2-0.3l0.1-0.2l0-0.3l0.2-0.3
			l0.1-0.2l0.1-0.3l0-0.3l0.1-0.3l0.1-0.2l0.2-0.3l0.1-0.2l0.1-0.3l0.2-0.3l0-0.3l0.2-0.2l0-0.3l0.2-0.2l0.4-0.3h0.4l0.2,0l0.4,0.3
			l0.1,0.3l0.2,0.3l0.1,0.3l0.1,0.3l0.1,0.2l0.1,0.3l0.1,0.2l0.1,0.2l0.1,0.3l0.2,0.3l0,0.2l0.2,0.3l0.1,0.3l0,0.3l0.1,0.2l0.1,0.3
			l0.1,0.2l0.1,0.3l0.1,0.2l0.2,0.3l0,0.3l0.2,0.3l0.2,0.5l0.1,0.3l0.1,0.3l0.1,0.2l0.2,0.3l0.1,0.3l0.1,0.3l0.2,0.2l0.1,0.3
			l0.1,0.2l0.1,0.3l0.1,0.2l0.1,0.3l0.2,0.5l0.1,0.2l0.1,0.3l0.3,0.5l0,0.3l0.2,0.3l0.1,0.2l0.1,0.3l0,0.3l0.1,0.3l0.2,0.2l0,0.3
			l0.2,0.2l0.1,0.3l0.1,0.3l0.1,0.3l0.1,0.2l0.1,0.3l0.1,0.2l0.2,0.5l0.1,0.3l0.2,0.3l0.1,0.3l-0.2,0.2l-0.3,0h-0.3l-0.4-0.3
			L145.6,20z M135.6,15.1h0.5l0.4,0h0.2l0.2,0l0.3,0h0.3l0.3,0l0.3,0l0.3,0l0.3,0l0.3,0h0.3l0.2,0h0.3l0.2,0l0.3,0h0.6l0.3,0h0.3
			l0.3,0l0.3,0l0.2,0l0.3,0l0.3,0l0.3,0l0.2-0.3l-0.2-0.3l-0.1-0.2l-0.1-0.3l-0.1-0.3l-0.1-0.3l-0.1-0.2l-0.1-0.3l-0.1-0.3l-0.3-0.5
			l-0.1-0.3l-0.1-0.3l0-0.3l-0.2-0.2l-0.1-0.3l-0.2-0.3l-0.1-0.2l0-0.3l-0.1-0.2L141,9.6l-0.3-0.8l-0.1-0.3l-0.2-0.2L140.3,8l0-0.3
			l-0.1-0.3L140,7.3L139.8,7l-0.1-0.2l-0.1-0.3l-0.2-0.3l0-0.3l-0.1-0.2l-0.2,0L139,6l-0.1,0.3l-0.1,0.3l-0.1,0.2L138.5,7l-0.1,0.2
			l-0.1,0.3l-0.1,0.2l-0.1,0.3l-0.3,0.5l0,0.2l-0.1,0.3l-0.1,0.3l-0.1,0.3l-0.1,0.2l-0.1,0.3l-0.1,0.3l-0.1,0.2l-0.1,0.3l-0.1,0.2
			l-0.1,0.3l-0.2,0.2l0,0.3l-0.1,0.3l-0.1,0.2l-0.1,0.3l-0.1,0.3l-0.2,0.2l-0.1,0.3l-0.2,0.3l0,0.3l-0.1,0.3l-0.1,0.3l-0.1,0.3
			l0.1,0.2L135.6,15.1z"/>
		<path class="st1" d="M156.2,20.8l-0.3,0l-0.6-0.1l-0.3,0l-0.3,0l-0.3-0.1l-0.3-0.1l-0.2-0.1l-0.2,0l-0.3-0.1l-0.3-0.1l-0.3-0.1
			l-0.3-0.1l-0.2-0.1l-0.3-0.2l-0.2-0.1l-0.3-0.2l-0.3-0.2l-0.2-0.1l-0.3-0.2l-0.2-0.2l-0.3-0.2l-0.2-0.2l-0.2-0.2l-0.2-0.2
			l-0.2-0.2l-0.1-0.2l-0.2-0.2l-0.1-0.2l-0.1-0.2l-0.2-0.3l-0.1-0.2l-0.1-0.3l-0.1-0.3l-0.1-0.3l-0.1-0.3l-0.1-0.3l-0.1-0.3v-0.3
			l-0.1-0.3l0-0.3v-0.3l-0.1-0.3l0-0.3l0-0.3l0-0.6v-0.3l0-0.3v-0.3l0-0.3l0.1-0.3l0-0.3l0.1-0.3l0-0.3l0.1-0.3l0-0.3l0.1-0.3
			l0.1-0.3l0.1-0.3l0.1-0.3l0.2-0.3l0.1-0.2l0.1-0.2l0.1-0.3l0.2-0.2l0.2-0.2l0.1-0.2l0.2-0.2l0.3-0.2l0.2-0.2l0.2-0.2l0.2-0.2
			l0.4-0.3l0.3-0.1l0.2-0.2l0.3-0.1l0.2-0.1l0.3-0.1l0.2-0.1l0.3-0.1l0.3-0.1l0.2-0.1l0.3,0l0.3-0.1l0.5-0.1l0.3,0l0.2-0.1h0.3
			l0.3,0h0.3l0.5,0l0.4,0h0.3l0.3,0l0.3,0l0.3,0l0.3,0l0.6,0.1l0.2,0.1l0.3,0.1l0.3,0.1l0.3,0.1l0.3,0.1l0.3,0.1l0.2,0.1l0.3,0.1
			l0.3,0.1l0.3,0.2l0.4,0.3l0.1,0.4l-0.2,0.4l-0.4,0.1l-0.2-0.1L161.3,6l-0.2-0.1l-0.2-0.1l-0.2-0.1l-0.3-0.1l-0.5-0.2l-0.4,0
			l-0.3-0.1L159,5.1l-0.3-0.1l-0.5-0.1l-0.3,0l-0.3,0l-0.4,0l-0.2,0l-0.3,0h-0.6h-0.3l-0.3,0l-0.3,0l-0.3,0L154.8,5l-0.3,0l-0.3,0.1
			l-0.3,0.1l-0.3,0.1l-0.3,0.1l-0.2,0.1l-0.3,0.1l-0.3,0.1l-0.3,0.1L152.1,6l-0.2,0.2l-0.2,0.2l-0.2,0.2l-0.2,0.2L151,6.9l-0.1,0.2
			l-0.2,0.2l-0.2,0.2l-0.2,0.3l-0.1,0.2l-0.1,0.2l-0.1,0.2l-0.1,0.3l-0.2,0.3l0,0.2l-0.1,0.3l-0.1,0.3v0.2l-0.1,0.3l0,0.3v0.3l0,0.3
			l-0.1,0.3v0.3l0,0.6l0.1,0.3l0,0.3l0.1,0.3v0.3l0,0.3l0.1,0.3l0.1,0.3v0.3l0.1,0.3l0.1,0.3l0.1,0.2l0.2,0.3l0.1,0.2l0.2,0.3
			l0.1,0.2l0.2,0.2l0.2,0.3l0.2,0.2l0.2,0.2l0.2,0.2l0.1,0.2l0.2,0.2l0.3,0.2l0.2,0.2l0.2,0.2l0.2,0.1l0.3,0.1l0.2,0.1l0.3,0.1
			l0.2,0.1l0.4,0.1l0.2,0.1l0.3,0l0.3,0.1l0.3,0.1l0.3,0l0.3,0.1h0.3l0.3,0l0.3,0h0.3h0.5l0.4,0l0.2,0l0.3,0l0.3-0.1h0.3l0.3-0.1
			l0.3,0l0.3,0l0.3-0.1l0.3-0.1l0.2-0.1l0.3,0l0.3-0.1l0.3-0.1l0.3-0.1l0.3-0.1l0.2-0.1l0.2-0.1l0.2,0.1l0,0.3l-0.1,0.3l0,0.3
			l-0.4,0.4l-0.2,0.1l-0.3,0.1l-0.2,0.1l-0.3,0.1l-0.2,0.1l-0.2,0.1l-0.3,0.1l-0.3,0l-0.3,0.1l-0.3,0.1l-0.3,0l-0.2,0l-0.5,0.1
			l-0.4,0l-0.5,0h-0.3h-0.6L156.2,20.8z"/>
		<path class="st1" d="M168.1,19.5l0.3,0l0.2,0h0.3l0.3,0h0.3l0.3,0h1.4l0.3,0h0.2l0.3,0h0.6l0.3,0h0.3l0.3,0h0.3l0.3,0h0.3l0.3,0
			l0.2,0h1.4l0.3,0l0.3,0l0.3,0l0.2,0l0.3,0l0.2,0l0.3,0.3l0,0.3l-0.1,0.3l-0.3,0.3l-0.3,0l-0.3,0l-0.3,0l-0.3,0l-0.2,0l-0.3,0h-0.6
			l-0.3,0l-0.2,0l-0.4,0h-0.2l-0.3,0l-0.3,0l-0.3,0h-0.3l-0.2,0h-1.1l-0.3,0h-2l-0.4,0l-0.3,0h-0.6l-0.2,0l-0.3,0h-0.3l-0.3,0h-0.6
			l-0.2-0.3l0-0.3l0-0.3l0-0.3l0-0.3l0-0.3l0-0.3l0-0.3l0.1-0.3v-0.3l-0.1-0.3v-0.3l0.1-0.3v-0.3l0-0.3l0-0.3v-0.3l0-0.3l0-0.3
			l0-0.3l0-0.3l0.1-0.3V14l0-0.3l0-0.3v-0.9l0-0.3l0-0.3l0-0.3l0-0.3l0.1-0.3l0-0.3l0-0.3l0.1-0.3l0-0.3l0-0.3V9.4l0-0.3l0-0.3
			l-0.1-0.3l0.1-0.3L166.3,8V7.7l0.1-0.3l-0.1-0.3V6.6l0-0.3V6l0-0.3V5.4l0.1-0.3V4.6l-0.1-0.3l0.3-0.3h0.3l0.3,0l0.2,0h0.3l0.3,0
			l0.2,0l0.3,0l0.3,0l0.3,0l0.3,0h0.9l0.3,0l0.2,0l0.3,0l0.3,0l0.3,0l0.3,0l0.3,0l0.2,0l0.3,0l0.2,0h1.2l0.3,0l0.3,0h0.3l0.3,0
			l0.3,0h0.3l0.2,0l0.3,0h1.1l0.3,0.2l0,0.3l0,0.3l-0.4,0.3l-0.2,0l-0.3,0h-0.4l-0.3,0l-0.3,0H175l-0.3,0l-0.3,0l-0.2,0h-1.5l-0.3,0
			l-0.2,0h-0.6l-0.2,0h-0.5l-0.4,0h-0.3l-0.3,0h-0.6l-0.3,0h-0.4l-0.2,0l-0.3,0l-0.3,0l-0.3,0.3l0,0.3V6l0,0.3l0,0.3l0,0.3l0,0.3
			l0,0.3l0,0.3l0,0.3l0,0.3v0.3l0,0.3l0.1,0.3l0,0.3l0,0.3l0,0.3l0,0.3l0,0.3l0,0.3v0.3l0.3,0.3l0.3,0l0.3,0l0.3,0h0.3l0.3,0h1.1
			l0.3,0l0.3,0h1.7l0.4,0h0.2l0.3,0h0.3l0.3,0h0.3l0.3,0h1.5l0.3,0h0.6l0.3,0.3V12l0,0.2l-0.2,0.3h-0.3l-0.4,0h-0.3l-0.2,0l-0.4,0
			h-0.5l-0.3,0l-0.3,0l-0.3,0h-0.3l-0.3,0l-0.2,0l-0.3,0l-0.3,0l-0.3,0l-0.3,0l-0.3,0l-0.3,0l-0.2,0h-0.6l-0.3,0l-0.3,0l-0.2,0
			l-0.3,0l-0.3,0h-0.9l-0.3,0h-0.3l-0.3,0.3l0,0.3l0,0.3l0,0.3l0,0.3l0,0.3l0,0.3v0.9l0,0.3l0,0.3v0.3l0,0.3l0,0.3l0,0.3l0,0.3
			l0,0.3v0.5l0,0.3v0.6l0.3,0.3L168.1,19.5z"/>
		<path class="st1" d="M193.8,20.8h-0.3l-0.3,0l-0.2,0l-0.3,0l-0.3,0l-0.3,0l-0.2,0l-0.3-0.1l-0.3-0.1l-0.3-0.1l-0.2-0.1l-0.3-0.1
			l-0.3-0.1L190,20l-0.3-0.1l-0.3-0.1l-0.2-0.1l-0.2-0.2l-0.3-0.1l-0.2-0.2l-0.3-0.1l-0.2-0.2l-0.1-0.4l0.1-0.2l0.1-0.2l0.4-0.1
			l0.2,0.2l0.3,0.1l0.2,0.2l0.3,0.1l0.2,0.2l0.4,0.2l0.2,0.1l0.3,0.1l0.2,0.1l0.3,0.1l0.3,0.1l0.6,0.1l0.3,0l0.2,0l0.3,0l0.2,0
			l0.3,0l0.3,0h0.3l0.8,0l0.4,0l0.2,0l0.3,0l0.6-0.1l0.3,0l0.2-0.1l0.3-0.1l0.3-0.1l0.4-0.1l0.2-0.1l0.3-0.1l0.3-0.2l0.2-0.2
			l0.2-0.1l0.2-0.2l0.1-0.2l0.2-0.2l0.1-0.3l0.2-0.3l0-0.3l0-0.3l0.1-0.3l0-0.6l0-0.3l0-0.3l-0.1-0.3l-0.1-0.2l-0.1-0.2l-0.2-0.2
			l-0.1-0.2l-0.2-0.2l-0.2-0.1l-0.2-0.2l-0.5-0.3l-0.3-0.1l-0.2-0.1l-0.2-0.1l-0.4-0.1l-0.2,0l-0.3-0.1l-0.6-0.1h-0.3l-0.3-0.1
			l-0.3,0h-0.3l-0.3,0l-0.5,0l-0.3,0l-0.2,0l-0.3-0.1h-0.3l-0.3,0l-0.3-0.1l-0.3,0l-0.3,0l-0.3-0.1l-0.2-0.1l-0.3-0.1l-0.3-0.1
			l-0.2-0.1l-0.3-0.1l-0.3-0.1l-0.2-0.2l-0.2-0.2l-0.2-0.2l-0.2-0.2l-0.2-0.3l-0.2-0.2l-0.1-0.2l-0.1-0.2l0-0.3l0-0.3l-0.1-0.3
			l0-0.3V8.4l0-0.6l0-0.3l0.1-0.2l0.1-0.3l0-0.3l0.1-0.2l0.1-0.2l0.2-0.2l0.2-0.3l0.1-0.2l0.2-0.2l0.3-0.2l0.2-0.2l0.2-0.2l0.2-0.1
			l0.3-0.1l0.2-0.1l0.3-0.1l0.2-0.1l0.5-0.2l0.3,0l0.3-0.1l0.3,0l0.3,0l0.3-0.1h0.3h0.3l0.3,0l0.5,0h0.3l0.2,0h0.3l0.3,0l0.3,0
			l0.2,0l0.3,0.1l0.3,0l0.2,0l0.3,0.1l0.3,0.1l0.3,0l0.2,0.1l0.3,0.1l0.3,0.1l0.2,0.1l0.3,0.1l0.2,0.1l0.6,0.3l0.2,0.1l0.1,0.4
			l-0.1,0.2l-0.1,0.3l-0.4,0.1l-0.5-0.3l-0.3-0.1l-0.2-0.1l-0.2-0.1l-0.3-0.1l-0.3-0.1l-0.2-0.1l-0.3,0L197,5.2l-0.3-0.1l-0.2,0
			l-0.3,0l-0.3,0l-0.3-0.1h-0.3l-0.3,0h-0.2l-0.3,0h-0.5l-0.3,0h-0.3l-0.2,0l-0.3,0L192.1,5l-0.2,0l-0.4,0.1l-0.2,0.1L191,5.4
			l-0.2,0.1l-0.3,0.1l-0.2,0.2L190.1,6l-0.2,0.2l-0.2,0.2l-0.1,0.2l-0.2,0.3l0,0.3l-0.1,0.3l-0.1,0.3l0,0.6l0,0.3l0,0.3l0.1,0.3
			l0.2,0.2l0.1,0.3l0.2,0.2l0.1,0.2l0.2,0.2l0.2,0.2l0.2,0.2l0.3,0.1l0.3,0.1l0.2,0.1l0.3,0l0.3,0.1l0.3,0.1l0.3,0l0.4,0l0.3,0
			l0.3,0l0.3,0l0.3,0h0.3l0.9,0.1l0.2,0l0.3,0l0.3,0l0.2,0l0.3,0l0.2,0.1l0.3,0.1l0.3,0l0.3,0.1l0.3,0.1l0.2,0.1l0.3,0.1l0.2,0.1
			l0.2,0.2l0.3,0.1l0.2,0.1l0.2,0.2l0.2,0.2l0.3,0.2l0.1,0.2l0.2,0.2l0.2,0.2l0.1,0.2l0.1,0.3l0.1,0.3l0,0.3l0.1,0.3l0,0.3l0,0.3
			l-0.1,0.6l0,0.3l0,0.3l-0.1,0.3v0.3l-0.2,0.2l-0.1,0.3l-0.1,0.2l-0.1,0.2l-0.2,0.2l-0.2,0.2l-0.2,0.2l-0.2,0.2l-0.2,0.2l-0.2,0.2
			l-0.3,0.1l-0.3,0.2l-0.2,0.1l-0.3,0.1l-0.3,0.1l-0.2,0.1l-0.5,0.1l-0.3,0.1l-0.3,0l-0.3,0l-0.3,0l-0.3,0l-0.3,0H195l-0.3,0h-0.6
			L193.8,20.8z"/>
		<path class="st1" d="M215.8,4.6l-0.1,0.2l-0.3,0.3h-0.6l-0.3,0h-0.6l-0.3,0h-0.3l-0.3,0h-0.6l-0.3,0l-0.3,0l-0.2,0l-0.3,0h-1.5
			l-0.3,0.3l0.1,0.3l-0.1,0.3v0.3l0,0.3l0,0.3V7l0,0.3l0,0.6l0.1,0.3l0,0.3v0.3l0,0.3v0.3l0,0.3v0.3v0.3l-0.1,0.3l0,0.3l0,0.3l0,0.3
			l0,0.2l-0.1,0.3l0,0.3l0,0.3v0.3l0,0.3l0,0.3l0,0.3l0,0.3l0,0.3v0.3l0,0.3l0,0.3v0.3l0,0.3v0.3l0,0.3v0.3v0.3l0,0.3l0,0.3v0.3
			l0,0.3V18l0,0.3l0.1,0.3v0.3l-0.1,0.3l0.1,0.3l-0.1,0.3l0,0.3l0,0.3l-0.2,0.3l-0.3,0h-0.4l-0.2-0.3V20l0-0.3l0-0.3l0-0.2v-0.3
			l0-0.3l0-0.3V18l0-0.3v-0.3l-0.1-0.3v-0.3l0.1-0.2v-0.6l-0.1-0.3l0-0.3l0-0.3v-0.3l0-0.3l0-0.3l0.1-0.2l-0.1-0.3l0-0.3l0-0.3
			l0-0.3v-0.3l0-0.3l0-0.3l0-0.3v-0.3l0-0.3l0-0.3v-0.3l0-0.3l-0.1-0.3V9.9l0-0.3l0-0.3l0-0.3l0-0.3l0-0.3l0-0.3l0-0.3l0-0.3l0-0.3
			V7.1l0-0.3l-0.1-0.3V5.9l0-0.3V5.4l-0.3-0.3l-0.3,0h-0.3l-0.4,0l-0.3,0h-0.2l-0.3,0l-0.3,0h-0.3l-0.3,0l-0.3,0l-0.3,0l-0.3,0
			l-0.2,0h-0.3l-0.3,0h-0.9l-0.3,0l-0.3-0.3V4.3l0.3-0.3h0.6l0.2,0l0.4,0l0.2,0l0.3,0l0.2,0l0.4,0h0.3l0.2,0l0.3,0h1.4l0.3,0l0.3,0
			l0.3,0h0.2l0.3,0h0.8l0.3,0h0.3l0.3,0l0.3,0l0.2,0h0.3l0.2,0h0.4l0.2,0l0.3,0h0.3l0.2,0h0.4l0.2,0h0.3l0.3,0h0.3l0.2,0l0.4,0h0.3
			l0.3,0l0.2,0.3V4.6z"/>
		<path class="st1" d="M228.6,20l-0.2-0.3l0-0.2l-0.2-0.3l-0.1-0.3l0-0.3l-0.1-0.2l-0.2-0.2l0-0.3l-0.1-0.3l-0.1-0.2l-0.1-0.3
			l-0.1-0.3l-0.1-0.2l-0.2-0.3l-0.3-0.3l-0.4,0l-0.3,0h-0.2l-0.3,0l-0.3,0l-0.4,0l-0.3,0l-0.3,0h-0.2l-0.3,0h-0.6l-0.3,0l-0.3,0
			l-0.2,0h-0.3l-0.3,0h-0.3l-0.2,0h-2l-0.3,0h-0.3l-0.2,0h-0.6l-0.4,0.3l-0.2,0.2l0,0.3l-0.2,0.3l-0.1,0.3l-0.1,0.3l-0.1,0.3
			l-0.1,0.3l0,0.2l-0.1,0.3l-0.1,0.3l0,0.2l-0.2,0.3l-0.1,0.3l-0.1,0.2l-0.2,0.3l-0.4,0.2H215l-0.3,0l-0.2-0.3l0.1-0.3l0.1-0.3
			l0.2-0.2l0.1-0.3l0.1-0.3l0.1-0.3l0.1-0.3l0.2-0.2l0.1-0.3l0.1-0.3l0.1-0.3l0.1-0.2l0.1-0.3l0.2-0.3l0.1-0.3l0.1-0.2l0.2-0.3
			l0.1-0.3l0.2-0.3l0.1-0.3l0.1-0.3l0.1-0.2l0.1-0.3l0.1-0.2l0-0.3l0.1-0.3l0.2-0.3l0.1-0.3l0.1-0.2l0-0.3l0.2-0.3l0.1-0.3l0.1-0.3
			l0.1-0.2l0.1-0.3l0.1-0.3l0.1-0.3l0.1-0.3l0-0.3L219,10l0.1-0.3l0.1-0.2l0-0.3l0.1-0.2l0.1-0.3l0.2-0.3l0.1-0.2l0-0.3l0.2-0.3
			l0.1-0.2l0.1-0.3l0-0.3l0.1-0.3l0.1-0.2l0.2-0.3l0.1-0.2l0.1-0.3l0.2-0.3l0-0.3l0.2-0.2l0-0.3l0.2-0.2l0.4-0.3h0.4l0.2,0l0.4,0.3
			l0.1,0.3l0.2,0.3l0.1,0.3l0.1,0.3l0.1,0.2l0.1,0.3l0.1,0.2l0.1,0.2l0.1,0.3l0.2,0.3l0,0.2l0.2,0.3l0.1,0.3l0,0.3l0.1,0.2l0.1,0.3
			l0.1,0.2l0.1,0.3l0.1,0.2l0.2,0.3l0,0.3l0.2,0.3l0.2,0.5l0.1,0.3l0.1,0.3l0.1,0.2l0.2,0.3l0.1,0.3l0.1,0.3l0.2,0.2l0.1,0.3
			l0.1,0.2l0.1,0.3l0.1,0.2l0.1,0.3l0.2,0.5l0.1,0.2l0.1,0.3l0.3,0.5l0,0.3l0.2,0.3l0.1,0.2l0.1,0.3l0,0.3l0.1,0.3l0.2,0.2l0,0.3
			l0.2,0.2l0.1,0.3L229,18l0.1,0.3l0.1,0.2l0.1,0.3l0.1,0.2l0.2,0.5l0.1,0.3l0.2,0.3l0.1,0.3l-0.2,0.2l-0.3,0h-0.3l-0.4-0.3
			L228.6,20z M218.6,15.1h0.5l0.4,0h0.2l0.2,0l0.3,0h0.3l0.3,0l0.3,0l0.3,0l0.3,0l0.3,0h0.3l0.2,0h0.3l0.2,0l0.3,0h0.6l0.3,0h0.3
			l0.3,0l0.3,0l0.2,0l0.3,0l0.3,0l0.3,0l0.2-0.3l-0.2-0.3l-0.1-0.2L226,14l-0.1-0.3l-0.1-0.3l-0.1-0.2l-0.1-0.3l-0.1-0.3l-0.3-0.5
			l-0.1-0.3l-0.1-0.3l0-0.3l-0.2-0.2l-0.1-0.3l-0.2-0.3l-0.1-0.2l0-0.3l-0.1-0.2l-0.1-0.3l-0.3-0.8l-0.1-0.3l-0.2-0.2L223.4,8l0-0.3
			l-0.1-0.3L223,7.3L222.9,7l-0.1-0.2l-0.1-0.3l-0.2-0.3l0-0.3l-0.1-0.2l-0.2,0L222.1,6l-0.1,0.3l-0.1,0.3l-0.1,0.2L221.6,7
			l-0.1,0.2l-0.1,0.3l-0.1,0.2l-0.1,0.3l-0.3,0.5l0,0.2l-0.1,0.3l-0.1,0.3l-0.1,0.3l-0.1,0.2l-0.1,0.3l-0.1,0.3l-0.1,0.2l-0.1,0.3
			l-0.1,0.2l-0.1,0.3l-0.2,0.2l0,0.3l-0.1,0.3l-0.1,0.2l-0.1,0.3L219,13l-0.2,0.2l-0.1,0.3l-0.2,0.3l0,0.3l-0.1,0.3l-0.1,0.3
			l-0.1,0.3l0.1,0.2L218.6,15.1z"/>
		<path class="st1" d="M242.1,4.6L242,4.8l-0.3,0.3h-0.6l-0.3,0h-0.6l-0.3,0h-0.3l-0.3,0h-0.6l-0.3,0l-0.3,0l-0.2,0l-0.3,0h-1.5
			l-0.3,0.3l0.1,0.3l-0.1,0.3v0.3l0,0.3l0,0.3V7l0,0.3l0,0.6l0.1,0.3l0,0.3v0.3l0,0.3v0.3l0,0.3v0.3v0.3l-0.1,0.3l0,0.3l0,0.3l0,0.3
			l0,0.2l-0.1,0.3l0,0.3l0,0.3v0.3l0,0.3l0,0.3l0,0.3l0,0.3l0,0.3v0.3l0,0.3l0,0.3v0.3l0,0.3v0.3l0,0.3v0.3v0.3l0,0.3l0,0.3v0.3
			l0,0.3V18l0,0.3l0.1,0.3v0.3l-0.1,0.3l0.1,0.3l-0.1,0.3l0,0.3l0,0.3l-0.2,0.3l-0.3,0h-0.4l-0.2-0.3V20l0-0.3l0-0.3l0-0.2v-0.3
			l0-0.3l0-0.3V18l0-0.3v-0.3l-0.1-0.3v-0.3l0.1-0.2v-0.6l-0.1-0.3l0-0.3l0-0.3v-0.3l0-0.3l0-0.3l0.1-0.2l-0.1-0.3l0-0.3l0-0.3
			l0-0.3v-0.3l0-0.3l0-0.3l0-0.3v-0.3l0-0.3l0-0.3v-0.3l0-0.3l-0.1-0.3V9.9l0-0.3l0-0.3l0-0.3l0-0.3l0-0.3l0-0.3l0-0.3l0-0.3l0-0.3
			V7.1l0-0.3l-0.1-0.3V5.9l0-0.3V5.4l-0.3-0.3l-0.3,0H234l-0.4,0l-0.3,0h-0.2l-0.3,0l-0.3,0h-0.3l-0.3,0l-0.3,0l-0.3,0l-0.3,0
			l-0.2,0h-0.3l-0.3,0h-0.9l-0.3,0l-0.3-0.3V4.3l0.3-0.3h0.6l0.2,0l0.4,0l0.2,0l0.3,0l0.2,0l0.4,0h0.3l0.2,0l0.3,0h1.4l0.3,0l0.3,0
			l0.3,0h0.2l0.3,0h0.8l0.3,0h0.3l0.3,0l0.3,0l0.2,0h0.3l0.2,0h0.4l0.2,0l0.3,0h0.3l0.2,0h0.4l0.2,0h0.3l0.3,0h0.3l0.2,0l0.4,0h0.3
			l0.3,0l0.2,0.3V4.6z"/>
		<path class="st1" d="M245.2,20l0-0.3l0-0.3l0-0.3l0-0.3l0-0.3v-0.3l0-0.3l0-0.3l0-0.3l0-0.3l0.1-0.3l0-0.3l0-0.3V16l0-0.3v-0.6
			l0.1-0.3l0-0.3l0-0.3V14l0-0.3l0-0.3l0-0.3l0-0.3l0-0.3v-0.3l0-0.3l0-0.3l0-0.3l0-0.3v-0.3l0-0.3v-0.3l0-0.3V9.4l-0.1-0.3l0-0.3
			l0-0.3l0-0.6l0-0.3l0-0.3l0-0.3V6.9l0-0.3l-0.1-0.3l0.1-0.3l0-0.3l0-0.3l-0.1-0.3l0.1-0.3l0-0.3V4.3l0.2-0.3l0.3,0l0.3,0l0.3,0.3
			l-0.1,0.3l0,0.3v0.3l0,0.3v0.3l0.1,0.3v0.6l-0.1,0.3l0.1,0.3l-0.1,0.3v0.9l0,0.3l0,0.3l0,0.3v0.5l0,0.3l0,0.3l0.1,0.3l-0.1,0.3
			v0.3l0.1,0.3l0,0.3l0,0.3l-0.1,0.3l0.1,0.3l0,0.6l0,0.3l0,0.3l0,0.3l-0.1,0.3l0,0.3v0.3l0,0.3l0,0.3l0,0.3l-0.1,0.3l0,0.3l0,0.3
			l0,0.3l-0.1,0.3l0.1,0.3l0,0.3v0.6l0,0.3l0,0.3l0,0.3l0,0.3l0,0.3V20l0,0.3l-0.3,0.3h-0.5l-0.3-0.3V20z"/>
		<path class="st1" d="M258,20.8h-0.3l-0.3,0h-0.2l-0.3-0.1l-0.3,0l-0.3-0.1l-0.3-0.1l-0.2-0.1l-0.3-0.1l-0.2-0.1l-0.3-0.1l-0.2-0.1
			l-0.3-0.1l-0.3-0.1l-0.3-0.1l-0.5-0.3l-0.2-0.2l-0.2-0.2l-0.2-0.2l-0.2-0.2l-0.2-0.2l-0.2-0.2l-0.2-0.2l-0.1-0.2l-0.2-0.2
			l-0.2-0.3l-0.1-0.2l-0.2-0.2l-0.3-0.5l-0.1-0.2l-0.1-0.3l-0.1-0.3l-0.1-0.3l0-0.3l-0.1-0.3l0-0.3l0-0.3l-0.1-0.3l0-0.3l0-0.3
			l0.1-0.3l0-0.3v-0.6v-0.3v-0.3l0-0.3l0.1-0.3l0-0.3l0-0.3l0.1-0.3l0.1-0.2l0-0.3l0.1-0.3l0.1-0.3l0.2-0.2l0.1-0.3l0.1-0.3l0.1-0.3
			l0.2-0.3l0.1-0.3l0.2-0.2l0.2-0.2l0.2-0.3l0.1-0.2l0.3-0.2l0.2-0.2l0.2-0.2l0.2-0.2l0.2-0.2l0.2-0.2l0.3-0.2l0.1-0.2l0.3-0.2
			l0.2-0.1l0.2-0.1l0.3-0.1l0.2-0.1l0.3-0.1l0.3-0.1l0.3-0.1l0.3-0.1l0.3,0l0.2-0.1l0.3,0l0.3,0l0.3,0l0.3,0l0.3,0h0.3h0.6h0.3
			l0.3,0l0.3,0l0.3,0l0.3,0.1l0.3,0L261,4l0.3,0l0.3,0.1l0.2,0.1l0.3,0.1l0.3,0.1l0.3,0.1l0.2,0.1l0.3,0.1l0.2,0.1l0.2,0.1l0.2,0.2
			l0.3,0.2l0.1,0.2l0.3,0.2l0.2,0.2l0.2,0.2l0.2,0.2l0.1,0.2l0.2,0.2l0.2,0.2l0.1,0.2l0.1,0.2l0.2,0.3l0.1,0.3l0.1,0.2l0.2,0.3
			l0,0.3l0.2,0.3l0,0.2l0.1,0.3l0.1,0.3v0.3l0,0.3l0.1,0.3v0.3l0.1,0.3l-0.1,0.3l0.1,0.3v0.5l0,0.3l0,0.3l0,0.3l-0.1,0.3l0,0.3
			l0,0.3v0.3l-0.1,0.3l-0.1,0.3l-0.1,0.3l0,0.3l-0.1,0.3l-0.1,0.2l-0.1,0.3l-0.1,0.3l-0.1,0.2l-0.2,0.3l-0.1,0.2l-0.2,0.2l-0.2,0.2
			l-0.2,0.2l-0.2,0.2l-0.2,0.2l-0.2,0.2l-0.2,0.2l-0.2,0.2l-0.2,0.2l-0.2,0.2l-0.2,0.2l-0.2,0.1l-0.3,0.1l-0.2,0.1l-0.3,0.1
			l-0.3,0.1l-0.2,0.1l-0.3,0.1l-0.3,0.1l-0.2,0.1l-0.3,0.1l-0.2,0l-0.3,0l-0.3,0l-0.3,0l-0.3,0l-0.3,0h-0.3l-0.5,0L258,20.8z
			 M259.6,19.7l0.2,0l0.3,0l0.3,0l0.3-0.1l0.2-0.1l0.3,0l0.3-0.1l0.3-0.1l0.2-0.1l0.2-0.1l0.3-0.2l0.2-0.1l0.3-0.1l0.2-0.2l0.3-0.2
			l0.2-0.2l0.3-0.2l0.2-0.2l0.2-0.2l0.2-0.2l0.1-0.2l0.1-0.3l0.2-0.2l0.1-0.2l0.1-0.3l0.1-0.2l0.1-0.3l0-0.2l0.2-0.3l0-0.3l0-0.3
			l0.1-0.3l0-0.3l0.1-0.3v-0.3l0-0.3l0-0.3l-0.1-0.6l0-0.3l0-0.3l-0.1-0.3l0-0.3l0-0.3l-0.1-0.3l-0.1-0.3l0-0.3l-0.1-0.3l-0.1-0.3
			L265.3,9l-0.1-0.3l-0.1-0.2l-0.2-0.3L264.8,8l-0.2-0.2l-0.2-0.3l-0.1-0.2l-0.2-0.2l-0.3-0.2l-0.2-0.2l-0.1-0.2l-0.5-0.4L262.9,6
			l-0.3-0.1l-0.2-0.1l-0.2-0.1l-0.3-0.1l-0.3-0.1l-0.3-0.1l-0.2-0.1L260.6,5L260.3,5l-0.2,0l-0.3,0l-0.3,0l-0.3,0l-0.3,0h-0.5
			l-0.3,0h-0.3l-0.3,0l-0.3,0.1l-0.3,0l-0.2,0.1l-0.3,0l-0.2,0.1l-0.3,0.1l-0.3,0.1l-0.3,0.1l-0.2,0.1l-0.3,0.1l-0.3,0.2l-0.2,0.2
			l-0.2,0.1l-0.2,0.2l-0.2,0.2l-0.2,0.2L253.2,7L253,7.2l-0.1,0.2l-0.2,0.2l-0.2,0.2l-0.2,0.2l-0.1,0.3l-0.1,0.2L252,8.9l0,0.3
			l-0.1,0.2l-0.1,0.3l-0.1,0.3l-0.1,0.3l0,0.3l0,0.3l0,0.3l0,0.3l0,0.3l0,0.3l0.1,0.6l0,0.3l0.1,0.3l0,0.3l0,0.3l0,0.3l0.1,0.3
			l0,0.3l0,0.3l0.1,0.3l0.1,0.2l0.1,0.3l0.1,0.3l0.1,0.3l0.1,0.2l0.1,0.2l0.2,0.2l0.1,0.2l0.2,0.3l0.2,0.2l0.2,0.2l0.2,0.2l0.2,0.2
			l0.2,0.2l0.2,0.2l0.2,0.2l0.3,0.2l0.2,0.1l0.3,0.2l0.5,0.2l0.3,0.1l0.2,0.1l0.3,0l0.3,0.1l0.3,0l0.3,0l0.2,0h0.4l0.3,0l0.2,0
			l0.9,0H259.6z"/>
		<path class="st1" d="M284,4h0.2l0.3,0.3l0,0.3l0,0.3l0,0.3l0,0.3l-0.1,0.3l0,0.3v0.3l0,0.3v1.1l0,0.3l0,0.3l0.1,0.3l0,0.3v0.3
			l0,0.3l0,0.3V10l0,0.3l0,0.3l-0.1,0.3l0.1,0.3l-0.1,0.3l0.1,0.3l0,0.3l0,0.3l0,0.3v0.3l0,0.3l0,0.3v0.3l0,0.3v0.3l0,0.3l0,0.3
			l0.1,0.3l-0.1,0.3l0,0.3V16l0,0.3l0,0.3l0.1,0.3l-0.1,0.3l0,0.3l0,0.3l0,0.3l0,0.3l0,0.3l0,0.3v0.3l0,0.3v0.3l0,0.3l-0.1,0.3
			l-0.2,0.3l-0.3,0h-0.3l-0.4-0.2l-0.2-0.2l-0.2-0.2l-0.2-0.3l-0.1-0.2l-0.2-0.2l-0.2-0.2l-0.1-0.2l-0.2-0.2l-0.1-0.2l-0.2-0.2
			l-0.2-0.2l-0.2-0.2l-0.2-0.2l-0.1-0.2l-0.2-0.2l-0.2-0.2l-0.2-0.2l-0.1-0.2l-0.2-0.2l-0.2-0.2l-0.2-0.2l-0.1-0.2l-0.2-0.2
			l-0.2-0.3l-0.1-0.2l-0.2-0.2l-0.1-0.3l-0.2-0.2l-0.1-0.2l-0.2-0.2l-0.2-0.2l-0.2-0.2l-0.2-0.2l-0.2-0.3l-0.1-0.2l-0.2-0.3
			l-0.1-0.2l-0.2-0.2l-0.2-0.2l-0.1-0.2l-0.2-0.3L276,11l-0.1-0.2l-0.2-0.2l-0.2-0.3l-0.1-0.2l-0.2-0.2L275,9.6l-0.1-0.2l-0.2-0.2
			L274.5,9l-0.2-0.2l-0.2-0.3L274,8.3l-0.2-0.2l-0.1-0.2l-0.2-0.2l-0.1-0.2l-0.2-0.2L272.9,7l-0.2-0.2l-0.1-0.2l-0.2-0.2l-0.2-0.2
			l-0.1,0.1l0,0.3v0.3l0,0.3l0,0.3l0,0.3l0,0.3l0,0.3v0.6l0.1,0.3l0,0.3l0,0.3l0,0.3l0,0.3v0.3l0,0.3v0.6l0,0.3l0,0.6l0,0.3v0.6
			l0,0.3v0.3l0,0.3v0.3l0.1,0.3v0.3l0,0.3l0,0.3v0.3l0,0.3l0,0.3v0.3l0.1,0.3l0,0.3l0,0.3l0,0.3l0,0.3l0,0.3l0.1,0.3l0,0.3l0,0.3
			l0,0.3l0,0.3v0.3l0,0.3v0.3l-0.3,0.3h-0.2l-0.3,0l-0.3-0.3V20l-0.1-0.3l0.1-0.3l-0.1-0.3l0-0.3l0-0.3l0.1-0.3l0-0.3l0-0.3l0-0.3
			l0-0.3l-0.1-0.3l0-0.3l0-0.3l0-0.3l0-0.3l0-0.3l0-0.3l0-0.3l0-0.3l0-0.3l0-0.3l0-0.3l0-0.3l0-0.3l0-0.6v-0.3l0-0.3v-0.3l0-0.3
			l-0.1-0.3l0.1-0.3v-0.3l-0.1-0.3l0-0.3V9.7l0-0.3V9.1l0-0.3l0-0.3l0.1-0.3L270.9,8l0.1-0.3l0-0.3l0-0.3l0-0.3l0-0.3l0-0.3l0-0.6
			l0-0.3l0-0.3l0.1-0.3V4.6l0-0.3l0.3-0.3h0.5l0.4,0.2l0.2,0.2l0.1,0.2l0.2,0.3l0.2,0.2l0.1,0.2l0.1,0.2l0.2,0.2l0.1,0.2l0.1,0.2
			l0.2,0.2l0.2,0.2l0.1,0.2l0.2,0.2l0.2,0.2l0.2,0.2l0.1,0.2l0.2,0.2l0.3,0.2l0.1,0.2l0.2,0.2l0.2,0.2l0.1,0.2l0.2,0.2l0.1,0.2
			l0.2,0.2l0.1,0.2l0.2,0.2l0.3,0.3l0.2,0.2l0.1,0.2l0.2,0.2l0.1,0.2l0.2,0.2l0.2,0.2l0.1,0.2l0.2,0.2l0.2,0.3l0.2,0.2l0.1,0.2
			l0.2,0.2l0.2,0.2l0.1,0.2l0.2,0.2l0.1,0.2l0.2,0.2l0.1,0.2l0.3,0.2l0.1,0.2l0.2,0.2l0.2,0.3l0.2,0.2l0.2,0.2l0.2,0.2l0.1,0.2
			l0.2,0.2l0.2,0.2l0.2,0.2l0.3,0.4l0.2,0.2l0.2,0.2l0.1,0.2l0.1,0.2l0.2,0.2l0.2,0l0.1-0.3l0-0.3l0-0.3l0-0.3l0-0.3v-0.3l0-0.3
			v-0.3l0-0.3v-0.3l0-0.3l0-0.3v-0.3l0-0.3l0-0.3l0-0.3v-0.3l0-0.3l0-0.3l0-0.6l-0.1-0.3v-0.3l0.1-0.3l0-0.3V9.7l0-0.3l0-0.3l0-0.3
			l0-0.3l0-0.6l0-0.3l0-0.6l0-0.3V6.5l0-0.2V6l0-0.3l0-0.3l0-0.3l0-0.3V4.3l0.2-0.3L284,4z"/>
	</g>
	<g>
		<path class="st1" d="M311.2,112.4l0.3,0.3l0,0.3l0,0.3l0,0.6l0,0.6l-0.1,0.3l0,0.3l0,0.3l0.1,0.3v0.6l-0.1,0.3l0.1,0.3l0,0.3
			l0,0.3l0,0.3l0,0.3l-0.1,0.3l0,0.3l0,0.3v0.6l0.1,0.3l0,0.3l0,0.3l-0.1,0.3l0,0.3l0,0.3l0,0.3l0,0.3v0.3l0,0.3v0.6l0,0.3v0.6
			l0,0.3l0.1,0.3l0,0.3v0.3l0,0.3v0.3l-0.1,0.3l0,0.3v0.3l0,0.3l0,0.3l0,0.3l-0.1,0.3l0.1,0.3v0.6l-0.1,0.3l0,0.3l-0.2,0.3l-0.3,0
			h-0.2l-0.5-0.2l-0.2-0.2l-0.1-0.2l-0.2-0.2l-0.1-0.2l-0.2-0.2l-0.1-0.2l-0.3-0.2l-0.1-0.2l-0.2-0.2l-0.2-0.2l-0.2-0.2l-0.1-0.2
			l-0.1-0.2l-0.3-0.2l-0.1-0.2l-0.1-0.2l-0.2-0.2l-0.2-0.2l-0.1-0.2l-0.2-0.2l-0.1-0.2l-0.2-0.2L306,124l-0.2-0.2l-0.4-0.4l-0.1-0.2
			l-0.2-0.2l-0.2-0.2l-0.1-0.2l-0.2-0.3l-0.1-0.2l-0.3-0.2l-0.2-0.2l-0.5-0.7l-0.2-0.2l-0.2-0.2l-0.2-0.2l-0.1-0.2l-0.2-0.2
			l-0.1-0.3l-0.2-0.2l-0.2-0.2l-0.2-0.2l-0.2-0.2l-0.2-0.3l-0.1-0.2l-0.2-0.3l-0.2-0.2l-0.1-0.2l-0.2-0.2l-0.2-0.2l-0.2-0.2
			l-0.1-0.2l-0.2-0.2l-0.2-0.2l-0.2-0.2l-0.2-0.2l-0.2-0.2L299,115l-0.2-0.2l-0.2-0.2l-0.2,0.1l0,0.3l0,0.3v0.3l0,0.3v0.3l-0.1,0.3
			v0.3l0.1,0.3l0,0.3v0.3l0,0.3l0,0.3v1.5l-0.1,0.3l0,0.3l0,0.3l0,0.3l0,0.3l0,0.3l0,0.3l0,0.3v0.3l0,0.3v0.3l0,0.3l0,0.3l0,0.3
			l0,0.3l0,0.3l0,0.3l0.1,0.3v0.3l0,0.3l0,0.2v0.3l0,0.3l0,0.3l-0.1,0.3v0.3l0.1,0.3l0,0.3l0,0.3l-0.1,0.3l0,0.3l0,0.3l0.1,0.3
			l-0.3,0.3l-0.3,0l-0.3,0l-0.3-0.3V129l0.1-0.3l-0.1-0.3l0.1-0.3v-0.3l0-0.3l0-0.3V127l0-0.3l0-0.3l0-0.3l0-0.3l0-0.3v-0.6l0-0.3
			l0-0.3l0-0.3l0-0.3l-0.1-0.3l0.1-0.3v-0.3l0-0.3l0-0.3l0-0.3v-1.5l0-0.3l0-0.3v-0.3l0-0.3v-0.6l0-0.3l0-0.3l0.1-0.3l-0.1-0.3
			l0-0.3l0-0.3l0-0.3l-0.1-0.3l0-0.3l0-0.3l0-0.3v-0.3l0-0.3v-0.6l0-0.3v-0.3l0-0.3l-0.1-0.3l0.1-0.3l0.2-0.3l0.3,0h0.3l0.4,0.2
			l0.2,0.2l0.2,0.2l0.1,0.2l0.2,0.2l0.2,0.2l0.2,0.3l0.1,0.2l0.2,0.2l0.2,0.2l0.2,0.2l0.1,0.2l0.2,0.2l0.2,0.2l0.2,0.2l0.1,0.3
			l0.2,0.2l0.2,0.2l0.1,0.2l0.2,0.2l0.2,0.3l0.2,0.2l0.1,0.2l0.2,0.2l0.1,0.2l0.2,0.2l0.2,0.2l0.2,0.2l0.2,0.2l0.2,0.2l0.2,0.2
			l0.2,0.2l0.2,0.2l0.1,0.2l0.2,0.2l0.2,0.2l0.2,0.2l0.2,0.3l0.2,0.2l0.1,0.2l0.1,0.3l0.2,0.2l0.1,0.2l0.2,0.2l0.1,0.2l0.2,0.2
			l0.1,0.2l0.2,0.2l0.1,0.2l0.2,0.2l0.2,0.2l0.2,0.2l0.1,0.2l0.2,0.2l0.2,0.2l0.1,0.3l0.1,0.2l0.3,0.2l0.1,0.2l0.2,0.3l0.2,0.2
			l0.2,0.2l0.1,0.3l0.2,0.2l0.2,0.3l0.2-0.1v-0.3l0-0.3v-0.3l0-0.3l0-0.3l0-0.3v-0.3l0-0.3l0-0.3l0-0.3v-0.6l0-0.3v-0.3l0-0.3l0-0.3
			l0-0.3l0-0.3l0-0.3v-0.3l0-0.3v-0.3l0-0.3v-0.3l0-0.3v-0.3l0-0.3l-0.1-0.3v-0.3l0-0.3l0-0.3V118l0-0.3l0-0.3l-0.1-0.3l0-0.3l0-0.6
			l0-0.3l0-0.3l0-0.3V115l0-0.2l0-0.3l0-0.3v-0.3l0-0.3l0-0.3V113l0-0.3l0.2-0.3H311.2z"/>
		<path class="st1" d="M329.2,129.1l-0.2-0.3l0-0.2l-0.2-0.3l-0.1-0.3l0-0.3l-0.1-0.2l-0.2-0.2l0-0.3l-0.1-0.3l-0.1-0.2l-0.1-0.3
			l-0.1-0.3l-0.1-0.2l-0.2-0.3l-0.3-0.3l-0.4,0l-0.3,0h-0.2l-0.3,0l-0.3,0l-0.4,0l-0.3,0l-0.3,0h-0.2l-0.3,0h-0.7l-0.3,0l-0.3,0
			l-0.2,0h-0.3l-0.3,0h-0.3l-0.2,0h-2.1l-0.3,0h-0.3l-0.2,0h-0.6l-0.4,0.3l-0.2,0.2l0,0.3l-0.2,0.3l-0.1,0.3l-0.1,0.3l-0.1,0.3
			l-0.1,0.3l0,0.2l-0.1,0.3l-0.1,0.3l0,0.2l-0.2,0.3l-0.1,0.3l-0.1,0.2l-0.2,0.3l-0.4,0.2h-0.4l-0.3,0l-0.2-0.3l0.1-0.3l0.1-0.3
			l0.2-0.2l0.1-0.3l0.1-0.3l0.1-0.3l0.1-0.3l0.2-0.2l0.1-0.3l0.1-0.3l0.1-0.3l0.1-0.2l0.1-0.3l0.2-0.3l0.1-0.3l0.1-0.2l0.2-0.3
			l0.1-0.3l0.2-0.3l0.1-0.3l0.1-0.3l0.1-0.2l0.1-0.3l0.1-0.2l0-0.3l0.1-0.3l0.2-0.3l0.1-0.3l0.1-0.2l0-0.3l0.2-0.3l0.1-0.3l0.1-0.3
			l0.1-0.2l0.1-0.3l0.1-0.3l0.1-0.3l0.1-0.3l0-0.3l0.2-0.2l0.1-0.3l0.1-0.2l0-0.3l0.1-0.2l0.1-0.3l0.2-0.3l0.1-0.2l0-0.3l0.2-0.3
			l0.1-0.2l0.1-0.3l0-0.3l0.1-0.3l0.1-0.2l0.2-0.3l0.1-0.2l0.1-0.3l0.2-0.3l0-0.3l0.2-0.2l0-0.3l0.2-0.2l0.4-0.3h0.4l0.2,0l0.4,0.3
			l0.1,0.3l0.2,0.3l0.1,0.3l0.1,0.3l0.1,0.2l0.1,0.3l0.1,0.2l0.1,0.2l0.1,0.3l0.2,0.3l0,0.2l0.2,0.3l0.1,0.3l0,0.3l0.1,0.2l0.1,0.3
			l0.1,0.2l0.1,0.3l0.1,0.2l0.2,0.3l0,0.3l0.2,0.3l0.2,0.5l0.1,0.3l0.1,0.3l0.1,0.2l0.2,0.3l0.1,0.3l0.1,0.3l0.2,0.2l0.1,0.3
			l0.1,0.2l0.1,0.3l0.1,0.2l0.1,0.3l0.2,0.5l0.1,0.2l0.1,0.3l0.3,0.5l0,0.3l0.2,0.3l0.1,0.2l0.1,0.3l0,0.3l0.1,0.3l0.2,0.2l0,0.3
			l0.2,0.2l0.1,0.3l0.1,0.3l0.1,0.3l0.1,0.2l0.1,0.3l0.1,0.2l0.2,0.5l0.1,0.3l0.2,0.3l0.1,0.3l-0.2,0.2l-0.3,0h-0.3l-0.4-0.3
			L329.2,129.1z M318.7,123.9h0.5l0.4,0h0.2l0.2,0l0.3,0h0.3l0.3,0l0.3,0l0.3,0l0.3,0l0.3,0h0.3l0.2,0h0.3l0.2,0l0.3,0h0.6l0.3,0
			h0.3l0.3,0l0.3,0l0.2,0l0.3,0l0.3,0l0.3,0l0.2-0.3l-0.2-0.3l-0.1-0.2l-0.1-0.3l-0.1-0.3l-0.1-0.3L326,122l-0.1-0.3l-0.1-0.3
			l-0.3-0.5l-0.1-0.3l-0.1-0.3l0-0.3l-0.2-0.2l-0.1-0.3l-0.2-0.3l-0.1-0.2l0-0.3l-0.1-0.2l-0.1-0.3l-0.3-0.8l-0.1-0.3l-0.2-0.2
			l-0.1-0.3l0-0.3l-0.1-0.3l-0.1-0.3l-0.1-0.3l-0.1-0.2L323,115l-0.2-0.3l0-0.3l-0.1-0.2l-0.2,0l-0.1,0.3l-0.1,0.3L322,115l-0.1,0.2
			l-0.1,0.3l-0.1,0.2l-0.1,0.3l-0.1,0.2l-0.1,0.3l-0.3,0.5l0,0.2l-0.1,0.3l-0.1,0.3l-0.1,0.3l-0.1,0.2l-0.1,0.3l-0.1,0.3l-0.1,0.2
			l-0.1,0.3l-0.1,0.2l-0.1,0.3l-0.2,0.2l0,0.3l-0.1,0.3l-0.1,0.2l-0.1,0.3l-0.1,0.3l-0.2,0.2l-0.1,0.3l-0.2,0.3l0,0.3l-0.1,0.3
			l-0.1,0.3l-0.1,0.3l0.1,0.2L318.7,123.9z"/>
		<path class="st1" d="M347.1,112.4h0.2l0.3,0.3l0,0.3l0,0.3l0,0.3l0,0.3l-0.1,0.3l0,0.3v0.3l0,0.3v1.2l0,0.3l0,0.3l0.1,0.3l0,0.3
			v0.3l0,0.3l0,0.3v0.3l0,0.3l0,0.3l-0.1,0.3l0.1,0.3l-0.1,0.3l0.1,0.3l0,0.3l0,0.3l0,0.3v0.3l0,0.3l0,0.3v0.3l0,0.3v0.3l0,0.3
			l0,0.3l0.1,0.3l-0.1,0.3l0,0.3v0.3l0,0.3l0,0.3l0.1,0.3l-0.1,0.3l0,0.3l0,0.3l0,0.3l0,0.3l0,0.3l0,0.3v0.3l0,0.3v0.3l0,0.3
			l-0.1,0.3l-0.2,0.3l-0.3,0h-0.3l-0.4-0.2l-0.2-0.2l-0.2-0.2l-0.2-0.3l-0.1-0.2l-0.2-0.2l-0.2-0.2l-0.1-0.2l-0.2-0.2l-0.1-0.2
			l-0.2-0.2l-0.2-0.2l-0.2-0.2l-0.2-0.2l-0.1-0.2l-0.2-0.2l-0.2-0.2l-0.2-0.2l-0.1-0.2l-0.2-0.2l-0.2-0.2l-0.2-0.2l-0.1-0.2
			l-0.2-0.2l-0.2-0.3l-0.1-0.2l-0.2-0.2l-0.1-0.3l-0.2-0.2l-0.1-0.2l-0.2-0.2l-0.2-0.2l-0.2-0.2l-0.2-0.2l-0.2-0.3l-0.1-0.2
			l-0.2-0.3l-0.1-0.2l-0.2-0.2l-0.2-0.2l-0.1-0.2l-0.2-0.3l-0.3-0.2l-0.1-0.2l-0.2-0.2l-0.2-0.3l-0.1-0.2l-0.2-0.2l-0.2-0.2
			l-0.1-0.2l-0.2-0.2l-0.1-0.2l-0.2-0.2l-0.2-0.3l-0.1-0.2l-0.2-0.2l-0.1-0.2l-0.2-0.2l-0.1-0.2l-0.2-0.2l-0.1-0.2l-0.2-0.2
			l-0.1-0.2l-0.2-0.2l-0.2-0.2l-0.1,0.1l0,0.3v0.3l0,0.3l0,0.3l0,0.3l0,0.3l0,0.3v0.6l0.1,0.3l0,0.3l0,0.3l0,0.3l0,0.3v0.3l0,0.3
			v0.6l0,0.3l0,0.6l0,0.3v0.6l0,0.3v0.3l0,0.3v0.3l0.1,0.3v0.3l0,0.3l0,0.3v0.3l0,0.3l0,0.3v0.3l0.1,0.3l0,0.3l0,0.3l0,0.3l0,0.3
			l0,0.3l0.1,0.3l0,0.3l0,0.3l0,0.3l0,0.3v0.3l0,0.3v0.3l-0.3,0.3h-0.2l-0.3,0l-0.3-0.3V129l-0.1-0.3l0.1-0.3l-0.1-0.3l0-0.3l0-0.3
			l0.1-0.3l0-0.3l0-0.3l0-0.3l0-0.3l-0.1-0.3l0-0.3l0-0.3l0-0.3l0-0.3l0-0.3l0-0.3l0-0.3l0-0.3l0-0.3l0-0.3l0-0.3l0-0.3l0-0.3l0-0.6
			V121l0-0.3v-0.3l0-0.3l-0.1-0.3l0.1-0.3v-0.3l-0.1-0.3l0-0.3v-0.3l0-0.3v-0.3l0-0.3l0-0.3l0.1-0.3l-0.1-0.3l0.1-0.3l0-0.3l0-0.3
			l0-0.3l0-0.3l0-0.3l0-0.6l0-0.3l0-0.3l0.1-0.3V113l0-0.3l0.3-0.3h0.5l0.4,0.2l0.2,0.2l0.1,0.2l0.2,0.3l0.2,0.2l0.1,0.2l0.1,0.2
			l0.2,0.2l0.1,0.2l0.1,0.2l0.2,0.2l0.2,0.2l0.1,0.2l0.2,0.2l0.2,0.2l0.2,0.2l0.1,0.2l0.2,0.2l0.3,0.2l0.1,0.2l0.2,0.2l0.2,0.2
			l0.1,0.2l0.2,0.2l0.1,0.2l0.2,0.2l0.1,0.2l0.2,0.2l0.3,0.3l0.2,0.2l0.1,0.2l0.2,0.2l0.1,0.2l0.2,0.2l0.2,0.2l0.1,0.2l0.2,0.2
			l0.2,0.3l0.2,0.2l0.1,0.2l0.2,0.2l0.2,0.2l0.1,0.2l0.2,0.2l0.1,0.2l0.2,0.2l0.1,0.2l0.3,0.2l0.1,0.2l0.2,0.2l0.2,0.3l0.2,0.2
			l0.2,0.2l0.2,0.2l0.1,0.2l0.2,0.2l0.2,0.2l0.2,0.2l0.3,0.5l0.2,0.2l0.2,0.2l0.1,0.2l0.1,0.2l0.2,0.2l0.2,0l0.1-0.3l0-0.3l0-0.3
			l0-0.3l0-0.3v-0.3l0-0.3V125l0-0.3v-0.3l0-0.3l0-0.3v-0.3l0-0.3l0-0.3l0-0.3v-0.3l0-0.3l0-0.3l0-0.6l-0.1-0.3v-0.3l0.1-0.3l0-0.3
			v-1.7l0-0.3l0-0.3l0-0.3l0-0.3l0-0.6l0-0.3l0-0.6l0-0.3V115l0-0.2v-0.3l0-0.3l0-0.3l0-0.3l0-0.3v-0.6l0.2-0.3L347.1,112.4z"/>
		<path class="st1" d="M364.8,113l-0.1,0.2l-0.3,0.3h-0.6l-0.3,0h-0.6l-0.3,0h-0.3l-0.3,0h-0.6l-0.3,0l-0.3,0l-0.2,0l-0.3,0h-1.6
			l-0.3,0.3l0.1,0.3l-0.1,0.3v0.3l0,0.3l0,0.3v0.3l0,0.3l0,0.6l0.1,0.3l0,0.3v0.3l0,0.3v0.3l0,0.3v0.3v0.3l-0.1,0.3l0,0.3l0,0.3
			l0,0.3l0,0.2l-0.1,0.3l0,0.3l0,0.3v0.3l0,0.3l0,0.3l0,0.3l0,0.3l0,0.3v0.3l0,0.3l0,0.3v0.3l0,0.3v0.3l0,0.3v0.3v0.3l0,0.3l0,0.3
			v0.3l0,0.3v0.3l0,0.3l0.1,0.3v0.3l-0.1,0.3l0.1,0.3l-0.1,0.3l0,0.3l0,0.3l-0.2,0.3l-0.3,0h-0.4l-0.2-0.3V129l0-0.3l0-0.3l0-0.2
			v-0.3l0-0.3l0-0.3V127l0-0.3v-0.3l-0.1-0.3v-0.3l0.1-0.2V125l-0.1-0.3l0-0.3l0-0.3v-0.3l0-0.3l0-0.3l0.1-0.2l-0.1-0.3l0-0.3l0-0.3
			l0-0.3v-0.3l0-0.3l0-0.3l0-0.3v-0.3l0-0.3l0-0.3v-0.3l0-0.3l-0.1-0.3v-0.3l0-0.3l0-0.3l0-0.3l0-0.3l0-0.3l0-0.3l0-0.3l0-0.3l0-0.3
			v-0.3l0-0.3l-0.1-0.3v-0.6l0-0.3v-0.3l-0.3-0.3l-0.3,0h-0.3l-0.4,0l-0.3,0h-0.2l-0.3,0l-0.3,0h-0.3l-0.3,0l-0.3,0l-0.3,0l-0.3,0
			l-0.2,0h-0.3l-0.3,0h-0.9l-0.3,0l-0.3-0.3v-0.6l0.3-0.3h0.6l0.2,0l0.4,0l0.2,0l0.3,0l0.2,0l0.4,0h0.3l0.2,0l0.3,0h1.4l0.3,0l0.3,0
			l0.3,0h0.2l0.3,0h0.8l0.3,0h0.3l0.3,0l0.3,0l0.2,0h0.3l0.2,0h0.4l0.2,0l0.3,0h0.3l0.2,0h0.4l0.2,0h0.3l0.3,0h0.3l0.2,0l0.4,0h0.3
			l0.3,0l0.2,0.3V113z"/>
		<path class="st1" d="M369.8,128.5l0.3,0l0.2,0h0.3l0.3,0h0.3l0.3,0h1.4l0.3,0h0.2l0.3,0h0.6l0.3,0h0.3l0.3,0h0.3l0.3,0h0.3l0.3,0
			l0.2,0h1.5l0.3,0l0.3,0l0.3,0l0.2,0l0.3,0l0.2,0l0.3,0.3l0,0.3l-0.1,0.3l-0.3,0.3l-0.3,0l-0.3,0l-0.3,0l-0.3,0l-0.2,0l-0.3,0h-0.6
			l-0.3,0l-0.2,0l-0.4,0h-0.2l-0.3,0l-0.3,0l-0.3,0h-0.3l-0.2,0h-1.2l-0.3,0h-2.1l-0.4,0l-0.3,0h-0.6l-0.2,0l-0.3,0h-0.3l-0.3,0
			h-0.6l-0.2-0.3l0-0.3l0-0.3l0-0.3l0-0.3l0-0.3l0-0.3l0-0.3l0.1-0.3v-0.3l-0.1-0.3V126l0.1-0.3v-0.3l0-0.3l0-0.3v-0.3l0-0.3l0-0.3
			l0-0.3l0-0.3l0.1-0.3v-0.3l0-0.3l0-0.3v-0.9l0-0.3l0-0.3l0-0.3l0-0.3l0.1-0.3l0-0.3l0-0.3l0.1-0.3l0-0.3l0-0.3V118l0-0.3l0-0.3
			l-0.1-0.3l0.1-0.3l-0.1-0.3v-0.3l0.1-0.3l-0.1-0.3V115l0-0.3v-0.3l0-0.3v-0.3l0.1-0.3V113l-0.1-0.3l0.3-0.3h0.3l0.3,0l0.2,0h0.3
			l0.3,0l0.2,0l0.3,0l0.3,0l0.3,0l0.3,0h0.9l0.3,0l0.2,0l0.3,0l0.3,0l0.3,0l0.3,0l0.3,0l0.2,0l0.3,0l0.2,0h1.2l0.3,0l0.3,0h0.3
			l0.3,0l0.3,0h0.3l0.2,0l0.3,0h1.2l0.3,0.2l0,0.3l0,0.3l-0.4,0.3l-0.2,0l-0.3,0h-0.4l-0.3,0l-0.3,0H377l-0.3,0l-0.3,0l-0.2,0h-1.5
			l-0.3,0l-0.2,0h-0.7l-0.2,0h-0.6l-0.4,0h-0.3l-0.3,0h-0.6l-0.3,0h-0.4l-0.2,0l-0.3,0l-0.3,0l-0.3,0.3l0,0.3v0.3l0,0.3l0,0.3l0,0.3
			l0,0.3l0,0.3l0,0.3l0,0.3l0,0.3v0.3l0,0.3l0.1,0.3l0,0.3l0,0.3l0,0.3l0,0.3l0,0.3l0,0.3v0.3l0.3,0.3l0.3,0l0.3,0l0.3,0h0.3l0.3,0
			h1.2l0.3,0l0.3,0h1.7l0.4,0h0.2l0.3,0h0.3l0.3,0h0.3l0.3,0h1.6l0.3,0h0.6l0.3,0.3v0.3l0,0.2l-0.2,0.3h-0.3l-0.4,0h-0.3l-0.2,0
			l-0.4,0H377l-0.3,0l-0.3,0l-0.3,0h-0.3l-0.3,0l-0.2,0l-0.3,0l-0.3,0l-0.3,0l-0.3,0l-0.3,0l-0.3,0l-0.2,0h-0.6l-0.3,0l-0.3,0
			l-0.2,0l-0.3,0l-0.3,0h-0.9l-0.3,0h-0.3l-0.3,0.3l0,0.3l0,0.3l0,0.3l0,0.3l0,0.3l0,0.3v0.9l0,0.3l0,0.3v0.3l0,0.3l0,0.3l0,0.3
			l0,0.3l0,0.3v0.6l0,0.3v0.6l0.3,0.3L369.8,128.5z"/>
		<path class="st1" d="M389.2,129.9l-0.2,0l-0.3,0l-0.2,0h-0.3l-0.3-0.1l-0.2,0l-0.3-0.1l-0.3-0.1l-0.2,0l-0.4-0.1l-0.2-0.1
			l-0.3-0.1l-0.2-0.1l-0.3-0.1l-0.3-0.1l-0.2-0.1l-0.3-0.1l-0.2-0.1l-0.3-0.1l-0.2-0.2l-0.2-0.2l-0.2-0.2l0-0.4l0.1-0.3l0.1-0.2
			l0.3-0.1l0.5,0.4l0.2,0.2l0.2,0.1l0.3,0.1l0.3,0.1l0.2,0.1l0.3,0.1l0.2,0.1l0.2,0.1l0.3,0.1l0.3,0.1l0.3,0.1l0.3,0.1l0.3,0.1
			l0.3,0l0.3,0l0.3,0h0.3l0.3,0l0.2,0h0.6l0.3,0l0.3,0l0.3,0l0.2,0h0.4l0.2,0l0.3-0.1l0.2-0.1l0.3,0l0.3-0.1l0.3-0.1l0.2-0.1
			l0.2-0.1l0.2-0.2l0.3-0.2l0.2-0.1l0.2-0.2l0.2-0.2l0.1-0.2l0.1-0.3l0.1-0.3l0.1-0.3l0-0.3l0-0.3l0-0.6l-0.1-0.3l0-0.3l0-0.3
			l-0.1-0.3l-0.2-0.2l-0.2-0.2l-0.2-0.2l-0.2-0.2l-0.2-0.1l-0.4-0.3l-0.3-0.1l-0.3-0.1l-0.2-0.1l-0.3-0.1l-0.3-0.1l-0.2-0.1l-0.3,0
			l-0.3-0.1l-0.2,0l-0.3,0l-0.3,0h-0.2l-0.3,0H390l-0.6,0l-0.2,0l-0.3,0l-0.3,0l-0.3,0l-0.3,0l-0.3-0.1l-0.3,0l-0.2-0.1l-0.3-0.1
			l-0.3-0.1l-0.3-0.1l-0.2-0.1l-0.3-0.1l-0.2-0.2l-0.3-0.1l-0.3-0.1l-0.5-0.4l-0.1-0.2l-0.2-0.2l-0.1-0.2l-0.1-0.3l-0.1-0.3
			l-0.1-0.2l-0.1-0.3l-0.1-0.3l0-0.3l0-0.3l-0.1-0.6l0-0.3l0.1-0.2l0.1-0.3l0.1-0.3l0.1-0.3l0.1-0.2l0.2-0.2l0.1-0.2l0.2-0.2
			l0.2-0.2l0.2-0.2l0.1-0.2l0.3-0.2l0.2-0.1l0.2-0.1l0.3-0.1l0.2-0.1l0.2-0.1l0.3-0.1l0.3-0.1l0.5-0.1l0.3-0.1h0.2l0.3-0.1h0.3h0.2
			l0.3,0l0.6,0h0.3h0.3l0.6,0l0.3,0l0.3,0l0.2,0.1l0.3,0l0.8,0.2l0.6,0.1l0.3,0.1l0.2,0.1l0.3,0.1l0.2,0.1l0.3,0.1l0.2,0.1l0.3,0.1
			l0.3,0.1l0.1,0.4l-0.1,0.2l-0.1,0.2l-0.4,0.1l-0.5-0.2l-0.5-0.2l-0.3-0.1l-0.3-0.1l-0.3-0.1l-0.3-0.1l-0.3-0.1l-0.3,0l-0.2-0.1
			l-0.4,0l-0.6-0.1l-0.3,0h-0.3l-0.2,0h-0.3l-0.3,0h-0.6l-0.4,0l-0.3,0l-0.5,0.1l-0.3,0.1l-0.3,0l-0.3,0.1l-0.2,0.1l-0.3,0.1
			l-0.3,0.1l-0.3,0.1l-0.3,0.1l-0.2,0.2l-0.2,0.2l-0.3,0.2l-0.2,0.2l-0.1,0.2l-0.1,0.2l-0.1,0.3l0,0.3l0,0.3l0,0.6l0,0.3l0.1,0.3
			l0.1,0.3l0,0.2l0.1,0.2l0.1,0.3l0.2,0.2l0.2,0.2l0.2,0.2l0.3,0.2l0.3,0.1l0.3,0.1l0.2,0.1l0.3,0l0.6,0.2l0.3,0.1l0.3,0h0.3l0.3,0
			l0.2,0h0.3l0.3,0l0.6,0h0.3l0.3,0h0.3l0.3,0.1h0.3l0.3,0.1l0.2,0l0.3,0.1l0.3,0.1l0.3,0l0.3,0.1l0.3,0.1l0.3,0.1l0.3,0.1l0.2,0.1
			l0.3,0.2l0.5,0.3l0.2,0.2l0.1,0.2l0.2,0.2l0.1,0.2l0.2,0.2l0.1,0.2l0,0.3l0.1,0.2l0.1,0.3l0.1,0.2l0,0.3l0,0.3v0.6v0.3l0,0.3
			l0,0.3l-0.1,0.3l-0.1,0.3l-0.1,0.3l-0.2,0.2l-0.3,0.5l-0.2,0.2l-0.1,0.2l-0.3,0.2l-0.4,0.3l-0.3,0.1l-0.2,0.1l-0.3,0.1l-0.2,0.1
			l-0.2,0.1l-0.3,0.1l-0.3,0.1l-0.5,0.1l-0.3,0l-0.3,0.1l-0.3,0l-0.4,0h-0.3l-0.3,0l-0.3,0l-0.6,0L389.2,129.9z"/>
		<path class="st1" d="M408.2,128.5h0.3l0.3,0l0.3,0l0.2,0l0.3,0h0.9l0.3,0l0.3,0l0.2,0l0.3,0h0.9l0.3,0l0.2,0l0.3,0l0.3,0h0.3
			l0.3,0l0.2,0l0.3,0l0.3,0l0.3,0h0.3l0.2,0h0.3l0.2,0h0.3l0.3,0h0.3l0.4,0l0.3,0.3l-0.1,0.2l0,0.3l-0.3,0.3l-0.3,0H417l-0.3,0h-0.3
			l-0.2,0l-0.3,0h-0.2l-0.3,0H415l-0.3,0h-1.5l-0.3,0h-0.2l-0.3,0l-0.3,0h-0.5l-0.3,0h-0.9l-0.3,0h-0.7l-0.3,0l-0.2,0l-0.4,0h-0.9
			l-0.3,0l-0.2,0h-0.3l-0.3-0.3l0-0.3l0.1-0.6l0.1-0.3l0.1-0.3l0.1-0.2l0.2-0.3l0.1-0.2l0.2-0.3l0.1-0.2l0.2-0.3l0.2-0.2l0.1-0.3
			l0.2-0.2l0.1-0.2l0.2-0.2l0.2-0.2l0.2-0.2l0.2-0.2l0.2-0.2l0.2-0.2l0.2-0.2l0.5-0.4l0.4-0.3l0.2-0.2l0.3-0.2l0.2-0.2l0.2-0.1
			l0.2-0.1l0.5-0.3l0.3-0.2l0.2-0.2l0.2-0.1l0.3-0.2l0.3-0.2l0.2-0.2l0.3-0.1l0.2-0.2l0.1-0.2l0.3-0.2l0.2-0.2l0.2-0.2l0.3-0.2
			l0.2-0.2l0.1-0.2l0.2-0.2l0.2-0.2l0.1-0.2l0.1-0.3l0.1-0.2l0.1-0.3l0.1-0.3l0-0.3l0.1-0.3l0-0.6l0-0.3l-0.1-0.3l-0.1-0.2l0-0.3
			l-0.2-0.3l-0.1-0.2l-0.2-0.2l-0.1-0.2l-0.2-0.2l-0.2-0.2l-0.2-0.1l-0.3-0.1l-0.3-0.1l-0.3-0.1l-0.3-0.1l-0.3,0l-0.3,0l-0.3,0
			l-0.3,0h-0.3H412l-0.2,0l-0.3,0l-0.3,0l-0.3,0.1h-0.2l-0.3,0l-0.2,0l-0.3,0.1l-0.2,0.1l-0.3,0l-0.3,0.1l-0.3,0.1l-0.2,0.1
			l-0.3,0.1l-0.2,0.1l-0.3,0.1l-0.2,0.1l-0.2-0.2l0-0.3l0-0.3l0.3-0.4l0.2-0.1l0.3-0.1l0.2-0.1l0.3-0.1l0.3-0.1l0.2-0.1l0.3-0.1
			l0.3,0l0.3,0l0.2-0.1l0.3,0l0.4-0.1l0.2,0l0.3,0h0.3l0.3,0l0.5,0h0.3h0.3l0.3,0l0.3,0l0.5,0.1l0.3,0l0.3,0.1l0.2,0l0.3,0.1
			l0.3,0.1l0.2,0.1l0.3,0.1l0.2,0.2l0.2,0.2l0.2,0.2l0.2,0.2l0.1,0.3l0.2,0.2l0.1,0.2l0.1,0.3l0,0.3l0.1,0.3l0.1,0.3l0.1,0.3l0,0.3
			l-0.1,0.6l0,0.3l-0.1,0.3l0,0.3l-0.1,0.3l-0.1,0.2l-0.1,0.3l-0.1,0.2l-0.2,0.2l-0.1,0.2l-0.2,0.2l-0.2,0.2l-0.2,0.2l-0.2,0.2
			l-0.2,0.2l-0.2,0.2l-0.2,0.2l-0.2,0.2l-0.2,0.2l-0.2,0.2l-0.3,0.1l-0.1,0.2l-0.3,0.2l-0.3,0.1l-0.2,0.2l-0.2,0.2l-0.2,0.2
			l-0.2,0.1l-0.3,0.2l-0.2,0.1l-0.2,0.2l-0.2,0.2l-0.3,0.1l-0.2,0.2l-0.3,0.2l-0.2,0.1l-0.2,0.2l-0.3,0.2l-0.2,0.2l-0.2,0.2
			l-0.3,0.2l-0.1,0.2l-0.2,0.2l-0.3,0.2l-0.1,0.2l-0.2,0.2l-0.2,0.2l-0.2,0.2l-0.1,0.3l-0.1,0.2l-0.2,0.3l-0.1,0.2l-0.2,0.2
			l-0.2,0.3l0.1,0.3L408.2,128.5z"/>
		<path class="st1" d="M426.9,129.9l-0.3,0l-0.3,0l-0.2,0l-0.4-0.1l-0.2-0.1l-0.3-0.1l-0.2-0.1l-0.3-0.1l-0.2-0.1l-0.3-0.1l-0.2-0.2
			l-0.2-0.1l-0.2-0.2l-0.1-0.2l-0.3-0.2l-0.1-0.2l-0.2-0.2l-0.2-0.2l-0.1-0.2l-0.1-0.3l-0.2-0.3l-0.1-0.2l-0.2-0.3l-0.1-0.3
			l-0.1-0.3l0-0.3l-0.1-0.3l-0.1-0.3v-0.3l0-0.3l-0.1-0.3l0-0.3l0-0.3l0-0.3l0-0.3l0-0.3v-0.3l0-0.3l0-0.3l0-0.6l0-0.3l0-0.3l0-0.3
			l0-0.3l0-0.3v-0.3l0.1-0.3l0.1-0.3V118l0-0.3l0.1-0.3l0-0.3l0.1-0.3l0.1-0.3l0.1-0.3l0-0.2l0.1-0.3l0.1-0.3l0.1-0.3l0.1-0.3
			l0.2-0.2l0.2-0.2l0.1-0.2l0.2-0.2l0.2-0.2l0.2-0.2l0.2-0.2l0.2-0.1l0.2-0.2l0.2-0.2l0.3-0.1l0.3-0.1l0.5-0.2l0.3-0.1l0.3-0.1
			l0.3,0l0.3-0.1h0.2l0.3,0l0.6,0h0.3l0.3,0l0.3,0.1l0.2,0l0.3,0.1l0.3,0.1l0.2,0.1l0.3,0.1l0.2,0.1l0.2,0.2l0.3,0.1l0.2,0.1
			l0.3,0.2l0.2,0.2l0.2,0.2l0.1,0.2l0.2,0.2l0.2,0.2l0.2,0.2l0.2,0.2l0.1,0.2l0.2,0.3l0,0.2l0.1,0.3l0.1,0.3l0,0.3l0.2,0.3l0,0.3
			l0.1,0.3l0,0.3l0.1,0.3l0,0.3l0,0.3l0,0.3l0.1,0.3l0,0.3l0,0.3l0,0.3v0.3l0,0.3l0.1,0.6v0.3l0,0.3l-0.1,0.3l0,0.3l-0.1,0.3l0,0.3
			l0,0.3l-0.1,0.3l0,0.3l0,0.2l-0.1,0.3l-0.1,0.3l-0.1,0.3l0,0.3l-0.2,0.2l-0.1,0.3l-0.1,0.3l-0.2,0.2l-0.1,0.3l-0.1,0.3l-0.1,0.2
			l-0.2,0.2l-0.1,0.2l-0.2,0.2l-0.2,0.2l-0.2,0.2l-0.3,0.2l-0.2,0.2l-0.2,0.2l-0.2,0.1l-0.2,0.2l-0.2,0.1l-0.3,0.1l-0.3,0.1
			l-0.3,0.1l-0.2,0.1l-0.3,0l-0.3,0.1l-0.3,0l-0.3,0l-0.5,0H426.9z M428.3,128.8l0.3-0.1l0.3-0.1l0.3-0.1l0.2-0.1l0.2-0.1l0.3-0.1
			l0.2-0.2l0.2-0.1l0.3-0.2l0.1-0.2l0.4-0.4l0.1-0.3l0.2-0.2l0.1-0.2l0.2-0.3l0.1-0.3l0.1-0.2l0.1-0.3l0.1-0.3l0.1-0.3l0-0.3
			l0.1-0.3l0.1-0.3l0.1-0.3l0-0.3l0-0.3l0-0.3l0-0.3l0-0.3l0-0.3l0.1-0.3l0-0.6l0-0.3l0-0.3v-0.3l-0.1-0.3l0-0.3l0-0.3l-0.1-0.3
			v-0.3l-0.1-0.3l0-0.3l-0.1-0.3l0-0.3l-0.1-0.3l-0.1-0.3l-0.1-0.2l-0.1-0.3l-0.2-0.3l-0.1-0.3l-0.1-0.2l-0.2-0.2l-0.2-0.2l-0.4-0.4
			l-0.2-0.2l-0.2-0.2l-0.2-0.1l-0.3-0.2l-0.2-0.1l-0.3-0.1l-0.3-0.1l-0.2-0.1l-0.3,0l-0.4,0l-0.2,0h-0.6l-0.3,0l-0.2,0l-0.3,0
			l-0.3,0.1l-0.3,0.1l-0.3,0.1l-0.3,0.1l-0.2,0.1l-0.3,0.2l-0.2,0.2l-0.3,0.2l-0.1,0.2l-0.2,0.2l-0.2,0.2l-0.2,0.2l-0.1,0.2
			l-0.1,0.3L423,116l-0.2,0.3l-0.1,0.3l0,0.3l-0.1,0.3l-0.1,0.3l-0.1,0.3l0,0.3l-0.1,0.3l-0.1,0.3l0,0.3l0,0.3l0,0.3l0,0.3l0,0.3
			l-0.1,0.3l0,0.3l0,0.6l0.1,0.3l0,0.3l0,0.3l0,0.3l0,0.3l0,0.3l0.1,0.3l0,0.3l0,0.3l0.1,0.3l0.1,0.3l0,0.3l0.1,0.2l0.1,0.3l0.2,0.3
			l0.1,0.2l0.1,0.3l0.1,0.3l0.1,0.2l0.2,0.3l0.2,0.2l0.2,0.2l0.2,0.2l0.3,0.2l0.2,0.2l0.2,0.2l0.3,0.1l0.5,0.2l0.3,0.1l0.3,0.1
			l0.3,0l0.3,0l0.3,0h0.9L428.3,128.8z"/>
		<path class="st1" d="M441.1,128.6h0.3l0.3,0h1.2l0.3,0h0.8l0.3,0.2l0,0.5l-0.2,0.3h-0.6l-0.3,0h-0.3l-0.2,0l-0.3,0l-0.3,0h-0.2
			l-0.3,0l-0.3,0l-0.2,0l-0.3,0h-0.3l-0.3,0l-0.2,0l-0.3,0H439l-0.3,0h-0.3l-0.3,0l-0.3,0h-0.3l-0.2,0H437l-0.3,0h-0.3l-0.3,0
			l-0.3-0.3l0-0.3v-0.2l0.3-0.3l0.2,0h0.4l0.2,0h0.3l0.3,0l0.2,0h0.3l0.3,0l0.3,0l0.3,0l0.3-0.3v-0.3l0-0.3l0.1-0.3l-0.1-0.9l0-0.3
			l0-0.3l0-0.3V125l0-0.3l0-0.3l0-0.3l0-0.3l0-0.3l0-0.3l0-0.3l0-0.3l0-0.3l0-0.3l0-0.3l-0.1-0.3l0-0.3l0-0.3l0-0.3l0-0.3v-0.3
			l0.1-0.3l0-0.3V119l0-0.3l-0.1-0.3l0-0.3v-0.3l0-0.3l0-0.3v-0.6l0-0.3l0-0.3l0-0.3l0-0.3v-0.6l0-0.3v-0.3l0-0.3l-0.3-0.2l-0.3,0.1
			l-0.2,0.1l-0.3,0.1l-0.3,0.1l-0.3,0.1l-0.3,0.1l-0.3,0.1l-0.2,0.1l-0.3,0.1l-0.3,0l-0.4-0.1l0-0.3l0-0.2l0.3-0.4l0.9-0.3l0.2-0.1
			l0.3-0.1l0.3-0.1l0.2-0.1l0.3-0.1l0.3-0.1l0.3-0.1l0.3-0.1l0.2-0.1l0.7-0.1l0.3,0.3l0,0.3v0.3l0,0.3l0.1,0.3v1.2l-0.1,0.3v0.3
			l0,0.3l0,0.3l0,0.3l0,0.3l0.1,0.3l-0.1,0.3l0.1,0.3l0,0.3l0,0.3l0,0.3l0,0.3l0,0.3l0,0.3l0,0.3v0.3l0.1,0.3l-0.1,0.3l0,0.3l0,0.3
			v0.3l0,0.3l0,0.3l0.1,0.3l0,0.3v0.3l0,0.3l0,0.3l0,0.3l0,0.3l0,0.3l0,0.3l0,0.3l0,0.3l0,0.3l0,0.3l0,0.3l0,0.3l0,0.6v0.3l0,0.3
			l0,0.3v0.3l0.3,0.3L441.1,128.6z"/>
		<path class="st1" d="M455.8,120.5l0.3,0.1l0.2,0.1l0.6,0.3l0.2,0.2l0.3,0.2l0.2,0.2l0.4,0.4l0.2,0.2l0.1,0.3l0.1,0.3l0.1,0.2
			l0,0.3l0.1,0.3l0,0.3l0.1,0.3l0,0.3v0.6l0,0.3l0,0.3l-0.1,0.3l-0.1,0.3l0,0.2l-0.1,0.3l-0.1,0.3l-0.2,0.3l-0.2,0.2l-0.1,0.2
			l-0.2,0.2l-0.2,0.2l-0.2,0.2l-0.5,0.3l-0.2,0.1l-0.3,0.1l-0.2,0.1l-0.3,0.1l-0.3,0.1l-0.3,0.1l-0.3,0.1l-0.3,0.1l-0.3,0.1l-0.3,0
			l-0.3,0l-0.3,0h-0.2l-0.3,0h-0.7l-0.3,0h-0.3l-0.3,0l-0.3,0l-0.3-0.1l-0.2,0l-0.3-0.1l-0.6-0.2l-0.3-0.1l-0.2-0.1l-0.3-0.1
			l-0.2-0.1l-0.3-0.2l-0.2-0.2l-0.2-0.1l-0.2-0.2l-0.2-0.2l-0.3-0.2l-0.1-0.2l-0.2-0.2l-0.1-0.3l-0.2-0.2l-0.1-0.3l-0.1-0.3
			l-0.1-0.3l-0.1-0.6l0-0.3l0-0.6l0-0.3l0-0.3l0.1-0.3l0-0.2l0.2-0.3l0-0.3l0.2-0.3l0.1-0.2l0.1-0.3l0.2-0.2l0.2-0.2l0.2-0.2
			l0.2-0.2l0.3-0.2l0.2-0.1l0.3-0.1l0.2-0.2l0.3-0.1l0.2-0.1l0.1-0.2l-0.3-0.1l-0.2-0.1l-0.2-0.1l-0.2-0.1l-0.2-0.2l-0.2-0.2
			l-0.2-0.2l-0.2-0.2l-0.2-0.2l-0.1-0.3l-0.2-0.2l-0.1-0.3l-0.1-0.2l-0.1-0.3V117l-0.1-0.3v-0.6l0-0.3l0.1-0.3v-0.3l0.1-0.3l0.1-0.2
			l0.2-0.3l0.1-0.2l0.1-0.2l0.3-0.2l0.1-0.2l0.3-0.1l0.2-0.2l0.2-0.1l0.3-0.1l0.3-0.1l0.2-0.1l0.3-0.1l0.2-0.1l0.3-0.1l0.3-0.1
			l0.6-0.1l0.3,0l0.3-0.1h0.3l0.3,0l0.8,0h0.4l0.2,0l0.3,0l0.3,0l0.2,0l0.3,0.1l0.3,0l0.2,0.1l0.3,0.1l0.3,0.1l0.2,0.1l0.3,0.1
			l0.3,0.2l0.2,0.2l0.2,0.2l0.2,0.2l0.3,0.2l0.2,0.2l0.2,0.3l0.1,0.2l0.2,0.3l0.1,0.3l0.1,0.3l0,0.3l0.1,0.3l0,0.6l-0.1,0.3v0.3
			l-0.1,0.3l-0.1,0.3l-0.1,0.2l-0.1,0.2l-0.2,0.2l-0.2,0.3l-0.2,0.2l-0.1,0.2l-0.3,0.2l-0.3,0.2l-0.2,0.1l-0.3,0.1l-0.2,0.1
			l-0.2,0.1l0,0.2L455.8,120.5z M452.9,128.8l0.3,0h0.3l0.3,0l0.3,0l0.3-0.1l0.3-0.1l0.3-0.1l0.3-0.1l0.2-0.1l0.3-0.1l0.2-0.2
			l0.3-0.2l0.2-0.2l0.2-0.2l0.2-0.2l0.2-0.3l0.1-0.2l0.1-0.2l0.1-0.3l0.1-0.3v-0.3l0-0.3l0-0.6l0-0.3l0-0.3l-0.1-0.3l-0.1-0.3
			l-0.1-0.2l-0.2-0.2l-0.1-0.3l-0.2-0.2l-0.2-0.2l-0.3-0.2l-0.2-0.2l-0.2-0.2l-0.3-0.1l-0.3-0.1l-0.3-0.1l-0.3-0.1l-0.3-0.1
			l-0.2-0.1l-0.3,0l-0.2,0l-0.4,0l-0.3,0l-0.3,0H452l-0.3,0l-0.3,0h-0.3l-0.3,0l-0.2,0l-0.3,0l-0.3,0.1l-0.3,0.1l-0.2,0.1l-0.2,0.1
			l-0.3,0.1l-0.2,0.1l-0.3,0.2l-0.3,0.2l-0.2,0.2l-0.2,0.2l-0.1,0.2l-0.2,0.2l-0.1,0.2l-0.1,0.3l-0.1,0.2l-0.1,0.3l0,0.2v0.3l0,0.6
			l0,0.2l0.1,0.3v0.3l0.1,0.3l0.2,0.2l0.2,0.2l0.1,0.2l0.2,0.2l0.2,0.2l0.2,0.2l0.2,0.2l0.2,0.1l0.3,0.1l0.2,0.1l0.3,0.1l0.2,0.1
			l0.2,0.1l0.3,0.1l0.3,0.1l0.3,0l0.3,0l0.3,0l0.3,0l0.3,0l0.6,0H452.9z M447.4,117l0.1,0.3l0,0.2l0.1,0.3l0.1,0.2l0.2,0.3l0.1,0.2
			l0.2,0.2l0.2,0.1l0.3,0.1l0.2,0.2l0.3,0.1l0.3,0.1l0.3,0.1l0.3,0.1l0.2,0l0.3,0.1l0.3,0h0.2l0.3,0h0.3l0.6,0l0.3,0l0.4,0l0.6-0.1
			l0.3,0l0.3-0.1l0.3-0.1l0.6-0.2l0.3-0.1l0.2-0.1l0.3-0.2l0.2-0.2l0.2-0.2l0.1-0.2l0.1-0.3l0.2-0.3l0-0.3l0.1-0.3v-0.3l0-0.6v-0.3
			l-0.1-0.3l-0.1-0.2l-0.1-0.3l-0.1-0.2l-0.2-0.2l-0.2-0.2l-0.1-0.2l-0.3-0.2l-0.2-0.1l-0.2-0.1l-0.3-0.1l-0.2-0.1l-0.3-0.1l-0.2,0
			l-0.3,0l-0.3,0h-0.2l-0.3,0l-0.3,0H452l-0.3,0h-0.3l-0.3,0.1l-0.3,0l-0.3,0l-0.2,0.1l-0.3,0l-0.3,0.1l-0.3,0.1l-0.3,0.1l-0.2,0.1
			l-0.3,0.1l-0.2,0.2l-0.2,0.2l-0.1,0.2l-0.2,0.2l-0.2,0.2l-0.1,0.3l0,0.3l-0.1,0.3l0,0.6V117z"/>
	</g>
	<g>
		<rect x="469.7" y="107.9" class="st2" width="9.7" height="22"/>
		<rect x="479.4" y="107.9" class="st3" width="9.7" height="22"/>
		<rect x="489" y="107.9" class="st4" width="9.7" height="22"/>
	</g>
	<g>
		<g>
			<polygon class="st5" points="48.7,91.3 61.9,105.4 47.5,129 26,129 			"/>
			<polygon class="st6" points="34.3,75.9 48.7,91.3 26,129 2,129 			"/>
			<polygon class="st7" points="51.4,86.9 61.9,105.4 48.7,91.3 			"/>
			<polygon class="st8" points="40,66.6 51.4,86.9 48.7,91.3 34.3,75.9 			"/>
			<path class="st4" d="M81.7,62.4c1.8,3.4,1.7,7.5-0.3,10.8l-8,13.2l-44.8-82H50L81.7,62.4z"/>
			<polygon class="st2" points="28.6,4.3 73.4,86.4 61.9,105.4 51.4,86.9 40,66.6 5.2,4.3 			"/>
		</g>
	</g>
</g>
</svg>
